<?xml version="1.0" encoding="UTF-8" standalone="no"?>
<svg
   xmlns:dc="http://purl.org/dc/elements/1.1/"
   xmlns:cc="http://creativecommons.org/ns#"
   xmlns:rdf="http://www.w3.org/1999/02/22-rdf-syntax-ns#"
   xmlns:svg="http://www.w3.org/2000/svg"
   xmlns="http://www.w3.org/2000/svg"
   xmlns:sodipodi="http://sodipodi.sourceforge.net/DTD/sodipodi-0.dtd"
   xmlns:inkscape="http://www.inkscape.org/namespaces/inkscape"
   version="1.1"
   id="svg2"
   xml:space="preserve"
   width="635.17334"
   height="571.62665"
   viewBox="0 0 635.17334 571.62665"
   sodipodi:docname="3516853.eps"><metadata
     id="metadata8"><rdf:RDF><cc:Work
         rdf:about=""><dc:format>image/svg+xml</dc:format><dc:type
           rdf:resource="http://purl.org/dc/dcmitype/StillImage" /></cc:Work></rdf:RDF></metadata><defs
     id="defs6"><clipPath
       clipPathUnits="userSpaceOnUse"
       id="clipPath290"><path
         d="m 1722.23,665.398 -108.38,-62.566 c -8.11,-4.684 -21.25,-4.684 -29.36,0 l -132.27,75.367 c -8.11,4.68 -8.11,12.27 0,16.949 l 108.39,62.571 c 8.11,4.679 21.26,4.679 29.37,0 35.86,-20.707 96.39,-54.66 132.25,-75.367 8.11,-4.672 8.11,-12.274 0,-16.954"
         id="path288" /></clipPath></defs><sodipodi:namedview
     pagecolor="#ffffff"
     bordercolor="#666666"
     borderopacity="1"
     objecttolerance="10"
     gridtolerance="10"
     guidetolerance="10"
     inkscape:pageopacity="0"
     inkscape:pageshadow="2"
     inkscape:window-width="640"
     inkscape:window-height="480"
     id="namedview4" /><g
     id="g10"
     inkscape:groupmode="layer"
     inkscape:label="ink_ext_XXXXXX"
     transform="matrix(1.3333333,0,0,-1.3333333,0,571.62667)"><g
       id="g12"
       transform="scale(0.1)"><path
         d="M 4066.16,2347.6 C 4996.35,1810.56 4996.35,939.84 4066.15,402.789 3135.96,-134.262 1627.83,-134.262 697.641,402.781 -232.551,939.828 -232.547,1810.55 697.645,2347.59 1627.84,2884.64 3135.97,2884.64 4066.16,2347.6"
         style="fill:#f3f2f1;fill-opacity:1;fill-rule:nonzero;stroke:none"
         id="path14" /><path
         d="m 4099.03,1131.1 c -0.41,0.93 -0.93,1.76 -1.55,2.59 l -1.35,1.66 -1.56,1.87 -1.76,1.66 c -1.77,1.56 -3.94,3.11 -6.43,4.56 L 1859.46,2428.99 c -19.82,11.41 -51.99,11.41 -71.81,0 L 628.934,1761.84 c -1.555,-0.94 -3.008,-1.77 -4.254,-2.7 l -1.45,-1.15 c -2.597,-2.17 -4.566,-4.35 -6.019,-6.74 l -1.035,-1.76 c -0.524,-0.93 -0.938,-1.87 -1.145,-2.81 l -0.519,-2.17 c -0.309,-1.25 -0.418,-2.39 -0.418,-3.63 l 0.211,-2.5 c 0.207,-0.93 0.414,-1.87 0.726,-2.8 0.313,-0.93 0.727,-1.86 1.145,-2.69 2.277,-4.57 6.531,-8.83 12.758,-12.46 L 2855.86,434.891 c 6.12,-3.532 13.59,-5.911 21.37,-7.262 4.67,-0.828 9.65,-1.149 14.53,-1.25 4.88,0 9.75,0.422 14.42,1.152 1.66,0.199 3.22,0.508 4.67,0.93 4.57,1.039 8.92,2.488 12.97,4.348 1.35,0.632 2.59,1.363 3.84,2.082 l 1158.72,667.149 c 13.59,7.89 17.84,19.09 12.65,29.06"
         style="fill:#dadbd8;fill-opacity:1;fill-rule:nonzero;stroke:none"
         id="path16" /><path
         d="m 4307.15,1558.98 c -193.43,-111.67 -507.03,-111.67 -700.46,0 -193.43,111.68 -193.43,292.73 0,404.41 193.42,111.67 507.03,111.67 700.45,-0.01 193.42,-111.67 193.42,-292.73 0.01,-404.4"
         style="fill:#dadbd8;fill-opacity:1;fill-rule:nonzero;stroke:none"
         id="path18" /><path
         d="m 1351.84,279.91 c -21.29,0 -41.77,5.059 -57.66,14.262 l -991.95,572.68 -0.937,0.64 c -19.289,11.528 -30.625,29.629 -30.477,49.278 0.153,19.789 11.954,37.91 32.399,49.71 l 654.375,377.8 c 15.816,9.14 36.242,14.17 57.51,14.17 21.3,0 41.79,-5.03 57.7,-14.16 l 991.25,-572.208 c 20.46,-11.883 32.22,-30.051 32.32,-49.883 0.1,-18.859 -10.37,-36.258 -28.83,-48.051 -1.26,-0.937 -2.61,-1.808 -4.03,-2.589 l -495.17,-285.7 -158.88,-91.73 c -15.89,-9.18 -36.35,-14.219 -57.61,-14.219 h -0.01"
         style="fill:#dadbd8;fill-opacity:1;fill-rule:nonzero;stroke:none"
         id="path20" /><path
         d="m 3769.12,1322.88 -67.97,-39.22 -904.86,-522.058 c -2.39,-1.34 -4.77,-2.59 -7.26,-3.633 -14.95,-6.117 -31.65,-6.117 -46.59,0 -2.49,1.043 -4.99,2.293 -7.37,3.633 l -1718.09,991.918 -83.121,47.94 c -3.218,1.87 -5.808,3.95 -7.781,6.12 -8.609,9.45 -5.914,21.48 7.781,29.48 l 972.411,561.38 c 12.35,7.06 25.12,12.14 37.78,10.48 3.11,-0.41 6.12,-1.24 9.23,-2.49 1.56,-0.62 3.22,-1.35 4.77,-2.28 L 3769.12,1358.48 c 13.69,-7.89 13.69,-27.71 0,-35.6 m 233.27,-44.41 c -0.42,0.94 -0.94,1.77 -1.56,2.6 l -1.35,1.66 -1.55,1.86 -1.77,1.66 c -1.76,1.56 -3.95,3.12 -6.44,4.57 L 1823.46,2541.53 c -19.81,11.42 -51.98,11.42 -71.8,0 L 689.59,1928.37 c -1.555,-0.93 -3.004,-1.76 -4.254,-2.7 l -1.453,-1.14 c -2.594,-2.18 -4.563,-4.36 -6.02,-6.74 l -1.035,-1.77 c -0.515,-0.93 -0.937,-1.87 -1.14,-2.8 l -0.52,-2.18 c -0.313,-1.24 -0.414,-2.39 -0.414,-3.63 l 0.207,-2.49 c 0.207,-0.93 0.414,-1.87 0.727,-2.81 0.312,-0.93 0.726,-1.86 1.14,-2.69 2.281,-4.57 6.539,-8.82 12.762,-12.45 L 2855.86,636.25 c 6.12,-3.531 13.59,-5.91 21.37,-7.262 4.67,-0.84 9.65,-1.148 14.53,-1.25 4.88,0 9.75,0.41 14.42,1.141 1.66,0.211 3.22,0.519 4.67,0.941 4.57,1.039 8.92,2.489 12.97,4.36 1.35,0.621 2.59,1.34 3.84,2.07 l 1062.06,613.16 c 13.6,7.89 17.86,19.1 12.67,29.06"
         style="fill:#33535f;fill-opacity:1;fill-rule:nonzero;stroke:none"
         id="path22" /><path
         d="m 685.379,1925.63 c -17.891,-12.67 -31.691,-38.17 -31.777,-59.48 l 0.023,-47.44 c -0.023,-22.99 15.953,-50.79 35.898,-62.31 L 2855.63,505.801 c 7.55,-4.36 16.71,-6.992 26.37,-8.039 3.16,-0.391 6.34,-0.582 9.6,-0.621 l 0.13,0.031 -0.02,130.508 0.05,0.07 c -4.91,0.059 -9.82,0.43 -14.52,1.191 -7.84,1.348 -15.26,3.789 -21.42,7.348 L 689.551,1886.98 c -18.25,10.54 -19.719,27.2 -4.172,38.65"
         style="fill:#273e47;fill-opacity:1;fill-rule:nonzero;stroke:none"
         id="path24" /><path
         d="m 3428.65,1023.82 c -34.76,20.03 -93.39,20.03 -128.15,0 -8.93,-5.19 -15.57,-11.2 -19.19,-17.53 -11.53,-19.931 9.54,-34.97 19.19,-40.579 34.76,-20.031 93.39,-20.031 128.15,0 8.83,5.187 15.47,11.211 19.2,17.539 11.52,19.92 -9.65,34.97 -19.2,40.57"
         style="fill:#26b6a6;fill-opacity:1;fill-rule:nonzero;stroke:none"
         id="path26" /><path
         d="m 1307.53,2178.74 c 9.69,5.59 9.69,14.67 0,20.26 -9.7,5.6 -25.41,5.6 -35.11,0 -9.69,-5.59 -9.69,-14.67 0,-20.26 9.7,-5.6 25.41,-5.6 35.11,0"
         style="fill:#17282f;fill-opacity:1;fill-rule:nonzero;stroke:none"
         id="path28" /><path
         d="m 1252.35,2082.72 c 8.6,4.96 8.6,13.01 0,17.97 -8.6,4.97 -22.55,4.97 -31.15,0 -8.6,-4.96 -8.6,-13.01 0,-17.97 8.6,-4.97 22.55,-4.97 31.15,0"
         style="fill:#17282f;fill-opacity:1;fill-rule:nonzero;stroke:none"
         id="path30" /><path
         d="m 1305.09,2112.44 174.37,100.67 c 9.56,5.52 10.03,14.19 1.07,19.36 -8.96,5.18 -23.97,4.9 -33.53,-0.62 l -174.37,-100.67 c -9.56,-5.52 -10.03,-14.19 -1.07,-19.36 8.97,-5.17 23.97,-4.9 33.53,0.62"
         style="fill:#17282f;fill-opacity:1;fill-rule:nonzero;stroke:none"
         id="path32" /><path
         d="m 3994.45,1287.66 c 14.88,-11.57 13.27,-27.88 -4.73,-38.24 L 2927.63,636.199 c -9.86,-5.711 -22.9,-8.551 -35.92,-8.519 l 0.02,-130.508 c 13.06,0.058 25.9,2.906 35.81,8.687 l 1062.08,613.031 c 19.8,11.36 35.9,39.23 35.92,62.21 l 0.15,47.56 c -0.1,21 -13.6,46.15 -31.24,59"
         style="fill:#17282f;fill-opacity:1;fill-rule:nonzero;stroke:none"
         id="path34" /><path
         d="m 1196.19,1557.85 c 10.25,-5.92 18.56,-19.72 18.56,-30.83 0,-5.36 -1.94,-9.07 -5.11,-10.82 -2.24,-1.24 -10.68,-6.29 -13.01,-7.58 -3.37,-1.88 -8.12,-1.51 -13.39,1.53 l -241.506,139.44 c -10.246,5.91 -18.558,19.71 -18.562,30.82 0,5.12 1.777,8.74 4.695,10.58 2.297,1.45 11.086,6.52 13.399,7.81 3.375,1.89 8.136,1.53 13.418,-1.52 l 241.506,-139.43"
         style="fill:#33535f;fill-opacity:1;fill-rule:nonzero;stroke:none"
         id="path36" /><path
         d="M 1183.24,1550.37 941.734,1689.8 c -10.246,5.92 -18.562,1.71 -18.562,-9.39 0,-11.11 8.316,-24.91 18.562,-30.82 l 241.506,-139.44 c 10.25,-5.92 18.56,-1.72 18.56,9.39 0,11.11 -8.31,24.91 -18.56,30.83"
         style="fill:#17282f;fill-opacity:1;fill-rule:nonzero;stroke:none"
         id="path38" /><path
         d="m 872.918,1744.49 c 10.254,-5.92 18.562,-19.72 18.562,-30.83 0,-5.36 -1.945,-9.07 -5.109,-10.82 -2.238,-1.24 -10.68,-6.29 -13.004,-7.58 -3.375,-1.88 -8.125,-1.51 -13.394,1.53 l -113.852,65.74 c -10.254,5.91 -18.566,19.71 -18.566,30.82 0,5.12 1.781,8.74 4.695,10.58 2.293,1.45 11.09,6.52 13.398,7.81 3.379,1.89 8.137,1.53 13.422,-1.52 l 113.848,-65.73"
         style="fill:#33535f;fill-opacity:1;fill-rule:nonzero;stroke:none"
         id="path40" /><path
         d="m 859.973,1737.01 -113.852,65.73 c -10.254,5.92 -18.566,1.71 -18.566,-9.39 0,-11.11 8.312,-24.91 18.566,-30.83 l 113.852,-65.73 c 10.25,-5.92 18.566,-1.72 18.566,9.39 0,11.11 -8.316,24.9 -18.566,30.83"
         style="fill:#17282f;fill-opacity:1;fill-rule:nonzero;stroke:none"
         id="path42" /><path
         d="m 3769.12,1323.4 -67.97,-39.22 -904.86,-522.059 c -2.39,-1.351 -4.77,-2.601 -7.26,-3.641 -14.95,-6.121 -31.65,-6.121 -46.59,0 -2.49,1.04 -4.99,2.29 -7.37,3.641 l -1718.09,991.909 -83.121,47.95 c -3.218,1.86 -5.808,3.94 -7.781,6.12 -8.609,9.44 -5.914,21.48 7.781,29.47 l 972.411,561.39 c 12.35,7.05 25.12,12.13 37.78,10.47 3.11,-0.41 6.12,-1.24 9.23,-2.49 1.56,-0.62 3.22,-1.34 4.77,-2.28 L 3769.12,1358.99 c 13.69,-7.89 13.69,-27.7 0,-35.59"
         style="fill:#26b6a6;fill-opacity:1;fill-rule:nonzero;stroke:none"
         id="path44" /><path
         d="m 2765.73,753.891 c -7.91,0 -15.82,1.531 -23.29,4.589 -2.49,1.04 -4.99,2.29 -7.37,3.641 l -1718.09,991.909 -83.121,47.95 c -3.218,1.86 -5.808,3.94 -7.781,6.12 -3.226,3.53 -4.863,7.44 -4.933,11.35 0,0.09 0,0.17 0,0.26 0,6.45 4.261,12.93 12.714,17.86 l 642.101,370.69 16.65,-204.03 9.23,-213.86 c 2.66,-47.14 45.41,-96.98 83.52,-116.14 l 630.44,-363.15 c 17.44,-8.76 39.23,-13.03 61.38,-13.03 3.26,0 6.52,0.09 9.79,0.28 25.6,1.44 50.9,8.54 69.73,20.91 l 420.42,242.21 c 20.99,13.81 32.38,32.95 31.25,52.55 -1.15,19.72 -14.15,36.81 -36.7,48.15 l -5.89,3.42 c -0.28,33.53 -18.59,72.52 -44.21,98.1 l 123.33,71.21 824.22,-475.89 c 6.84,-3.94 10.27,-10.87 10.27,-17.8 0,-0.08 0,-0.17 0,-0.25 -0.09,-6.84 -3.51,-13.65 -10.27,-17.54 l -67.97,-39.22 -904.86,-522.059 c -2.39,-1.351 -4.77,-2.601 -7.26,-3.641 -7.47,-3.058 -15.39,-4.589 -23.3,-4.589 m -217.3,188.328 c 4.02,-7.938 10.1,-15.028 16.9,-18.949 l 171.56,-98.981 c 6.05,-3.488 13.98,-5.238 21.92,-5.238 7.93,0 15.86,1.75 21.91,5.238 l 845.67,488.561 c 6.34,3.66 12.05,10.06 16.05,17.34 2.69,4.88 4.6,10.15 5.42,15.24 0,0.01 0,0.02 0,0.03 0.01,0.01 0.01,0.01 0.01,0.02 0.29,1.81 0.44,3.59 0.44,5.33 v 8.73 0 0.01 0.01 c -0.01,13.97 -9.82,30.96 -21.92,37.94 l -171.57,98.98 c -6.05,3.49 -13.98,5.24 -21.91,5.24 -7.93,0 -15.87,-1.75 -21.92,-5.24 l -845.66,-488.55 c -12.11,-6.99 -21.91,-23.989 -21.91,-37.961 v -3.809 l -0.04,-4.98 c 0.01,-6.11 1.91,-12.789 5.05,-18.961 m -171.22,390.921 c -16.72,0 -33.07,3.06 -45.65,9.38 l -630.45,363.15 c -28.79,14.47 -62.35,54.62 -64.16,86.68 l -8.25,191.05 786.73,-454.22 272.85,157.53 c 9.23,-35.22 33.72,-70.84 62.63,-87.77 10.86,-6.37 21.14,-9.38 30.26,-9.38 7.01,0 13.34,1.79 18.7,5.21 l 0.01,-0.03 45.16,25.6 -0.07,0.12 c 4.41,2.35 8.25,5.71 11.4,10.02 10.37,-5.31 16.52,-12.04 16.89,-18.52 0.39,-6.61 -5.39,-14.51 -15.44,-21.12 l -420.42,-242.2 c -15.49,-10.19 -38.16,-15.5 -60.19,-15.5"
         style="fill:#bee9e1;fill-opacity:1;fill-rule:nonzero;stroke:none"
         id="path46" /><path
         d="m 1129.74,1881.45 -11.89,6.87 3.55,-11.69 z m 9.48,-5.99 -1.4,0.45 -4.78,2.75 -11.48,-6.64 -1.97,0.05 -1.71,0.98 -0.79,0.59 -0.37,0.67 -4.87,16.93 -0.05,0.7 0.63,0.56 1.61,0.92 1.42,0.39 1.5,-0.49 16.67,-9.63 2.54,1.47 1.36,0.38 1.45,-0.5 1.13,-0.65 0.8,-0.8 -0.68,-0.78 -2.53,-1.46 4.77,-2.76 0.78,-0.81 -0.73,-0.81 -1.94,-1.11 -1.36,-0.4"
         style="fill:#33535f;fill-opacity:1;fill-rule:nonzero;stroke:none"
         id="path48" /><path
         d="m 1149.99,1885.01 c -4.82,0.19 -9.62,1.66 -14.39,4.41 -4.75,2.75 -7.29,5.52 -7.61,8.31 -0.32,2.8 1.57,5.38 5.66,7.73 1.63,0.96 3.36,1.73 5.19,2.33 1.82,0.6 3.56,0.96 5.23,1.09 l 0.87,-0.13 0.35,-0.37 1.05,-1.82 -0.05,-0.47 -0.69,-0.15 c -2.71,-0.34 -5.2,-1.16 -7.47,-2.48 -2.75,-1.59 -4.03,-3.36 -3.8,-5.3 0.24,-1.96 2.18,-3.98 5.84,-6.09 3.69,-2.13 7.19,-3.28 10.5,-3.42 3.3,-0.16 6.29,0.54 8.95,2.07 0.97,0.56 1.82,1.15 2.56,1.79 l 1.48,1.75 -7.75,4.47 -4.79,-2.76 -1.38,-0.38 -1.44,0.49 -1.09,0.63 -0.81,0.81 0.69,0.77 7.65,4.42 1.6,0.4 1.7,-0.58 11.06,-6.39 0.83,-0.61 0.1,-0.59 c -0.6,-2.22 -2.83,-4.44 -6.64,-6.64 -4.12,-2.38 -8.58,-3.47 -13.4,-3.29"
         style="fill:#33535f;fill-opacity:1;fill-rule:nonzero;stroke:none"
         id="path50" /><path
         d="m 1245.14,1941.97 c 3.69,-2.12 3.69,-5.57 0,-7.7 -3.69,-2.13 -9.66,-2.13 -13.35,0 -3.68,2.13 -3.68,5.57 0,7.7 3.69,2.13 9.66,2.13 13.35,0"
         style="fill:#33535f;fill-opacity:1;fill-rule:nonzero;stroke:none"
         id="path52" /><path
         d="m 1220.87,1948.28 c -6.72,-3.88 -8.79,-9.44 -6.21,-14.34 0.52,-0.99 2.22,-1.62 4.01,-1.5 h 0.02 c 2.25,0.16 3.76,1.45 3.09,2.71 -1.87,3.46 -0.4,7.38 4.33,10.1 4.74,2.74 11.52,3.58 17.51,2.5 2.17,-0.39 4.42,0.48 4.69,1.79 v 0.01 c 0.21,1.03 -0.88,2.01 -2.6,2.31 -8.5,1.5 -18.11,0.3 -24.84,-3.58"
         style="fill:#33535f;fill-opacity:1;fill-rule:nonzero;stroke:none"
         id="path54" /><path
         d="m 1210.18,1954.44 c -9.99,-5.76 -13.56,-13.86 -10.73,-21.31 0.42,-1.09 2.15,-1.85 4.08,-1.72 h 0.03 c 2.19,0.15 3.63,1.36 3.15,2.6 -2.36,6.08 0.54,12.69 8.71,17.41 8.17,4.72 19.66,6.41 30.19,5.05 2.15,-0.28 4.24,0.55 4.5,1.81 0.23,1.11 -1.07,2.11 -2.97,2.36 -12.87,1.65 -26.94,-0.41 -36.96,-6.2"
         style="fill:#33535f;fill-opacity:1;fill-rule:nonzero;stroke:none"
         id="path56" /><path
         d="m 1406.94,2049.62 -1.13,0.37 -0.33,0.72 2.02,9.89 0.23,0.71 0.57,0.62 3.45,1.99 1.2,0.28 1.17,-0.29 28.52,-16.46 0.5,-0.69 -0.49,-0.68 -3.58,-2.07 -1.19,-0.28 -1.2,0.28 -21.8,12.59 -1.37,-6.45 -0.62,-0.64 -1.28,-0.2 -4.67,0.31"
         style="fill:#33535f;fill-opacity:1;fill-rule:nonzero;stroke:none"
         id="path58" /><path
         d="m 1429.27,2062.52 -1.12,0.37 -0.34,0.72 2.04,9.89 0.22,0.71 0.58,0.62 3.43,1.98 1.2,0.28 1.18,-0.28 28.52,-16.46 0.49,-0.69 -0.49,-0.69 -3.57,-2.06 -1.2,-0.28 -1.18,0.28 -21.81,12.59 -1.37,-6.45 -0.62,-0.64 -1.28,-0.2 -4.68,0.31"
         style="fill:#33535f;fill-opacity:1;fill-rule:nonzero;stroke:none"
         id="path60" /><path
         d="m 1472.8,2071.23 1.19,0.28 1.19,-0.28 4.32,-2.5 0.49,-0.69 -0.49,-0.69 -4.1,-2.36 -1.2,-0.29 -1.18,0.28 -4.33,2.5 -0.49,0.69 0.49,0.69 z m -15.45,8.92 1.19,0.28 1.19,-0.28 4.33,-2.5 0.48,-0.69 -0.49,-0.68 -4.1,-2.37 -1.2,-0.29 -1.18,0.28 -4.33,2.5 -0.49,0.69 0.49,0.69 4.11,2.37"
         style="fill:#33535f;fill-opacity:1;fill-rule:nonzero;stroke:none"
         id="path62" /><path
         d="m 1489.84,2087.24 -9.45,5.45 1.89,-9.81 z m 13.24,-6.27 -1.19,-0.29 -1.19,0.29 -5.35,3.08 -13.68,-7.9 -1.19,-0.28 -1.2,0.28 -3.13,1.81 -0.8,0.79 -0.3,0.96 -3.35,17.54 0.7,1.68 3.35,1.94 1.2,0.28 1.18,-0.28 17.66,-10.2 3.8,2.2 1.19,0.28 1.19,-0.28 3.14,-1.81 0.49,-0.69 -0.49,-0.69 -3.8,-2.19 5.34,-3.08 0.5,-0.69 -0.5,-0.69 -3.57,-2.06"
         style="fill:#33535f;fill-opacity:1;fill-rule:nonzero;stroke:none"
         id="path64" /><path
         d="m 1491.11,2108.36 -0.48,0.69 0.48,0.69 16.6,9.58 1.19,0.28 1.2,-0.28 3.14,-1.81 0.47,-0.69 -0.48,-0.69 -12.41,-7.15 5.17,-3.55 1.79,1.69 1.83,1.17 c 1.65,0.94 3.4,1.7 5.25,2.26 1.85,0.56 3.74,0.89 5.63,0.99 1.9,0.09 3.78,-0.06 5.63,-0.46 1.85,-0.38 3.6,-1.05 5.25,-2.01 1.88,-1.09 3.2,-2.19 3.93,-3.31 0.73,-1.12 1.02,-2.23 0.84,-3.34 -0.18,-1.1 -0.77,-2.18 -1.79,-3.22 -1.02,-1.05 -2.32,-2.03 -3.91,-2.94 -2.03,-1.18 -4.01,-2.05 -5.93,-2.62 -1.93,-0.57 -3.78,-0.9 -5.55,-0.98 -1.76,-0.08 -3.42,0.04 -4.93,0.36 -1.54,0.32 -2.91,0.8 -4.11,1.43 l -0.53,0.68 0.52,0.69 3.59,2.07 1.07,0.29 1.26,-0.16 2.5,-0.48 2.33,0.18 2.19,0.67 2.07,1.05 c 1.68,0.97 2.58,2.01 2.7,3.13 0.11,1.13 -0.62,2.14 -2.21,3.06 -1.33,0.77 -2.95,1.11 -4.86,1.02 -1.91,-0.08 -3.71,-0.6 -5.43,-1.55 l -1.89,-1.32 -0.8,-1 -0.42,-0.78 -0.82,-0.7 -4.06,-2.34 -1.18,-0.28 -1.2,0.28 -13.64,9.4"
         style="fill:#33535f;fill-opacity:1;fill-rule:nonzero;stroke:none"
         id="path66" /><path
         d="m 1015.76,1800.08 -9.2,5.31 12.27,7.09 9.2,-5.32 -12.27,-7.08"
         style="fill:#33535f;fill-opacity:1;fill-rule:nonzero;stroke:none"
         id="path68" /><path
         d="m 1034.17,1810.7 -18.4,10.63 12.26,7.08 18.41,-10.62 -12.27,-7.09"
         style="fill:#33535f;fill-opacity:1;fill-rule:nonzero;stroke:none"
         id="path70" /><path
         d="m 1052.58,1821.33 -27.61,15.94 12.27,7.08 27.61,-15.94 -12.27,-7.08"
         style="fill:#33535f;fill-opacity:1;fill-rule:nonzero;stroke:none"
         id="path72" /><path
         d="m 1070.98,1831.96 -36.81,21.25 12.27,7.08 36.81,-21.25 -12.27,-7.08"
         style="fill:#33535f;fill-opacity:1;fill-rule:nonzero;stroke:none"
         id="path74" /><path
         d="m 1875.83,2301.74 c -1.09,0.09 -2.36,0.51 -3.46,1.15 l -16.73,9.66 c -2.91,1.68 -3.53,4.16 -1.34,5.43 l 45.9,26.41 1.87,0.6 1.15,0.01 c 1.1,-0.09 2.36,-0.51 3.46,-1.14 l 16.73,-9.65 c 2.92,-1.69 3.54,-4.18 1.34,-5.44 l -45.89,-26.42 c -0.83,-0.48 -1.91,-0.7 -3.03,-0.61 m 26.98,44.96 c -3.02,0.24 -5.57,-0.14 -7.22,-1.09 l -45.89,-26.42 c -2.98,-1.71 -2.21,-4.85 1.74,-7.13 l 16.73,-9.66 c 2.21,-1.27 5.08,-2.11 8.08,-2.35 1.29,-0.11 2.51,-0.1 3.64,0.03 1.45,0.17 2.65,0.52 3.58,1.06 l 45.89,26.41 c 2.97,1.72 2.21,4.85 -1.75,7.14 l -16.73,9.65 c -2.2,1.27 -5.07,2.11 -8.07,2.36"
         style="fill:#33535f;fill-opacity:1;fill-rule:nonzero;stroke:none"
         id="path76" /><path
         d="m 1865.91,2321.32 19.79,-11.43 -7.22,-4.14 -2.45,-0.21 -14.71,8.49 c -2.11,1.22 -2.58,3.11 -1.03,4.04 l 5.62,3.25"
         style="fill:#33535f;fill-opacity:1;fill-rule:nonzero;stroke:none"
         id="path78" /><path
         d="m 1869.29,2323.21 8.59,4.99 19.79,-11.43 -8.64,-4.95 -19.74,11.39"
         style="fill:#33535f;fill-opacity:1;fill-rule:nonzero;stroke:none"
         id="path80" /><path
         d="m 1881.27,2330.09 8.58,4.98 19.85,-11.46 -8.64,-4.94 -19.79,11.42"
         style="fill:#33535f;fill-opacity:1;fill-rule:nonzero;stroke:none"
         id="path82" /><path
         d="m 1903.13,2341.2 14.26,-8.24 c 2.62,-1.51 2.06,-3.72 -1.46,-5.74 l -2.9,-1.68 -19.79,11.43 6.85,3.95 3.04,0.28"
         style="fill:#33535f;fill-opacity:1;fill-rule:nonzero;stroke:none"
         id="path84" /><path
         d="m 1912.7,2345.26 c 1.26,0.75 5.06,-0.26 8.49,-2.25 l 3.11,-1.79 c 3.44,-1.98 5.25,-4.23 4.05,-5.02 l -2.18,-1.43 -15.75,9.16 c 0,0 1.02,0.6 2.28,1.33"
         style="fill:#33535f;fill-opacity:1;fill-rule:nonzero;stroke:none"
         id="path86" /><path
         d="m 1785.94,2269.53 35.58,30.91 18.75,-26.7 -24.59,6.7 -29.74,-10.91"
         style="fill:#33535f;fill-opacity:1;fill-rule:nonzero;stroke:none"
         id="path88" /><path
         d="m 2543.42,969.969 v -8.739 c 0,-13.98 9.81,-30.968 21.91,-37.96 l 171.56,-98.981 c 12.1,-6.98 31.73,-6.98 43.83,0 l 845.67,488.561 c 12.1,6.99 21.92,23.98 21.92,37.96 v 8.73 c 0,13.98 -9.82,30.97 -21.92,37.96 l -171.57,98.98 c -12.1,6.99 -31.73,6.99 -43.83,0 l -845.66,-488.55 c -12.11,-6.99 -21.91,-23.989 -21.91,-37.961"
         style="fill:#26b6a6;fill-opacity:1;fill-rule:nonzero;stroke:none"
         id="path90" /><path
         d="m 3642.44,1330.19 c 2.68,4.87 4.6,10.14 5.42,15.24 -0.82,-5.09 -2.73,-10.36 -5.42,-15.24 m 5.42,15.27 c 0.01,0.01 0.01,0.01 0.01,0.02 0,-0.01 0,-0.01 -0.01,-0.02 m 0.45,14.08 c 0,0.01 0,0.01 0,0.02 v -0.01 -0.01"
         style="fill:#9bd8c7;fill-opacity:1;fill-rule:nonzero;stroke:none"
         id="path92" /><path
         d="m 2759.21,819.121 c -0.14,0 -0.28,0 -0.41,0 l 0.01,59.238 v 0 c 7.87,0.09 15.84,1.719 21.85,5.262 l 845.78,488.549 c 10.98,6.39 11.98,16.41 2.89,23.38 10.74,-7.79 18.92,-23.24 18.98,-35.99 0,-0.01 0,-0.01 0,-0.02 l -0.01,-8.73 c 0,-1.74 -0.15,-3.52 -0.43,-5.33 0,-0.01 0,-0.01 -0.01,-0.02 0,-0.01 0,-0.02 0,-0.03 -0.82,-5.1 -2.74,-10.37 -5.42,-15.24 -4,-7.27 -9.71,-13.67 -16.07,-17.35 L 2780.76,824.332 c -6.02,-3.422 -13.77,-5.211 -21.55,-5.211"
         style="fill:#19b19d;fill-opacity:1;fill-rule:nonzero;stroke:none"
         id="path94" /><path
         d="m 2548.43,942.219 c -3.14,6.172 -5.04,12.851 -5.05,18.961 l 0.04,4.98 v -4.93 c 0,-6.121 1.88,-12.832 5.01,-19.011"
         style="fill:#7daca2;fill-opacity:1;fill-rule:nonzero;stroke:none"
         id="path96" /><path
         d="m 2758.22,819.121 c -7.68,0 -15.41,1.809 -21.32,5.219 l -171.53,98.961 c -6.81,3.937 -12.9,11.008 -16.94,18.918 -3.13,6.179 -5.01,12.89 -5.01,19.011 v 4.93 l 0.03,3.86 c -0.02,12.601 8.03,27.699 18.53,35.55 -8.64,-6.941 -7.54,-16.718 3.3,-22.98 l 171.62,-99.02 c 5.97,-3.441 13.99,-5.148 21.91,-5.211 l -0.01,-59.238 v 0 c -0.19,0 -0.39,0 -0.58,0"
         style="fill:#06ab91;fill-opacity:1;fill-rule:nonzero;stroke:none"
         id="path98" /><path
         d="m 2845.09,1031.29 17.18,9.92 -34.07,9.75 z m -29.19,36.7 c 1.41,0.81 2.88,1.21 4.4,1.19 1.52,-0.01 2.81,-0.17 3.89,-0.46 l 89.99,-25.24 c 0.97,-0.25 1.67,-0.47 2.01,-0.68 l 0.96,-1.34 -0.96,-1.35 -13.37,-7.72 c -1.42,-0.82 -2.73,-1.22 -3.93,-1.22 -1.21,-0.01 -2.16,0.12 -2.87,0.36 l -11.77,3.37 -28.24,-16.3 5.83,-6.8 0.65,-1.65 c -0.01,-0.69 -0.71,-1.45 -2.12,-2.27 l -13.38,-7.71 c -0.62,-0.369 -1.41,-0.561 -2.33,-0.549 -0.91,-0.012 -1.69,0.18 -2.34,0.549 l -1.16,1.15 -43.72,51.96 -0.8,2.24 c -0.04,0.87 0.64,1.73 2.07,2.54 l 17.19,9.93"
         style="fill:#33535f;fill-opacity:1;fill-rule:nonzero;stroke:none"
         id="path100" /><path
         d="m 2926.9,1098.37 c -8.55,4.46 -17.44,4.04 -26.63,-1.27 l -10.82,-6.25 40.32,-23.29 11.35,6.55 c 8.92,5.15 9.48,10.18 1.71,15.08 -1.43,0.9 -2.77,1.72 -4.09,2.49 -1.3,0.74 -2.58,1.48 -3.82,2.19 -1.24,0.73 -2.5,1.44 -3.77,2.19 -1.27,0.72 -2.7,1.5 -4.25,2.31 z m -43.08,8.83 c 4.88,2.82 10.06,4.97 15.54,6.47 5.49,1.49 11.01,2.33 16.57,2.51 5.55,0.18 10.97,-0.3 16.29,-1.44 5.3,-1.15 10.21,-2.9 14.74,-5.27 1.56,-0.82 2.95,-1.58 4.19,-2.3 1.24,-0.71 2.43,-1.4 3.55,-2.05 1.14,-0.66 2.32,-1.33 3.51,-2.02 1.2,-0.7 2.48,-1.47 3.82,-2.33 4.17,-2.66 7.25,-5.5 9.24,-8.52 1.97,-3.03 2.85,-6.12 2.6,-9.28 -0.25,-3.17 -1.63,-6.31 -4.15,-9.43 -2.51,-3.13 -6.2,-6.1 -11.08,-8.92 l -28.66,-16.54 c -0.77,-0.45 -1.73,-0.68 -2.85,-0.68 -1.14,0 -2.09,0.23 -2.87,0.68 l -68.57,39.58 -1.17,1.65 1.17,1.65 28.13,16.24"
         style="fill:#33535f;fill-opacity:1;fill-rule:nonzero;stroke:none"
         id="path102" /><path
         d="m 3003.64,1142.68 c -8.56,4.45 -17.44,4.02 -26.64,-1.28 l -10.82,-6.25 40.32,-23.29 11.35,6.55 c 8.92,5.15 9.48,10.17 1.71,15.08 -1.43,0.9 -2.78,1.73 -4.1,2.48 -1.3,0.75 -2.58,1.49 -3.81,2.2 -1.24,0.72 -2.5,1.45 -3.77,2.18 -1.27,0.73 -2.7,1.51 -4.24,2.33 z m -43.1,8.82 c 4.89,2.82 10.07,4.97 15.55,6.47 5.49,1.49 11,2.32 16.55,2.51 5.56,0.18 10.99,-0.3 16.3,-1.44 5.31,-1.15 10.22,-2.9 14.75,-5.27 1.56,-0.82 2.96,-1.59 4.19,-2.29 1.24,-0.73 2.43,-1.41 3.55,-2.06 1.14,-0.65 2.31,-1.33 3.51,-2.02 1.21,-0.7 2.48,-1.47 3.83,-2.34 4.16,-2.65 7.24,-5.48 9.24,-8.51 1.97,-3.02 2.84,-6.11 2.59,-9.28 -0.25,-3.17 -1.63,-6.32 -4.16,-9.44 -2.5,-3.13 -6.2,-6.1 -11.07,-8.91 l -28.65,-16.55 c -0.78,-0.44 -1.74,-0.67 -2.86,-0.67 -1.14,0 -2.1,0.23 -2.88,0.67 l -68.56,39.59 -1.17,1.65 1.17,1.65 28.12,16.24"
         style="fill:#33535f;fill-opacity:1;fill-rule:nonzero;stroke:none"
         id="path104" /><path
         d="m 3080.79,1220.92 c 0.78,0.45 1.73,0.67 2.85,0.68 1.15,-0.01 2.1,-0.23 2.88,-0.68 l 11.25,-6.49 1.17,-1.66 -1.17,-1.66 -18.68,-10.78 54.44,-31.43 1.17,-1.65 -1.17,-1.66 -13.9,-8.02 c -0.77,-0.45 -1.74,-0.68 -2.85,-0.68 -1.15,0 -2.1,0.23 -2.88,0.68 l -54.44,31.43 -18.68,-10.79 c -0.78,-0.44 -1.74,-0.67 -2.85,-0.67 -1.15,0 -2.1,0.23 -2.88,0.67 l -11.25,6.5 -1.18,1.66 1.18,1.65 56.99,32.9"
         style="fill:#33535f;fill-opacity:1;fill-rule:nonzero;stroke:none"
         id="path106" /><path
         d="m 3182.14,1226.26 c -1.2,0.78 -2.55,1.63 -4.03,2.57 -1.49,0.94 -3.04,1.87 -4.66,2.81 -1.64,0.94 -3.25,1.83 -4.84,2.68 -1.6,0.83 -3.02,1.57 -4.31,2.22 -1.9,0.94 -3.9,1.67 -5.98,2.19 -2.1,0.51 -4.24,0.76 -6.43,0.75 -2.19,0 -4.41,-0.28 -6.68,-0.85 -2.27,-0.57 -4.49,-1.49 -6.69,-2.76 -2.18,-1.26 -3.79,-2.55 -4.76,-3.86 -1.01,-1.31 -1.51,-2.59 -1.51,-3.85 0,-1.27 0.44,-2.51 1.33,-3.72 0.89,-1.2 2.15,-2.35 3.78,-3.45 1.06,-0.78 2.33,-1.61 3.81,-2.52 1.49,-0.9 3.06,-1.82 4.69,-2.76 1.62,-0.93 3.22,-1.85 4.81,-2.72 1.59,-0.88 3.09,-1.65 4.51,-2.29 3.82,-1.89 7.99,-2.89 12.48,-2.98 4.49,-0.1 8.92,1.12 13.31,3.65 4.39,2.53 6.47,5.09 6.26,7.65 -0.2,2.57 -1.9,4.99 -5.09,7.24 z m -64.94,-16.3 c -3.75,2.4 -6.62,5.06 -8.6,7.97 -1.99,2.9 -2.87,5.89 -2.65,9 0.2,3.1 1.54,6.25 4.03,9.43 2.48,3.19 6.33,6.29 11.56,9.31 5.16,2.99 10.53,5.2 16.08,6.65 5.55,1.46 11.02,2.24 16.4,2.36 5.37,0.13 10.57,-0.38 15.61,-1.52 5.01,-1.15 9.62,-2.81 13.79,-4.97 3.18,-1.68 6.43,-3.47 9.75,-5.39 3.33,-1.92 6.38,-3.76 9.14,-5.51 3.73,-2.41 6.6,-5.07 8.59,-7.97 1.98,-2.9 2.89,-5.92 2.7,-9.04 -0.16,-3.13 -1.53,-6.28 -4.07,-9.47 -2.56,-3.18 -6.41,-6.26 -11.57,-9.24 -5.25,-3.03 -10.6,-5.27 -16.09,-6.72 -5.49,-1.45 -10.92,-2.22 -16.34,-2.32 -5.41,-0.11 -10.63,0.41 -15.66,1.56 -5.02,1.15 -9.62,2.8 -13.78,4.96 -3.06,1.59 -6.23,3.34 -9.57,5.28 -3.32,1.91 -6.43,3.79 -9.32,5.63"
         style="fill:#33535f;fill-opacity:1;fill-rule:nonzero;stroke:none"
         id="path108" /><path
         d="m 3235.94,1277.91 c 0.84,-0.58 2.08,-1.34 3.66,-2.3 1.58,-0.96 3.26,-1.94 5,-2.94 1.73,-1 3.44,-1.97 5.13,-2.91 1.7,-0.94 3.04,-1.66 4.04,-2.14 1.76,-0.87 3.65,-1.57 5.63,-2.16 1.98,-0.57 4.06,-0.87 6.25,-0.9 2.21,-0.05 4.45,0.2 6.75,0.75 2.3,0.55 4.66,1.53 7.05,2.91 2.41,1.4 4.11,2.7 5.1,3.93 0.98,1.22 1.58,2.36 1.75,3.39 0.17,1.05 0.04,2 -0.43,2.89 l -1.55,2.3 -1.2,2.05 c -0.04,0.51 0.54,1.11 1.75,1.8 l 13.9,8.03 c 0.63,0.37 1.42,0.55 2.34,0.55 0.92,0 1.69,-0.18 2.33,-0.55 3.54,-2.12 6.05,-4.6 7.54,-7.41 1.48,-2.82 1.9,-5.76 1.27,-8.83 -0.63,-3.05 -2.26,-6.14 -4.88,-9.25 -2.62,-3.1 -6.26,-6 -10.93,-8.7 -5.09,-2.94 -10.4,-5.13 -15.92,-6.55 -5.52,-1.43 -11,-2.21 -16.46,-2.33 -5.43,-0.13 -10.67,0.38 -15.7,1.53 -5.02,1.14 -9.58,2.77 -13.68,4.9 -3.05,1.58 -6.24,3.35 -9.57,5.28 -3.32,1.91 -6.43,3.79 -9.34,5.63 -3.73,2.32 -6.58,4.95 -8.53,7.87 -1.96,2.92 -2.83,5.94 -2.65,9.07 0.16,3.12 1.51,6.29 4.03,9.49 2.52,3.21 6.31,6.29 11.4,9.23 4.67,2.69 9.7,4.79 15.08,6.31 5.38,1.51 10.71,2.45 16.02,2.82 5.3,0.36 10.4,0.12 15.28,-0.73 4.89,-0.86 9.16,-2.32 12.85,-4.36 l 0.94,-1.35 -0.94,-1.35 -13.91,-8.02 c -1.2,-0.7 -2.25,-1.04 -3.14,-1.01 -0.86,0.02 -2.06,0.25 -3.55,0.7 -1.13,0.33 -2.46,0.63 -3.97,0.89 -1.52,0.27 -3.2,0.35 -4.99,0.25 -1.81,-0.11 -3.77,-0.45 -5.9,-1.02 -2.11,-0.57 -4.38,-1.55 -6.78,-2.93 -2.4,-1.4 -4.08,-2.75 -5.04,-4.08 -0.96,-1.33 -1.41,-2.62 -1.33,-3.89 0.07,-1.27 0.6,-2.47 1.59,-3.61 0.99,-1.15 2.23,-2.23 3.71,-3.25"
         style="fill:#33535f;fill-opacity:1;fill-rule:nonzero;stroke:none"
         id="path110" /><path
         d="m 3332.3,1312.59 17.2,9.93 -34.06,9.74 z m -29.18,36.7 c 1.42,0.82 2.88,1.21 4.41,1.2 1.51,-0.03 2.8,-0.18 3.87,-0.46 l 89.99,-25.25 c 0.99,-0.24 1.67,-0.47 2.03,-0.68 l 0.94,-1.35 -0.94,-1.34 -13.37,-7.72 c -1.43,-0.82 -2.73,-1.22 -3.94,-1.22 -1.2,0 -2.15,0.12 -2.86,0.37 l -11.79,3.36 -28.22,-16.3 5.84,-6.79 0.63,-1.66 c 0,-0.7 -0.7,-1.45 -2.12,-2.27 l -13.37,-7.72 c -0.64,-0.37 -1.41,-0.55 -2.34,-0.55 -0.92,0 -1.69,0.18 -2.32,0.55 l -1.18,1.17 -43.71,51.95 -0.81,2.24 c -0.03,0.88 0.66,1.73 2.07,2.55 l 17.19,9.92"
         style="fill:#33535f;fill-opacity:1;fill-rule:nonzero;stroke:none"
         id="path112" /><path
         d="m 3391.84,1363.38 12,6.92 c 2.96,1.72 4.85,3.47 5.66,5.25 0.83,1.77 -0.24,3.51 -3.22,5.23 -2.97,1.72 -6,2.35 -9.09,1.87 -3.07,-0.47 -6.09,-1.57 -9.06,-3.27 l -11.99,-6.93 z m -20.16,25.49 c 4.67,2.69 9.34,4.83 14.01,6.37 4.66,1.55 9.29,2.5 13.85,2.86 4.56,0.34 9.07,0.03 13.53,-0.96 4.46,-0.98 8.73,-2.66 12.84,-5.03 5.31,-3.06 8.61,-6.23 9.93,-9.53 1.31,-3.28 0.87,-6.61 -1.33,-10.01 l 38.42,-6.99 1.48,-0.48 0.96,-1.35 -0.96,-1.35 -14.43,-8.33 c -1.42,-0.82 -2.75,-1.22 -3.99,-1.2 -1.23,0.03 -2.35,0.11 -3.34,0.28 l -34.49,6.31 -9.76,-5.64 22.71,-13.11 1.17,-1.66 -1.17,-1.65 -13.9,-8.03 c -0.79,-0.44 -1.73,-0.67 -2.86,-0.67 -1.14,0 -2.1,0.23 -2.88,0.67 l -68.54,39.59 -1.18,1.66 1.18,1.65 28.75,16.6"
         style="fill:#33535f;fill-opacity:1;fill-rule:nonzero;stroke:none"
         id="path114" /><path
         d="m 3467.72,1444.32 c 0.78,0.46 1.74,0.67 2.86,0.67 1.15,0 2.09,-0.21 2.86,-0.67 l 11.27,-6.5 1.17,-1.65 -1.18,-1.65 -18.68,-10.78 54.45,-31.44 1.18,-1.65 -1.18,-1.66 -13.9,-8.03 c -0.78,-0.44 -1.74,-0.67 -2.86,-0.67 -1.13,0 -2.1,0.23 -2.88,0.67 l -54.45,31.43 -18.66,-10.78 c -0.79,-0.44 -1.74,-0.67 -2.87,-0.67 -1.13,0 -2.09,0.23 -2.87,0.67 l -11.24,6.5 -1.18,1.66 1.18,1.65 56.98,32.9"
         style="fill:#33535f;fill-opacity:1;fill-rule:nonzero;stroke:none"
         id="path116" /><path
         d="m 2763.03,991.898 -18.04,-10.41 18.04,-10.41 c 3.3,-1.898 3.3,-5 0,-6.898 -3.31,-1.899 -8.66,-1.899 -11.96,0 l -18.04,10.41 -18.02,-10.41 c -3.3,-1.899 -8.65,-1.899 -11.96,0 -3.3,1.898 -3.3,5 0,6.898 l 18.03,10.41 -18.03,10.41 c -3.3,1.911 -3.3,5 0,6.903 3.31,1.909 8.66,1.909 11.96,0 l 18.02,-10.41 18.04,10.41 c 3.3,1.909 8.65,1.909 11.96,0 3.3,-1.903 3.3,-4.992 0,-6.903 z m -79.77,18.342 c -26.82,-15.478 -26.82,-40.58 0,-56.06 26.82,-15.481 70.28,-15.481 97.1,0 26.82,15.48 26.82,40.582 0,56.06 -26.82,15.48 -70.28,15.48 -97.1,0"
         style="fill:#33535f;fill-opacity:1;fill-rule:nonzero;stroke:none"
         id="path118" /><path
         d="m 2865.78,1664.2 c 0.27,42.93 -29.52,95.31 -66.56,117.01 -19.44,11.39 -36.93,11.95 -49.27,3.8 l -45.56,-25.62 95.49,-164.65 45.16,25.6 -0.07,0.12 c 12.66,6.75 20.67,21.84 20.81,43.74"
         style="fill:#273e47;fill-opacity:1;fill-rule:nonzero;stroke:none"
         id="path120" /><path
         d="m 2751.89,1754.38 c 37.04,-21.7 66.84,-74.09 66.57,-117.01 -0.28,-42.92 -30.52,-60.13 -67.55,-38.43 -37.05,21.7 -66.84,74.08 -66.57,117.01 0.28,42.92 30.52,60.12 67.55,38.43"
         style="fill:#33535f;fill-opacity:1;fill-rule:nonzero;stroke:none"
         id="path122" /><path
         d="m 2728.73,1689.94 c 0.11,16.78 10.36,24.43 22.9,17.08 12.54,-7.35 22.61,-26.9 22.5,-43.68 -0.11,-16.78 -10.35,-24.43 -22.89,-17.08 -12.54,7.34 -22.62,26.91 -22.51,43.68"
         style="fill:#17282f;fill-opacity:1;fill-rule:nonzero;stroke:none"
         id="path124" /><path
         d="m 2818.46,1637.37 v 0 c 0,0.06 0,0.12 0,0.18 0,-0.06 0,-0.12 0,-0.18 v 0"
         style="fill:#1f3239;fill-opacity:1;fill-rule:nonzero;stroke:none"
         id="path126" /><path
         d="m 2818.42,1636.54 -44.31,25.73 c 0.01,0.35 0.02,0.71 0.02,1.07 0.03,5.37 -0.97,11.02 -2.77,16.46 l 45.91,-26.65 c 0.8,-5.29 1.21,-10.51 1.19,-15.6 0,-0.06 0,-0.12 0,-0.18 v 0 l -0.04,-0.83 m -89.68,52.06 -18.54,10.77 13.76,7.95 7.64,-4.44 c -1.8,-3.28 -2.84,-7.66 -2.87,-12.94 -0.01,-0.44 0,-0.89 0.01,-1.34"
         style="fill:#29444e;fill-opacity:1;fill-rule:nonzero;stroke:none"
         id="path128" /><path
         d="m 2774.11,1662.27 -45.37,26.33 c -0.01,0.45 -0.02,0.9 -0.01,1.34 0.03,5.28 1.07,9.66 2.87,12.94 l 39.76,-23.08 c 1.8,-5.44 2.8,-11.09 2.77,-16.46 0,-0.36 -0.01,-0.72 -0.02,-1.07"
         style="fill:#122026;fill-opacity:1;fill-rule:nonzero;stroke:none"
         id="path130" /><path
         d="m 2386.97,1298.33 c -25.43,-1.44 -51.16,2.7 -71.17,12.75 l -630.44,363.15 c -38.11,19.16 -80.86,69 -83.52,116.14 l -19.39,449.11 35.11,1.99 19.39,-449.12 c 1.81,-32.06 35.37,-72.21 64.16,-86.68 l 630.45,-363.15 c 29.16,-14.65 78.59,-11.79 105.84,6.12 l 420.42,242.2 c 10.05,6.61 15.83,14.51 15.44,21.12 -0.37,6.57 -6.69,13.39 -17.32,18.74 l -674.93,391.82 c -38.02,19.13 -80.64,68.97 -83.31,116.19 l -9.42,249.06 35.11,1.98 9.42,-249.06 c 1.82,-32.14 35.25,-72.3 63.94,-86.72 l 674.92,-391.82 c 22.55,-11.34 35.55,-28.43 36.7,-48.15 1.13,-19.6 -10.26,-38.74 -31.25,-52.55 L 2456.7,1319.24 c -18.83,-12.37 -44.13,-19.47 -69.73,-20.91"
         style="fill:#33535f;fill-opacity:1;fill-rule:nonzero;stroke:none"
         id="path132" /><path
         d="m 2273.59,1308.42 c 0.28,42.92 -29.52,95.3 -66.56,117 -19.44,11.39 -36.93,11.94 -49.27,3.8 l -45.56,-25.62 95.49,-164.64 45.15,25.6 -0.06,0.11 c 12.67,6.76 20.67,21.84 20.81,43.75"
         style="fill:#273e47;fill-opacity:1;fill-rule:nonzero;stroke:none"
         id="path134" /><path
         d="m 2159.73,1398.57 c 37.04,-21.7 66.84,-74.08 66.57,-117.01 -0.28,-42.92 -30.52,-60.12 -67.56,-38.42 -37.03,21.69 -66.83,74.08 -66.55,117 0.27,42.92 30.51,60.12 67.54,38.43"
         style="fill:#33535f;fill-opacity:1;fill-rule:nonzero;stroke:none"
         id="path136" /><path
         d="m 2136.54,1334.15 c 0.11,16.78 10.36,24.43 22.9,17.08 12.54,-7.34 22.61,-26.9 22.5,-43.68 -0.11,-16.78 -10.36,-24.42 -22.89,-17.08 -12.54,7.35 -22.62,26.9 -22.51,43.68"
         style="fill:#17282f;fill-opacity:1;fill-rule:nonzero;stroke:none"
         id="path138" /><path
         d="m 1808,1576.9 c 0.36,42.92 -29.35,95.35 -66.35,117.12 -19.42,11.43 -36.9,12.01 -49.26,3.89 l -45.61,-25.54 95.19,-164.82 45.21,25.52 -0.07,0.11 c 12.68,6.74 20.72,21.81 20.89,43.72"
         style="fill:#273e47;fill-opacity:1;fill-rule:nonzero;stroke:none"
         id="path140" /><path
         d="m 1694.31,1667.26 c 37,-21.77 66.7,-74.21 66.35,-117.13 -0.35,-42.92 -30.63,-60.08 -67.63,-38.31 -36.99,21.77 -66.69,74.21 -66.34,117.13 0.35,42.92 30.63,60.07 67.62,38.31"
         style="fill:#33535f;fill-opacity:1;fill-rule:nonzero;stroke:none"
         id="path142" /><path
         d="m 1671,1602.88 c 0.14,16.78 10.4,24.41 22.93,17.04 12.52,-7.37 22.56,-26.95 22.42,-43.72 -0.14,-16.78 -10.4,-24.41 -22.92,-17.04 -12.53,7.37 -22.57,26.94 -22.43,43.72"
         style="fill:#17282f;fill-opacity:1;fill-rule:nonzero;stroke:none"
         id="path144" /><path
         d="m 1507.62,2783.75 c -13.41,43.54 6.79,99.6 44.91,124.57 l 419.1,236.88 c 38.11,24.97 79.78,7.62 93.2,-35.92 l 29.06,-94.31 -28.75,-16.77 -31.13,95.28 c -7.42,23.06 -30,30.96 -50.19,17.58 L 1575.71,2880.3 c -24.36,-16.17 -37.57,-52.36 -29.35,-80.43 l 24.62,-90.47 -34.29,-19.96 -29.07,94.31"
         style="fill:#33535f;fill-opacity:1;fill-rule:nonzero;stroke:none"
         id="path146" /><path
         d="m 2155.59,2329.27 -562.98,-325.04 822.82,-475.05 562.97,325.14 -822.81,474.95"
         style="fill:#26b6a6;fill-opacity:1;fill-rule:nonzero;stroke:none"
         id="path148" /><path
         d="m 2415.43,1529.18 129.91,575.07 -15.88,9.21 15.92,-9.19 -0.04,-0.02 -129.91,-575.07 m -54.35,241.37 c -18.58,0 -36.88,12.82 -44.73,33.19 l -135.97,352.89 c -2.52,6.56 -3.72,13.26 -3.73,19.75 -0.01,18.87 10.06,35.96 26.96,42.47 4.65,1.79 9.45,2.64 14.24,2.64 18.58,0 36.87,-12.82 44.73,-33.19 l 135.96,-352.89 c 2.53,-6.56 3.72,-13.26 3.73,-19.75 0.01,-18.87 -10.06,-35.96 -26.95,-42.47 -4.65,-1.79 -9.45,-2.64 -14.24,-2.64 m -256.91,120.88 c -18.58,0 -36.89,12.82 -44.74,33.19 l -110.04,285.61 77.22,44.58 115.01,-298.52 c 2.53,-6.56 3.73,-13.26 3.73,-19.75 0.02,-18.87 -10.06,-35.96 -26.95,-42.47 -4.65,-1.79 -9.45,-2.64 -14.23,-2.64 m -256.92,120.88 c -18.58,0 -36.89,12.81 -44.73,33.19 l -25.19,65.38 77.21,44.58 30.16,-78.29 c 2.53,-6.56 3.73,-13.26 3.74,-19.75 0.01,-18.88 -10.07,-35.97 -26.96,-42.47 -4.64,-1.79 -9.45,-2.64 -14.23,-2.64"
         style="fill:#0b7465;fill-opacity:1;fill-rule:nonzero;stroke:none"
         id="path150" /><path
         d="m 1536.69,2689.44 557.2,325.53 61.7,-685.7 -562.98,-325.04 -55.92,685.21"
         style="fill:#26b6a6;fill-opacity:1;fill-rule:nonzero;stroke:none"
         id="path152" /><path
         d="m 1777.33,2110.88 -110.78,287.51 c -2.53,6.56 -3.72,13.26 -3.73,19.75 -0.02,18.87 10.06,35.96 26.95,42.47 4.65,1.79 9.46,2.64 14.24,2.64 18.58,0 36.88,-12.82 44.73,-33.19 l 105.8,-274.6 -77.21,-44.58 m 172.06,99.35 -25.92,67.28 c -2.53,6.56 -3.73,13.26 -3.73,19.75 -0.02,18.87 10.06,35.96 26.95,42.47 4.65,1.79 9.45,2.64 14.24,2.64 18.58,0 36.88,-12.82 44.73,-33.19 l 20.95,-54.37 -77.22,-44.58 m 206.09,120.2 -618.79,359.01 557.2,325.53 v -0.01 l 61.59,-684.53"
         style="fill:#06a088;fill-opacity:1;fill-rule:nonzero;stroke:none"
         id="path154" /><path
         d="m 2895.39,2113.99 c -22.7,-8.74 -49.1,4.94 -58.97,30.56 l -135.97,352.89 c -9.87,25.62 0.52,53.48 23.23,62.22 22.7,8.74 49.09,-4.93 58.96,-30.55 l 135.97,-352.89 c 9.87,-25.62 -0.53,-53.47 -23.22,-62.23 m -256.93,120.89 c -22.69,-8.75 -49.09,4.93 -58.96,30.55 l -135.97,352.89 c -9.87,25.62 0.53,53.48 23.23,62.22 22.69,8.75 49.09,-4.93 58.96,-30.55 l 135.97,-352.89 c 9.87,-25.62 -0.52,-53.48 -23.23,-62.22 m -256.91,120.87 c -22.69,-8.74 -49.09,4.94 -58.96,30.55 l -135.97,352.9 c -9.87,25.62 0.52,53.48 23.22,62.22 22.7,8.75 49.1,-4.93 58.97,-30.55 l 135.96,-352.89 c 9.88,-25.62 -0.52,-53.48 -23.22,-62.23 m -287.66,659.21 61.69,-685.69 822.82,-474.95 129.91,575.07 -1014.42,585.57"
         style="fill:#26b6a6;fill-opacity:1;fill-rule:nonzero;stroke:none"
         id="path156" /><path
         d="m 2545.38,2104.27 -15.92,9.19 -373.98,216.97 -61.59,684.53 1014.42,-585.57 -0.03,-0.13 -234.91,-135.62 -90.73,235.47 c -7.85,20.37 -26.15,33.19 -44.73,33.19 -4.78,0 -9.58,-0.85 -14.23,-2.64 -16.9,-6.5 -26.97,-23.6 -26.96,-42.47 0.01,-6.49 1.2,-13.19 3.73,-19.75 l 95.7,-248.38 -250.77,-144.79 m -105.58,533.8 c 0.01,-6.49 1.21,-13.19 3.73,-19.75 l 135.97,-352.89 c 7.85,-20.37 26.15,-33.19 44.73,-33.19 4.78,0 9.59,0.85 14.23,2.64 16.9,6.51 26.98,23.59 26.96,42.47 -0.01,6.49 -1.21,13.19 -3.73,19.75 l -135.97,352.89 c -7.85,20.37 -26.15,33.19 -44.73,33.19 -4.78,0 -9.59,-0.85 -14.23,-2.64 -16.89,-6.51 -26.97,-23.6 -26.96,-42.47 m -256.91,120.88 c 0,-6.49 1.2,-13.2 3.73,-19.75 l 135.97,-352.9 c 7.85,-20.37 26.15,-33.19 44.73,-33.19 4.78,0 9.58,0.85 14.23,2.64 16.89,6.51 26.97,23.61 26.95,42.48 0,6.49 -1.2,13.19 -3.73,19.75 l -135.96,352.89 c -7.85,20.37 -26.15,33.19 -44.73,33.19 -4.78,0 -9.59,-0.85 -14.24,-2.64 -16.89,-6.51 -26.97,-23.6 -26.95,-42.47"
         style="fill:#10ae97;fill-opacity:1;fill-rule:nonzero;stroke:none"
         id="path158" /><path
         d="m 2375.32,1773.19 c -22.7,-8.75 -49.1,4.93 -58.97,30.55 l -135.97,352.89 c -9.87,25.62 0.53,53.48 23.23,62.22 22.69,8.75 49.09,-4.93 58.97,-30.55 l 135.96,-352.89 c 9.87,-25.62 -0.52,-53.48 -23.22,-62.22 m -256.92,120.88 c -22.69,-8.75 -49.1,4.94 -58.97,30.55 l -135.96,352.89 c -9.87,25.62 0.53,53.48 23.22,62.22 22.7,8.75 49.09,-4.93 58.97,-30.55 l 135.96,-352.89 c 9.88,-25.62 -0.52,-53.48 -23.22,-62.22 m -256.92,120.88 c -22.69,-8.75 -49.09,4.93 -58.96,30.55 l -135.97,352.89 c -9.87,25.62 0.53,53.48 23.22,62.22 22.7,8.75 49.1,-4.93 58.97,-30.55 l 135.96,-352.89 c 9.88,-25.62 -0.52,-53.48 -23.22,-62.22 m -324.79,674.49 55.92,-685.21 822.82,-475.05 129.91,575.07 -1008.65,585.19"
         style="fill:#26b6a6;fill-opacity:1;fill-rule:nonzero;stroke:none"
         id="path160" /><path
         d="m 1628.7,1983.4 -36.09,20.83 v 0 l 36.09,-20.83"
         style="fill:#29444e;fill-opacity:1;fill-rule:nonzero;stroke:none"
         id="path162" /><path
         d="m 2415.43,1529.18 -786.73,454.22 -36.09,20.83 -55.92,685.21 1008.65,-585.19 -129.91,-575.07 m -238.78,647.2 c 0.01,-6.49 1.21,-13.19 3.73,-19.75 l 135.97,-352.89 c 7.85,-20.37 26.15,-33.19 44.73,-33.19 4.79,0 9.59,0.85 14.24,2.64 16.89,6.51 26.96,23.6 26.95,42.47 -0.01,6.49 -1.2,13.19 -3.73,19.75 l -135.96,352.89 c -7.86,20.37 -26.15,33.19 -44.73,33.19 -4.79,0 -9.59,-0.85 -14.24,-2.64 -16.9,-6.51 -26.97,-23.6 -26.96,-42.47 m -256.91,120.88 c 0,-6.49 1.2,-13.19 3.73,-19.75 l 135.96,-352.89 c 7.85,-20.37 26.16,-33.19 44.74,-33.19 4.78,0 9.58,0.85 14.23,2.64 16.89,6.51 26.97,23.6 26.95,42.47 0,6.49 -1.2,13.19 -3.73,19.75 l -115.01,298.52 -20.95,54.37 c -7.85,20.37 -26.15,33.19 -44.73,33.19 -4.79,0 -9.59,-0.85 -14.24,-2.64 -16.89,-6.51 -26.97,-23.6 -26.95,-42.47 m -256.92,120.88 c 0.01,-6.49 1.2,-13.19 3.73,-19.75 l 135.97,-352.89 c 7.84,-20.38 26.15,-33.19 44.73,-33.19 4.78,0 9.59,0.85 14.23,2.64 16.89,6.5 26.97,23.59 26.96,42.47 -0.01,6.49 -1.21,13.19 -3.74,19.75 l -30.16,78.29 -105.8,274.6 c -7.85,20.37 -26.15,33.19 -44.73,33.19 -4.78,0 -9.59,-0.85 -14.24,-2.64 -16.89,-6.51 -26.97,-23.6 -26.95,-42.47"
         style="fill:#19b19d;fill-opacity:1;fill-rule:nonzero;stroke:none"
         id="path164" /><path
         d="m 2545.34,2104.25 562.98,325.03 -129.91,-575.06 -562.98,-325.04 129.91,575.07"
         style="fill:#26b6a6;fill-opacity:1;fill-rule:nonzero;stroke:none"
         id="path166" /><path
         d="m 2415.43,1529.18 129.91,575.07 562.98,325.03 -129.91,-575.06 -219.4,-126.67 -35.05,-20.23 -13.76,-7.95 -21.92,-12.66 -272.85,-157.53"
         style="fill:#08917e;fill-opacity:1;fill-rule:nonzero;stroke:none"
         id="path168" /><path
         d="m 2748.08,3345.75 -65.01,-38.14 0.22,196.86 -39.39,22.74 -178.38,-102.99 -0.31,-242.87 -104.03,-58.98 232.86,-150.92 193.43,351.57 -39.39,22.73"
         style="fill:#273e47;fill-opacity:1;fill-rule:nonzero;stroke:none"
         id="path170" /><path
         d="m 2504.9,3401.48 -0.3,-242.87 -104.04,-58.98 193.48,-128.18 193.43,351.56 -104.48,-61.4 0.3,242.86 -178.39,-102.99"
         style="fill:#33535f;fill-opacity:1;fill-rule:nonzero;stroke:none"
         id="path172" /><path
         d="m 2465.52,3424.22 39.38,-22.74 -0.3,-242.87 -39.39,22.74 0.31,242.87"
         style="fill:#17282f;fill-opacity:1;fill-rule:nonzero;stroke:none"
         id="path174" /><path
         d="m 1659.46,3192.81 563.83,325.52 -46.99,678.17 -516.84,-298.39 v -705.3"
         style="fill:#26b6a6;fill-opacity:1;fill-rule:nonzero;stroke:none"
         id="path176" /><path
         d="m 1659.46,3192.81 v 705.3 l 516.84,298.39 46.99,-678.17 -563.83,-325.52"
         style="fill:#87d6cb;fill-opacity:1;fill-rule:nonzero;stroke:none"
         id="path178" /><path
         d="m 1659.46,3898.11 v 54.25 l -140.96,27.13 516.84,298.4 46.99,-81.39 h 93.97 l -516.84,-298.39"
         style="fill:#26b6a6;fill-opacity:1;fill-rule:nonzero;stroke:none"
         id="path180" /><path
         d="m 1659.46,3898.11 v 54.25 l -140.96,27.13 516.84,298.4 46.99,-81.39 h 93.97 -93.97 l -0.01,-54.25 93.98,54.25 -516.84,-298.39 m 375.88,379.78 v -162.77 l 46.98,27.13 0.01,54.25 -46.99,81.39"
         style="fill:#4ac2b6;fill-opacity:1;fill-rule:nonzero;stroke:none"
         id="path182" /><path
         d="m 2035.34,4277.89 v -162.77 l 46.98,27.13 0.01,54.25 -46.99,81.39"
         style="fill:#26b6a6;fill-opacity:1;fill-rule:nonzero;stroke:none"
         id="path184" /><path
         d="m 2035.34,4115.12 v 162.77 l 46.99,-81.39 -0.01,-54.25 -46.98,-27.13"
         style="fill:#1db3a0;fill-opacity:1;fill-rule:nonzero;stroke:none"
         id="path186" /><path
         d="m 2176.3,4196.5 h -93.97 l -0.01,-54.25 93.98,54.25"
         style="fill:#26b6a6;fill-opacity:1;fill-rule:nonzero;stroke:none"
         id="path188" /><path
         d="m 2082.32,4142.25 0.01,54.25 h 93.97 l -93.98,-54.25"
         style="fill:#14b099;fill-opacity:1;fill-rule:nonzero;stroke:none"
         id="path190" /><path
         d="m 1518.5,3979.49 -46.98,-678.18 187.94,-108.5 v 759.55 l -140.96,27.13"
         style="fill:#26b6a6;fill-opacity:1;fill-rule:nonzero;stroke:none"
         id="path192" /><path
         d="m 1659.46,3192.81 -187.94,108.5 46.98,678.18 140.96,-27.13 -93.96,-705.29 93.96,-54.26"
         style="fill:#1db3a0;fill-opacity:1;fill-rule:nonzero;stroke:none"
         id="path194" /><path
         d="m 1659.46,3952.36 -93.96,-705.29 93.96,-54.26 v 759.55"
         style="fill:#26b6a6;fill-opacity:1;fill-rule:nonzero;stroke:none"
         id="path196" /><path
         d="m 1659.46,3192.81 -93.96,54.26 93.96,705.29 v -759.55"
         style="fill:#14b099;fill-opacity:1;fill-rule:nonzero;stroke:none"
         id="path198" /><path
         d="m 1659.46,3192.81 -86.13,113.06 -101.81,-4.56 z"
         style="fill:#26b6a6;fill-opacity:1;fill-rule:nonzero;stroke:none"
         id="path200" /><path
         d="m 1670.87,3986.71 c 0,-9.23 6.48,-12.96 14.46,-8.35 8,4.61 14.47,15.83 14.47,25.06 0,9.22 -6.47,12.96 -14.47,8.35 -7.98,-4.62 -14.46,-15.83 -14.46,-25.06"
         style="fill:#273e47;fill-opacity:1;fill-rule:nonzero;stroke:none"
         id="path202" /><path
         d="m 1863.24,4095.22 c 0,-9.22 6.48,-12.96 14.47,-8.35 7.99,4.61 14.47,15.83 14.47,25.06 0,9.22 -6.48,12.96 -14.47,8.34 -7.99,-4.61 -14.47,-15.82 -14.47,-25.05"
         style="fill:#273e47;fill-opacity:1;fill-rule:nonzero;stroke:none"
         id="path204" /><path
         d="m 1685.33,3997.2 c -2.68,0 -4.85,2.17 -4.85,4.85 v 118.5 c 0,51.62 44.24,119.16 98.62,150.56 30.26,17.48 59.02,20.9 78.93,9.42 15.82,-9.14 24.53,-26.96 24.53,-50.19 v -119.78 c 0,-2.68 -2.17,-4.85 -4.85,-4.85 -2.69,0 -4.86,2.17 -4.86,4.85 v 119.78 c 0,19.9 -6.8,34.34 -19.68,41.78 -16.8,9.7 -42.04,6.27 -69.22,-9.42 -51.7,-29.85 -93.76,-93.62 -93.76,-142.15 v -118.5 c 0,-2.68 -2.17,-4.85 -4.86,-4.85"
         style="fill:#273e47;fill-opacity:1;fill-rule:nonzero;stroke:none"
         id="path206" /><path
         d="m 1814.04,3905.33 c 0,-9.22 6.48,-12.96 14.47,-8.35 7.99,4.61 14.47,15.83 14.47,25.06 0,9.23 -6.48,12.96 -14.47,8.35 -7.99,-4.61 -14.47,-15.83 -14.47,-25.06"
         style="fill:#33535f;fill-opacity:1;fill-rule:nonzero;stroke:none"
         id="path208" /><path
         d="m 2006.41,4013.84 c 0,-9.23 6.48,-12.96 14.47,-8.35 7.99,4.61 14.47,15.83 14.47,25.06 0,9.22 -6.48,12.96 -14.47,8.35 -7.99,-4.61 -14.47,-15.83 -14.47,-25.06"
         style="fill:#33535f;fill-opacity:1;fill-rule:nonzero;stroke:none"
         id="path210" /><path
         d="m 1828.51,3915.82 c -2.69,0 -4.85,2.18 -4.85,4.86 v 118.5 c 0,51.62 44.22,119.16 98.6,150.55 30.26,17.48 59.04,20.91 78.94,9.43 15.82,-9.14 24.54,-26.97 24.54,-50.19 v -119.78 c 0,-2.69 -2.17,-4.85 -4.86,-4.85 -2.68,0 -4.85,2.16 -4.85,4.85 v 119.78 c 0,19.89 -6.81,34.34 -19.68,41.77 -16.81,9.71 -42.04,6.27 -69.23,-9.42 -51.7,-29.85 -93.76,-93.61 -93.76,-142.14 v -118.5 c 0,-2.68 -2.17,-4.86 -4.85,-4.86"
         style="fill:#33535f;fill-opacity:1;fill-rule:nonzero;stroke:none"
         id="path212" /><path
         d="m 1395.05,328.57 654.37,377.809 c 12.92,7.461 17.61,17.242 17.69,27.051 0.13,10.031 0.18,46.422 0.18,46.422 L 2049.5,754.648 1553.79,468.641 1394.9,376.91 c -23.83,-13.762 -62.3,-13.769 -86.14,0.031 L 317.797,949.059 300.641,968.82 c 0,0 -0.918,-34.211 -0.453,-45.621 0.199,-8.301 6.917,-16.277 17.617,-22.551 L 1308.91,328.602 c 23.71,-13.872 62.31,-13.793 86.14,-0.032"
         style="fill:#26b6a6;fill-opacity:1;fill-rule:nonzero;stroke:none"
         id="path214" /><path
         d="m 1351.88,318.23 c -14.12,0 -28.22,2.829 -39.55,8.508 11.33,-5.679 25.43,-8.508 39.55,-8.508 3.89,0 7.77,0.211 11.61,0.641 v 48.367 c 11.5,1.293 22.48,4.512 31.41,9.672 l 158.89,91.731 495.71,286.007 0.92,0.723 c 11.35,6.75 16.95,15.578 16.82,24.418 l 0.05,0.063 c 0,0 -0.05,-36.391 -0.18,-46.422 -0.08,-9.809 -4.77,-19.59 -17.69,-27.051 L 1395.05,328.57 c -11.93,-6.879 -27.56,-10.351 -43.17,-10.34"
         style="fill:#19b19d;fill-opacity:1;fill-rule:nonzero;stroke:none"
         id="path216" /><path
         d="M 1308.91,328.602 317.805,900.648 c -9.696,5.68 -16.121,12.774 -17.391,20.231 1.27,-7.457 7.695,-14.551 17.391,-20.231 L 1308.91,328.602"
         style="fill:#19b19d;fill-opacity:1;fill-rule:nonzero;stroke:none"
         id="path218" /><path
         d="m 1331.21,368.672 c -8.19,1.699 -15.88,4.457 -22.45,8.258 L 317.797,949.059 1308.76,376.941 v 0 c 6.57,-3.812 14.26,-6.562 22.45,-8.269 M 300.172,923.68 c -0.082,2.261 -0.113,5.289 -0.113,8.711 v 0 c 0,-3.422 0.031,-6.45 0.113,-8.711"
         style="fill:#19b19d;fill-opacity:1;fill-rule:nonzero;stroke:none"
         id="path220" /><path
         d="m 1860.84,645.801 v 0 -48.301 l 188.58,108.879 c 12.92,7.461 17.61,17.242 17.69,27.051 0.14,10.031 0.18,46.422 0.18,46.422 l -17.8,-25.204 -188.65,-108.847"
         style="fill:#273e47;fill-opacity:1;fill-rule:nonzero;stroke:none"
         id="path222" /><path
         d="m 2049.5,754.648 0.92,0.723 c 22.8,13.551 22.37,35.508 -0.94,49.027 l -991.19,572.192 c -23.76,13.65 -62.31,13.78 -86.134,0.03 L 317.777,998.809 c -23.539,-13.59 -23.707,-35.5 -0.91,-49.137 l 0.93,-0.613 990.963,-572.118 c 23.84,-13.8 62.31,-13.793 86.14,-0.031 l 158.89,91.731 495.71,286.007"
         style="fill:#26b6a6;fill-opacity:1;fill-rule:nonzero;stroke:none"
         id="path224" /><path
         d="m 1860.84,645.801 188.65,108.847 0.93,0.731 c 22.8,13.543 22.37,35.492 -0.94,49.019 l -991.19,572.192 c -23.76,13.65 -62.31,13.78 -86.134,0.03 L 783.598,1267.75 1860.84,645.801"
         style="fill:#33535f;fill-opacity:1;fill-rule:nonzero;stroke:none"
         id="path226" /><path
         d="m 1312.33,326.738 c -1.17,0.59 -2.31,1.211 -3.42,1.864 v 0 c 1.11,-0.653 2.25,-1.274 3.42,-1.864 m 39.52,39.852 v 0 c 0.01,0 0.03,0 0.04,0 -0.01,0 -0.03,0 -0.04,0"
         style="fill:#b4b6b4;fill-opacity:1;fill-rule:nonzero;stroke:none"
         id="path228" /><path
         d="m 1351.81,366.59 c -6.98,0 -13.95,0.699 -20.6,2.082 0.66,-0.141 1.34,-0.274 2.01,-0.402 6.04,-1.122 12.31,-1.68 18.59,-1.68"
         style="fill:#b4b6b4;fill-opacity:1;fill-rule:nonzero;stroke:none"
         id="path230" /><path
         d="m 300.543,964.871 c 0.047,1.961 0.082,3.301 0.094,3.77 v 0 c -0.012,-0.461 -0.047,-1.809 -0.094,-3.77 v 0"
         style="fill:#c7c9c7;fill-opacity:1;fill-rule:nonzero;stroke:none"
         id="path232" /><path
         d="m 300.059,932.391 c -0.004,10.789 0.316,25.519 0.484,32.48 v 0 c -0.168,-6.961 -0.488,-21.691 -0.484,-32.48"
         style="fill:#b4b6b4;fill-opacity:1;fill-rule:nonzero;stroke:none"
         id="path234" /><path
         d="m 1351.88,318.23 c -14.12,0 -28.22,2.829 -39.55,8.508 -1.17,0.59 -2.31,1.211 -3.42,1.864 v 0 L 317.805,900.648 c -9.696,5.68 -16.121,12.774 -17.391,20.231 -0.133,0.769 -0.207,1.551 -0.226,2.32 -0.004,0.16 -0.012,0.321 -0.016,0.481 -0.082,2.261 -0.113,5.289 -0.113,8.711 -0.004,13.82 0.523,34.129 0.578,36.25 1.824,-6.93 7.242,-13.59 16.23,-18.969 l 0.93,-0.613 990.963,-572.129 c 6.57,-3.801 14.26,-6.559 22.45,-8.258 6.65,-1.383 13.62,-2.082 20.6,-2.082 0.01,0 0.03,0 0.04,0 v 0 0 c 0.01,0 0.03,0 0.04,0 3.89,0 7.77,0.219 11.6,0.648 v -48.367 c -3.84,-0.43 -7.72,-0.641 -11.61,-0.641"
         style="fill:#0aac94;fill-opacity:1;fill-rule:nonzero;stroke:none"
         id="path236" /><path
         d="m 1351.85,366.59 c -0.01,0 -0.03,0 -0.04,0 v 0 c -6.28,0 -12.55,0.558 -18.59,1.68 6.05,-1.122 12.34,-1.68 18.63,-1.68 3.9,0 7.8,0.219 11.64,0.648 v 0 c -3.83,-0.429 -7.71,-0.648 -11.6,-0.648 v 0 c -0.01,0 -0.03,0 -0.04,0 v 0 0 m -1034.053,582.469 -0.93,0.613 c -8.988,5.379 -14.406,12.039 -16.23,18.969 v 0 0 c 0.004,0.129 0.004,0.187 0.004,0.187 l 17.156,-19.769"
         style="fill:#19b19d;fill-opacity:1;fill-rule:nonzero;stroke:none"
         id="path238" /><path
         d="m 621.363,1033.6 -19.164,11.08 -1.433,1.75 0.996,1.66 c 0.761,0.45 1.73,0.64 2.914,0.59 1.168,-0.04 2.187,-0.31 3.051,-0.81 l 6.386,-3.68 27.653,15.96 c 1.523,0.88 2.214,1.97 2.05,3.3 -0.168,1.32 -1.109,2.51 -2.808,3.52 l -0.098,0.06 -1.469,1.76 1.028,1.65 c 0.765,0.44 1.722,0.65 2.883,0.61 1.164,-0.04 2.199,-0.32 3.086,-0.83 l -0.043,-0.02 0.043,0.02 c 3.535,-2.05 5.464,-4.41 5.792,-7.08 0.34,-2.7 -1.015,-4.93 -4.074,-6.69 l -27.644,-15.97 6.386,-3.68 1.442,-1.78 -1.047,-1.66 c -0.762,-0.44 -1.73,-0.63 -2.883,-0.59 -1.164,0.06 -2.18,0.34 -3.047,0.83"
         style="fill:#ffffff;fill-opacity:1;fill-rule:nonzero;stroke:none"
         id="path240" /><path
         d="m 679.512,1019.19 -12.785,7.39 c -1.75,1 -3.801,1.57 -6.129,1.66 -2.328,0.1 -4.246,-0.3 -5.77,-1.18 l -4.152,-2.39 -0.5,-0.83 0.707,-0.88 27.187,-15.7 1.43,-1.78 -1.016,-1.68 c -0.761,-0.44 -1.726,-0.64 -2.89,-0.58 -1.176,0.07 -2.192,0.35 -3.059,0.85 l -31.976,18.46 -1.446,1.76 1.032,1.67 8.296,4.79 c 3.051,1.76 6.903,2.55 11.547,2.37 4.668,-0.21 8.754,-1.33 12.27,-3.35 l 12.777,-7.39 c 1.77,-1.01 3.82,-1.57 6.164,-1.68 2.344,-0.1 4.278,0.28 5.805,1.16 l 5.531,3.19 c 1.524,0.89 2.199,2.01 2.031,3.35 -0.164,1.35 -1.148,2.54 -2.937,3.56 l -12.777,7.39 c -1.754,1.01 -3.805,1.57 -6.133,1.67 -2.324,0.09 -4.25,-0.31 -5.774,-1.19 -0.781,-0.45 -1.746,-0.64 -2.894,-0.6 -1.149,0.05 -2.164,0.33 -3.043,0.84 l -1.481,1.78 1.032,1.67 c 3.05,1.76 6.906,2.55 11.546,2.36 4.668,-0.2 8.758,-1.31 12.274,-3.34 l 12.781,-7.38 c 3.547,-2.04 5.504,-4.43 5.836,-7.12 0.328,-2.67 -1.019,-4.91 -4.078,-6.67 l -5.527,-3.19 c -3.051,-1.76 -6.918,-2.54 -11.563,-2.36 -4.652,0.2 -8.769,1.33 -12.316,3.37"
         style="fill:#ffffff;fill-opacity:1;fill-rule:nonzero;stroke:none"
         id="path242" /><path
         d="m 740.59,980.738 -2.766,-1.59 c -3.051,-1.769 -6.906,-2.546 -11.562,-2.359 -4.653,0.199 -8.746,1.313 -12.27,3.352 l -12.773,7.371 c -3.52,2.039 -5.449,4.398 -5.785,7.078 -0.332,2.691 1.023,4.922 4.078,6.68 0.75,0.43 1.707,0.62 2.871,0.58 1.16,-0.04 2.18,-0.32 3.062,-0.82 l 1.446,-1.78 -0.985,-1.68 c -1.527,-0.879 -2.211,-1.988 -2.047,-3.34 0.172,-1.339 1.141,-2.531 2.891,-3.531 l 12.773,-7.367 c 1.762,-1.023 3.809,-1.582 6.137,-1.684 2.324,-0.097 4.25,0.301 5.778,1.184 l 2.765,1.598 c 1.527,0.879 2.211,1.992 2.047,3.332 -0.168,1.34 -1.141,2.527 -2.902,3.547 l -3.196,1.851 -1.468,1.762 1.019,1.66 c 0.766,0.438 1.731,0.629 2.891,0.59 1.168,-0.043 2.195,-0.301 3.094,-0.82 l 3.187,-1.852 c 1.766,-1.012 3.813,-1.578 6.141,-1.68 2.328,-0.09 4.25,0.309 5.777,1.192 l 2.766,1.597 c 1.527,0.879 2.207,1.981 2.039,3.332 -0.164,1.339 -1.133,2.529 -2.895,3.549 l -12.773,7.36 c -1.754,1.01 -3.797,1.58 -6.133,1.67 -2.324,0.1 -4.242,-0.3 -5.774,-1.18 -0.773,-0.45 -1.757,-0.63 -2.921,-0.58 -1.164,0.06 -2.184,0.34 -3.063,0.85 l -1.445,1.75 1.039,1.68 c 3.051,1.76 6.906,2.55 11.558,2.35 4.653,-0.19 8.747,-1.31 12.27,-3.34 l 12.769,-7.37 c 3.532,-2.04 5.458,-4.4 5.79,-7.09 0.332,-2.692 -1.024,-4.91 -4.075,-6.668 l -2.765,-1.602 c -1.617,-0.929 -3.532,-1.59 -5.75,-1.968 -2.223,-0.383 -4.52,-0.481 -6.887,-0.313 0.293,-1.367 0.113,-2.699 -0.539,-3.98 -0.664,-1.289 -1.805,-2.379 -3.414,-3.321"
         style="fill:#ffffff;fill-opacity:1;fill-rule:nonzero;stroke:none"
         id="path244" /><path
         d="m 777.727,944.281 c -1.184,0.059 -2.211,0.328 -3.09,0.84 l -1.449,1.758 1.046,1.66 15.34,8.852 c -3.004,0.57 -5.636,1.507 -7.898,2.82 l -12.781,7.379 c -3.516,2.031 -5.446,4.39 -5.793,7.09 -0.321,2.672 1.043,4.902 4.093,6.66 l 13.825,7.98 c 0.746,0.43 1.699,0.641 2.859,0.602 1.164,-0.043 2.184,-0.313 3.066,-0.82 l 1.457,-1.793 -0.996,-1.668 -13.824,-7.993 c -1.527,-0.878 -2.211,-1.988 -2.047,-3.328 0.172,-1.34 1.141,-2.531 2.891,-3.531 l 12.777,-7.391 c 1.766,-1.019 3.805,-1.566 6.137,-1.668 2.32,-0.089 4.254,0.301 5.777,1.18 l 13.828,7.981 c 0.75,0.429 1.7,0.629 2.864,0.597 1.16,-0.039 2.183,-0.316 3.066,-0.828 l 1.449,-1.789 -0.988,-1.672 -38.711,-22.347 c -0.75,-0.43 -1.715,-0.622 -2.898,-0.571"
         style="fill:#ffffff;fill-opacity:1;fill-rule:nonzero;stroke:none"
         id="path246" /><path
         d="m 877.129,919.469 -0.504,-0.828 0.707,-0.879 17.566,-10.153 c 3.528,-2.039 5.461,-4.398 5.793,-7.089 0.321,-2.668 -1.023,-4.911 -4.078,-6.668 l -5.531,-3.192 c -3.051,-1.769 -6.914,-2.539 -11.562,-2.359 -4.653,0.199 -8.743,1.308 -12.266,3.347 l -12.785,7.383 c -3.516,2.028 -5.442,4.379 -5.789,7.078 -0.325,2.68 1.039,4.903 4.09,6.661 0.777,0.449 1.75,0.652 2.902,0.609 1.168,-0.059 2.191,-0.348 3.078,-0.859 l 1.441,-1.758 -1.035,-1.672 c -1.527,-0.879 -2.211,-1.988 -2.043,-3.328 0.168,-1.352 1.137,-2.532 2.891,-3.543 l 12.777,-7.391 c 1.762,-1.008 3.805,-1.558 6.133,-1.656 2.324,-0.09 4.258,0.289 5.785,1.168 l 5.528,3.199 c 1.531,0.883 2.203,2 2.035,3.34 -0.164,1.34 -1.125,2.519 -2.887,3.531 l -19.156,11.059 c -1.766,1.019 -2.735,2.211 -2.903,3.551 -0.171,1.351 0.52,2.46 2.047,3.332 l 13.825,7.988 c 0.777,0.449 1.734,0.648 2.878,0.601 1.149,-0.05 2.18,-0.332 3.067,-0.839 l 31.926,-18.43 1.453,-1.774 -0.992,-1.668 c -0.766,-0.441 -1.727,-0.628 -2.895,-0.582 -1.172,0.082 -2.187,0.352 -3.051,0.852 l -27.14,15.672 -1.528,0.398 -1.484,-0.32 -8.293,-4.781"
         style="fill:#ffffff;fill-opacity:1;fill-rule:nonzero;stroke:none"
         id="path248" /><path
         d="m 910.238,879.602 c -1.523,-0.883 -2.215,-1.993 -2.047,-3.332 0.172,-1.348 1.137,-2.528 2.891,-3.54 l 12.773,-7.371 c 1.793,-1.039 3.864,-1.609 6.188,-1.711 2.328,-0.089 4.254,0.313 5.781,1.18 l 5.528,3.203 c 1.527,0.879 2.207,1.989 2.039,3.328 -0.164,1.34 -1.153,2.539 -2.95,3.582 l -12.765,7.368 c -1.754,1 -3.805,1.57 -6.133,1.66 -2.324,0.101 -4.25,-0.297 -5.773,-1.18 z m 22.961,5.898 12.774,-7.371 c 3.562,-2.051 5.515,-4.438 5.84,-7.109 0.332,-2.688 -1.012,-4.93 -4.067,-6.688 l -5.531,-3.203 c -3.051,-1.758 -6.918,-2.527 -11.574,-2.34 -4.641,0.191 -8.758,1.32 -12.317,3.371 l -12.769,7.379 c -3.528,2.031 -5.453,4.402 -5.793,7.082 -0.332,2.688 1.027,4.91 4.082,6.68 l 22.121,12.769 c 3.051,1.762 6.902,2.539 11.558,2.352 4.657,-0.192 8.743,-1.301 12.27,-3.344 l 12.77,-7.367 c 3.558,-2.063 5.515,-4.441 5.839,-7.121 0.336,-2.68 -1.015,-4.918 -4.066,-6.68 -0.777,-0.449 -1.75,-0.648 -2.922,-0.578 -1.168,0.059 -2.187,0.328 -3.066,0.848 l -1.446,1.75 1.036,1.672 c 1.527,0.886 2.21,1.988 2.046,3.328 -0.168,1.351 -1.16,2.55 -2.949,3.582 l -12.773,7.379 c -1.754,1 -3.801,1.57 -6.129,1.66 -2.328,0.097 -4.246,-0.301 -5.778,-1.18 l -7.039,-4.07 c 2.993,-0.563 5.625,-1.492 7.883,-2.801"
         style="fill:#ffffff;fill-opacity:1;fill-rule:nonzero;stroke:none"
         id="path250" /><path
         d="m 1006.86,841.371 -37.868,-5.269 -0.504,-0.063 -0.668,-0.078 -0.742,-0.102 -0.828,-0.078 -0.836,0.02 -0.871,0.07 -0.781,0.188 -0.731,0.281 -1.621,1.699 c -0.187,0.602 0.215,1.18 1.195,1.75 0.575,0.332 2.032,0.551 4.36,0.672 12.16,1.699 23.859,3.437 35.095,5.23 1.09,0.168 2.21,0.469 3.36,0.879 1.15,0.418 2.03,0.789 2.65,1.09 l 0.91,0.469 c 1.53,0.883 2.2,2 2.04,3.34 -0.17,1.351 -1.13,2.519 -2.89,3.543 l -6.39,3.679 -3.193,1.848 -12.77,7.371 -1.472,1.781 1.023,1.649 c 0.766,0.441 1.723,0.64 2.887,0.609 1.16,-0.039 2.199,-0.328 3.09,-0.847 l 12.775,-7.372 3.19,-1.839 6.39,-3.692 c 3.53,-2.027 5.45,-4.398 5.79,-7.09 0.32,-2.668 -1.03,-4.898 -4.08,-6.668 -1.15,-0.66 -2.64,-1.293 -4.45,-1.91 -1.79,-0.633 -3.15,-1.019 -4.06,-1.16"
         style="fill:#ffffff;fill-opacity:1;fill-rule:nonzero;stroke:none"
         id="path252" /><path
         d="m 1040.7,807.48 c 1.53,0.879 2.21,1.981 2.04,3.329 -0.16,1.339 -1.13,2.531 -2.89,3.543 l -12.78,7.367 c -1.75,1.011 -3.8,1.582 -6.12,1.672 -2.33,0.097 -4.25,-0.301 -5.78,-1.18 l -2.76,-1.602 c -1.53,-0.879 -2.22,-1.988 -2.05,-3.328 0.17,-1.34 1.14,-2.531 2.89,-3.531 l 12.77,-7.379 c 1.77,-1.019 3.81,-1.582 6.14,-1.68 2.33,-0.089 4.25,0.309 5.78,1.188 z m 19.36,11.168 c 1.52,0.883 2.2,1.993 2.04,3.332 -0.17,1.34 -1.14,2.532 -2.9,3.551 l -12.77,7.367 c -1.75,1.012 -3.81,1.571 -6.13,1.672 -2.33,0.09 -4.25,-0.308 -5.78,-1.191 l -2.76,-1.59 c -1.53,-0.891 -2.22,-1.988 -2.05,-3.34 0.17,-1.34 1.14,-2.527 2.89,-3.527 l 12.77,-7.383 c 1.77,-1.008 3.82,-1.578 6.14,-1.668 2.33,-0.101 4.25,0.301 5.78,1.18 z m -12.96,-14.867 -2.77,-1.601 c -3.05,-1.758 -6.92,-2.539 -11.57,-2.352 -4.64,0.192 -8.73,1.301 -12.27,3.352 l -12.77,7.371 c -3.52,2.039 -5.46,4.398 -5.79,7.09 -0.34,2.679 1.03,4.91 4.08,6.668 l 2.76,1.601 c 1.62,0.93 3.53,1.59 5.73,1.981 2.21,0.39 4.51,0.488 6.92,0.289 -0.34,1.402 -0.17,2.718 0.51,4 0.68,1.269 1.82,2.379 3.43,3.3 l 2.77,1.602 c 3.05,1.758 6.91,2.547 11.56,2.348 4.65,-0.192 8.75,-1.301 12.27,-3.34 l 12.77,-7.371 c 3.53,-2.047 5.46,-4.41 5.79,-7.078 0.33,-2.692 -1.02,-4.93 -4.07,-6.692 l -2.77,-1.597 c -1.61,-0.93 -3.53,-1.582 -5.75,-1.961 -2.22,-0.379 -4.51,-0.493 -6.89,-0.313 0.31,-1.379 0.12,-2.699 -0.54,-3.976 -0.66,-1.282 -1.79,-2.391 -3.4,-3.321"
         style="fill:#ffffff;fill-opacity:1;fill-rule:nonzero;stroke:none"
         id="path254" /><path
         d="m 1162.28,759.621 c 1.53,0.879 2.2,2 2.03,3.34 -0.16,1.348 -1.15,2.539 -2.95,3.578 l -12.77,7.383 c -1.75,1 -3.8,1.558 -6.13,1.66 -2.33,0.09 -4.24,-0.301 -5.77,-1.184 l -5.53,-3.199 c -1.53,-0.879 -2.21,-1.988 -2.05,-3.328 0.17,-1.34 1.14,-2.531 2.89,-3.531 l 12.77,-7.379 c 1.77,-1.012 3.82,-1.57 6.18,-1.699 2.33,-0.09 4.27,0.289 5.8,1.168 z m -39.62,-15.422 -12.77,7.371 c -3.53,2.032 -5.46,4.391 -5.8,7.078 -0.33,2.692 1.03,4.922 4.09,6.684 0.74,0.43 1.72,0.609 2.89,0.566 1.17,-0.046 2.21,-0.328 3.09,-0.839 l 1.42,-1.77 -1.01,-1.66 c -1.53,-0.891 -2.21,-1.988 -2.05,-3.34 0.17,-1.34 1.14,-2.527 2.89,-3.527 l 12.78,-7.371 c 1.76,-1.02 3.81,-1.582 6.17,-1.7 2.33,-0.089 4.28,0.278 5.8,1.161 l 7.04,4.058 c -3,0.578 -5.65,1.52 -7.95,2.86 l -12.78,7.371 c -3.52,2.039 -5.45,4.398 -5.78,7.089 -0.34,2.692 1.02,4.911 4.07,6.668 l 5.54,3.204 c 3.05,1.757 6.9,2.546 11.55,2.347 4.66,-0.187 8.75,-1.301 12.27,-3.34 l 12.78,-7.371 c 3.55,-2.058 5.51,-4.437 5.84,-7.117 0.33,-2.691 -1.02,-4.922 -4.08,-6.691 l -22.11,-12.77 c -3.06,-1.762 -6.92,-2.531 -11.58,-2.34 -4.64,0.18 -8.76,1.321 -12.31,3.379"
         style="fill:#ffffff;fill-opacity:1;fill-rule:nonzero;stroke:none"
         id="path256" /><path
         d="m 1170.51,716.559 -19.16,11.062 -1.44,1.758 0.99,1.672 c 0.77,0.437 1.73,0.64 2.92,0.59 1.17,-0.051 2.19,-0.332 3.06,-0.832 l 6.38,-3.688 27.66,15.969 c 1.52,0.879 2.2,1.98 2.04,3.308 -0.16,1.332 -1.11,2.512 -2.8,3.512 l -0.1,0.059 -1.47,1.781 1.02,1.641 c 0.76,0.449 1.73,0.648 2.89,0.609 1.16,-0.031 2.2,-0.32 3.09,-0.84 l -0.05,-0.019 0.05,0.019 c 3.52,-2.031 5.46,-4.39 5.79,-7.082 0.34,-2.687 -1.03,-4.906 -4.08,-6.68 l -27.65,-15.957 6.39,-3.691 1.44,-1.781 -1.04,-1.668 c -0.76,-0.442 -1.73,-0.629 -2.89,-0.571 -1.16,0.051 -2.18,0.329 -3.04,0.829"
         style="fill:#ffffff;fill-opacity:1;fill-rule:nonzero;stroke:none"
         id="path258" /><path
         d="m 1250.77,714.922 -12.77,7.367 c -1.06,0.621 -2.31,1.07 -3.73,1.359 l -4.29,-28.109 21.65,12.5 c 1.53,0.883 2.2,2 2.03,3.34 -0.17,1.351 -1.12,2.519 -2.89,3.543 z m -45.95,-11.781 12.77,-7.379 c 1.03,-0.59 2.28,-1.051 3.74,-1.352 l 4.28,28.102 -21.64,-12.492 c -1.53,-0.891 -2.21,-1.989 -2.05,-3.34 0.17,-1.34 1.14,-2.532 2.9,-3.539 z m 7.24,-10.571 -12.77,7.371 c -3.53,2.039 -5.45,4.399 -5.79,7.079 -0.33,2.691 1.03,4.921 4.08,6.679 l 22.12,12.77 c 3.05,1.761 6.9,2.551 11.56,2.351 4.66,-0.191 8.75,-1.3 12.27,-3.34 l 12.77,-7.371 c 3.53,-2.031 5.46,-4.39 5.79,-7.078 0.32,-2.679 -1.02,-4.922 -4.07,-6.679 l -22.12,-12.77 c -3.06,-1.762 -6.92,-2.531 -11.57,-2.363 -4.65,0.203 -8.74,1.312 -12.27,3.351"
         style="fill:#ffffff;fill-opacity:1;fill-rule:nonzero;stroke:none"
         id="path260" /><path
         d="m 1259.9,664.949 -19.16,11.071 -1.44,1.742 1,1.668 c 0.76,0.441 1.73,0.64 2.91,0.59 1.17,-0.028 2.19,-0.309 3.06,-0.809 l 6.38,-3.68 27.65,15.957 c 1.53,0.883 2.22,1.973 2.05,3.301 -0.16,1.32 -1.11,2.512 -2.81,3.52 l -0.09,0.062 -1.47,1.758 1.03,1.652 c 0.76,0.438 1.72,0.649 2.88,0.61 1.16,-0.039 2.2,-0.321 3.08,-0.832 l -0.04,-0.02 0.04,0.02 c 3.54,-2.047 5.47,-4.411 5.79,-7.079 0.35,-2.699 -1.01,-4.929 -4.06,-6.691 l -27.65,-15.957 6.38,-3.691 1.45,-1.782 -1.05,-1.66 c -0.76,-0.437 -1.73,-0.629 -2.88,-0.59 -1.17,0.063 -2.19,0.34 -3.05,0.84"
         style="fill:#ffffff;fill-opacity:1;fill-rule:nonzero;stroke:none"
         id="path262" /><path
         d="m 1349.3,613.34 -19.16,11.058 -1.44,1.75 0.99,1.672 c 0.77,0.442 1.74,0.641 2.92,0.59 1.18,-0.051 2.2,-0.32 3.06,-0.82 l 6.39,-3.692 27.64,15.961 c 1.53,0.891 2.22,1.993 2.05,3.313 -0.17,1.328 -1.1,2.5 -2.8,3.519 l -0.1,0.047 -1.47,1.782 1.02,1.652 c 0.77,0.437 1.72,0.648 2.89,0.609 1.16,-0.043 2.19,-0.332 3.09,-0.84 l -0.04,-0.031 0.04,0.031 c 3.53,-2.043 5.46,-4.402 5.79,-7.089 0.34,-2.68 -1.03,-4.911 -4.08,-6.672 l -27.65,-15.961 6.39,-3.688 1.44,-1.781 -1.03,-1.668 c -0.77,-0.441 -1.73,-0.641 -2.89,-0.582 -1.17,0.059 -2.19,0.34 -3.05,0.84"
         style="fill:#ffffff;fill-opacity:1;fill-rule:nonzero;stroke:none"
         id="path264" /><path
         d="m 1407.44,598.922 -12.77,7.367 c -1.76,1.031 -3.81,1.59 -6.14,1.68 -2.33,0.101 -4.25,-0.297 -5.77,-1.18 l -4.15,-2.391 -0.5,-0.828 0.71,-0.89 27.19,-15.7 1.42,-1.769 -1.01,-1.68 c -0.76,-0.441 -1.73,-0.633 -2.9,-0.582 -1.16,0.063 -2.17,0.34 -3.04,0.84 l -31.98,18.461 -1.44,1.75 1.02,1.691 8.29,4.778 c 3.06,1.769 6.91,2.551 11.56,2.363 4.66,-0.191 8.75,-1.312 12.27,-3.344 l 12.77,-7.367 c 1.77,-1.019 3.82,-1.582 6.16,-1.691 2.35,-0.11 4.28,0.281 5.81,1.16 l 5.53,3.199 c 1.52,0.883 2.2,2 2.03,3.34 -0.16,1.34 -1.14,2.531 -2.94,3.57 l -12.77,7.36 c -1.76,1.019 -3.81,1.589 -6.14,1.679 -2.32,0.102 -4.25,-0.297 -5.77,-1.179 -0.78,-0.45 -1.75,-0.637 -2.9,-0.59 -1.14,0.043 -2.16,0.32 -3.04,0.832 l -1.47,1.758 1.02,1.691 c 3.06,1.762 6.91,2.551 11.56,2.352 4.66,-0.192 8.75,-1.301 12.27,-3.34 l 12.77,-7.371 c 3.56,-2.059 5.51,-4.43 5.84,-7.121 0.33,-2.692 -1.02,-4.911 -4.08,-6.668 l -5.52,-3.192 c -3.06,-1.769 -6.91,-2.551 -11.57,-2.359 -4.65,0.199 -8.76,1.32 -12.32,3.371"
         style="fill:#ffffff;fill-opacity:1;fill-rule:nonzero;stroke:none"
         id="path266" /><path
         d="m 1438.69,561.719 -19.16,11.062 -1.44,1.758 1,1.672 c 0.76,0.437 1.73,0.641 2.91,0.59 1.18,-0.051 2.2,-0.321 3.07,-0.832 l 6.38,-3.68 27.65,15.961 c 1.53,0.879 2.21,1.988 2.05,3.309 -0.17,1.332 -1.11,2.511 -2.81,3.511 l -0.1,0.059 -1.47,1.781 1.03,1.649 c 0.76,0.441 1.72,0.652 2.88,0.613 1.16,-0.043 2.2,-0.332 3.09,-0.852 l -0.04,-0.019 0.04,0.019 c 3.53,-2.031 5.46,-4.39 5.79,-7.078 0.34,-2.683 -1.02,-4.914 -4.07,-6.672 l -27.65,-15.968 6.38,-3.68 1.45,-1.781 -1.04,-1.672 c -0.77,-0.449 -1.73,-0.637 -2.89,-0.578 -1.17,0.058 -2.18,0.339 -3.05,0.828"
         style="fill:#ffffff;fill-opacity:1;fill-rule:nonzero;stroke:none"
         id="path268" /><path
         d="m 1506.84,538.34 -2.76,-1.602 c -3.05,-1.758 -6.92,-2.527 -11.56,-2.347 -4.66,0.199 -8.75,1.308 -12.27,3.339 l -12.78,7.372 c -3.52,2.039 -5.45,4.398 -5.78,7.089 -0.33,2.68 1.02,4.911 4.07,6.668 0.76,0.442 1.7,0.641 2.87,0.602 1.16,-0.039 2.18,-0.313 3.07,-0.82 l 1.45,-1.789 -1,-1.672 c -1.52,-0.879 -2.21,-1.989 -2.04,-3.328 0.17,-1.352 1.14,-2.532 2.9,-3.551 l 12.77,-7.379 c 1.76,-1.012 3.8,-1.563 6.13,-1.66 2.33,-0.09 4.25,0.289 5.78,1.168 l 2.77,1.601 c 1.53,0.879 2.2,2 2.03,3.34 -0.16,1.34 -1.13,2.52 -2.89,3.539 l -3.19,1.84 -1.48,1.781 1.03,1.649 c 0.76,0.441 1.72,0.648 2.89,0.609 1.16,-0.039 2.19,-0.328 3.09,-0.848 l 3.19,-1.839 c 1.77,-1.024 3.81,-1.571 6.13,-1.661 2.33,-0.101 4.26,0.278 5.79,1.168 l 2.76,1.59 c 1.53,0.883 2.2,2 2.04,3.34 -0.17,1.352 -1.13,2.52 -2.89,3.539 l -12.78,7.371 c -1.75,1.02 -3.8,1.59 -6.13,1.68 -2.33,0.101 -4.25,-0.301 -5.78,-1.18 -0.78,-0.449 -1.75,-0.64 -2.91,-0.59 -1.17,0.063 -2.2,0.352 -3.08,0.86 l -1.44,1.75 1.05,1.672 c 3.05,1.757 6.9,2.539 11.56,2.347 4.65,-0.199 8.74,-1.308 12.27,-3.34 l 12.77,-7.378 c 3.53,-2.028 5.45,-4.391 5.79,-7.079 0.32,-2.671 -1.03,-4.91 -4.08,-6.671 l -2.76,-1.598 c -1.62,-0.934 -3.54,-1.582 -5.76,-1.961 -2.22,-0.379 -4.51,-0.5 -6.88,-0.32 0.29,-1.371 0.11,-2.692 -0.55,-3.969 -0.66,-1.281 -1.79,-2.402 -3.41,-3.332"
         style="fill:#ffffff;fill-opacity:1;fill-rule:nonzero;stroke:none"
         id="path270" /><path
         d="m 1297.88,540.422 -11.19,6.469 -0.84,1.019 0.58,0.981 1.71,0.328 1.78,-0.469 3.73,-2.148 16.14,9.32 1.2,1.93 c -0.1,0.769 -0.65,1.457 -1.64,2.046 l -0.06,0.032 -0.85,1.039 0.59,0.961 1.69,0.359 1.8,-0.488 -0.02,-0.02 0.02,0.02 c 2.06,-1.192 3.19,-2.571 3.39,-4.141 0.19,-1.57 -0.6,-2.871 -2.39,-3.89 l -16.14,-9.329 3.73,-2.152 0.85,-1.039 -0.61,-0.98 -1.69,-0.329 -1.78,0.481"
         style="fill:#ffffff;fill-opacity:1;fill-rule:nonzero;stroke:none"
         id="path272" /><path
         d="m 1331.83,532.012 -7.46,4.297 c -1.02,0.601 -2.22,0.921 -3.58,0.98 -1.36,0.063 -2.48,-0.168 -3.37,-0.687 l -2.42,-1.403 -0.3,-0.48 0.41,-0.52 15.88,-9.16 0.83,-1.039 -0.59,-0.98 -1.69,-0.329 -1.78,0.481 -18.67,10.777 -0.84,1.031 0.6,0.981 4.84,2.789 c 1.78,1.031 4.03,1.488 6.75,1.379 2.72,-0.109 5.1,-0.758 7.16,-1.949 l 7.46,-4.309 c 1.03,-0.59 2.22,-0.922 3.59,-0.98 1.37,-0.059 2.5,0.16 3.39,0.679 l 3.24,1.86 1.18,1.949 c -0.09,0.781 -0.67,1.48 -1.72,2.09 l -7.45,4.301 c -1.03,0.589 -2.22,0.921 -3.59,0.98 -1.35,0.059 -2.48,-0.18 -3.37,-0.691 l -1.69,-0.348 -1.77,0.48 -0.87,1.039 0.6,0.981 c 1.79,1.027 4.03,1.488 6.75,1.379 2.72,-0.121 5.11,-0.77 7.17,-1.949 l 7.45,-4.313 c 2.08,-1.199 3.22,-2.578 3.41,-4.148 0.19,-1.571 -0.6,-2.871 -2.38,-3.899 l -3.23,-1.871 c -1.78,-1.019 -4.03,-1.48 -6.75,-1.371 -2.71,0.109 -5.12,0.77 -7.19,1.973"
         style="fill:#ffffff;fill-opacity:1;fill-rule:nonzero;stroke:none"
         id="path274" /><path
         d="m 1376.57,506.18 -7.46,4.3 c -1.03,0.598 -2.22,0.918 -3.58,0.981 -1.36,0.059 -2.48,-0.172 -3.37,-0.691 l -2.43,-1.399 -0.29,-0.48 0.42,-0.52 15.88,-9.172 0.83,-1.027 -0.6,-0.981 -1.69,-0.339 -1.78,0.488 -18.67,10.781 -0.84,1.027 0.6,0.981 4.84,2.801 c 1.78,1.019 4.03,1.48 6.74,1.371 2.72,-0.11 5.12,-0.762 7.17,-1.949 l 7.46,-4.313 c 1.03,-0.59 2.23,-0.918 3.6,-0.98 1.36,-0.071 2.49,0.16 3.38,0.679 l 3.23,1.864 1.19,1.949 c -0.09,0.777 -0.67,1.48 -1.71,2.078 l -7.47,4.312 c -1.02,0.59 -2.21,0.918 -3.58,0.981 -1.36,0.058 -2.48,-0.18 -3.37,-0.692 l -1.69,-0.351 -1.77,0.48 -0.87,1.039 0.61,0.981 c 1.78,1.031 4.02,1.492 6.74,1.383 2.72,-0.121 5.11,-0.774 7.16,-1.953 l 7.46,-4.309 c 2.08,-1.199 3.22,-2.578 3.41,-4.16 0.2,-1.559 -0.59,-2.86 -2.38,-3.891 l -3.22,-1.867 c -1.79,-1.023 -4.04,-1.48 -6.76,-1.371 -2.71,0.109 -5.11,0.769 -7.19,1.969"
         style="fill:#ffffff;fill-opacity:1;fill-rule:nonzero;stroke:none"
         id="path276" /><path
         d="m 1412.24,483.719 -1.62,-0.93 c -1.78,-1.027 -4.04,-1.488 -6.75,-1.367 -2.72,0.098 -5.1,0.75 -7.16,1.949 l -7.46,4.301 c -2.06,1.187 -3.19,2.566 -3.38,4.137 -0.19,1.57 0.6,2.871 2.38,3.902 l 1.67,0.34 1.8,-0.481 0.84,-1.039 -0.58,-0.98 -1.19,-1.949 c 0.1,-0.782 0.66,-1.473 1.69,-2.063 l 7.45,-4.309 c 1.03,-0.589 2.23,-0.921 3.59,-0.968 1.36,-0.063 2.48,0.168 3.37,0.679 l 1.62,0.93 1.18,1.949 c -0.09,0.789 -0.65,1.481 -1.68,2.071 l -1.86,1.078 -0.87,1.031 0.6,0.969 1.69,0.351 1.8,-0.488 1.87,-1.07 c 1.02,-0.602 2.22,-0.922 3.58,-0.981 1.35,-0.062 2.48,0.168 3.37,0.688 l 1.62,0.929 1.19,1.954 c -0.1,0.777 -0.67,1.468 -1.7,2.07 l -7.45,4.297 c -1.03,0.59 -2.22,0.922 -3.58,0.98 -1.36,0.051 -2.48,-0.179 -3.37,-0.687 l -1.71,-0.34 -1.79,0.488 -0.85,1.031 0.61,0.969 c 1.79,1.031 4.04,1.488 6.75,1.379 2.72,-0.117 5.11,-0.758 7.17,-1.961 l 7.46,-4.297 c 2.06,-1.191 3.19,-2.57 3.38,-4.133 0.19,-1.578 -0.6,-2.867 -2.38,-3.91 l -1.62,-0.929 c -0.94,-0.539 -2.06,-0.918 -3.36,-1.137 -1.3,-0.223 -2.63,-0.293 -4.02,-0.192 l -0.32,-2.32 c -0.38,-0.75 -1.04,-1.398 -1.98,-1.941"
         style="fill:#ffffff;fill-opacity:1;fill-rule:nonzero;stroke:none"
         id="path278" /><path
         d="m 1334.3,514.871 -0.07,0.149 0.67,1.621 32.4,13.461 1.63,-0.672 -0.67,-1.621 -32.41,-13.457 -1.55,0.519"
         style="fill:#ffffff;fill-opacity:1;fill-rule:nonzero;stroke:none"
         id="path280" /><path
         d="m 1722.23,665.398 -108.38,-62.566 c -8.11,-4.684 -21.25,-4.684 -29.36,0 l -132.27,75.367 c -8.11,4.68 -8.11,12.27 0,16.949 l 108.39,62.571 c 8.11,4.679 21.26,4.679 29.37,0 35.86,-20.707 96.39,-54.66 132.25,-75.367 8.11,-4.672 8.11,-12.274 0,-16.954"
         style="fill:#26b6a6;fill-opacity:1;fill-rule:nonzero;stroke:none"
         id="path282" /><g
         id="g284"><g
           id="g286"
           clip-path="url(#clipPath290)"><path
             d="m 1599.17,599.32 c -5.32,0 -10.63,1.168 -14.68,3.512 l -132.27,75.367 c -4.05,2.34 -6.08,5.403 -6.08,8.473 0,3.066 2.03,6.137 6.08,8.476 l 108.39,62.571 c 4.05,2.34 9.37,3.511 14.68,3.511 5.32,0 10.63,-1.171 14.69,-3.511 35.86,-20.707 96.39,-54.66 132.25,-75.367 4.05,-2.332 6.08,-5.403 6.08,-8.473 0,-3.07 -2.03,-6.141 -6.08,-8.481 l -108.38,-62.566 c -4.05,-2.344 -9.37,-3.512 -14.68,-3.512"
             style="fill:#bee9e1;fill-opacity:1;fill-rule:nonzero;stroke:none"
             id="path292" /><path
             d="m 1718.17,633.16 9.96,1.91 -216.73,124.129 -9.96,-1.91 216.73,-124.129"
             style="fill:#26b6a6;fill-opacity:1;fill-rule:nonzero;stroke:none"
             id="path294" /><path
             d="m 1580.3,650.91 9.96,-1.922 55.21,31.883 -9.96,1.918 -55.21,-31.879"
             style="fill:#26b6a6;fill-opacity:1;fill-rule:nonzero;stroke:none"
             id="path296" /><path
             d="m 1528.73,679.531 9.96,-1.922 55.13,31.821 -9.96,1.922 -55.13,-31.821"
             style="fill:#26b6a6;fill-opacity:1;fill-rule:nonzero;stroke:none"
             id="path298" /><path
             d="m 1662.84,601.211 9.96,1.918 -216.72,124.133 -9.96,-1.922 216.72,-124.129"
             style="fill:#26b6a6;fill-opacity:1;fill-rule:nonzero;stroke:none"
             id="path300" /></g></g><path
         d="m 1030.72,678.969 -517.853,298.98 c -8.996,5.199 -23.597,5.199 -32.597,0 l -2.262,-1.308 C 469.004,971.449 469.004,963.02 478,957.82 L 995.863,658.84 c 8.997,-5.199 23.597,-5.199 32.587,0 l 2.28,1.308 c 8.99,5.204 8.99,13.622 -0.01,18.821"
         style="fill:#33535f;fill-opacity:1;fill-rule:nonzero;stroke:none"
         id="path302" /><path
         d="m 982.613,1252.77 c 1.008,0.41 2.016,0.59 3.016,0.52 1.023,-0.09 1.859,-0.32 2.523,-0.71 l 8.172,-4.71 1.211,-1.58 -1.191,-1.56 c -2.977,-1.48 -6.43,-2.68 -10.356,-3.59 -3.945,-0.91 -8.226,-1.31 -12.875,-1.19 -4.625,0.11 -9.504,0.83 -14.621,2.15 -5.101,1.32 -10.277,3.5 -15.531,6.52 -4.648,2.68 -8.063,5.45 -10.238,8.3 -2.203,2.86 -3.301,5.71 -3.34,8.57 -0.039,2.85 0.965,5.67 3.039,8.45 2.023,2.78 4.945,5.41 8.719,7.9 2.406,1.54 5.175,3.21 8.265,5.01 3.094,1.78 5.996,3.37 8.688,4.77 4.304,2.17 8.855,3.85 13.672,5.04 4.8,1.18 9.691,1.76 14.625,1.74 4.945,-0.02 9.875,-0.65 14.849,-1.92 4.92,-1.26 9.72,-3.24 14.35,-5.92 5.25,-3.02 9.03,-6.01 11.3,-8.97 2.3,-2.95 3.55,-5.76 3.74,-8.44 0.21,-2.68 -0.5,-5.17 -2.13,-7.46 -1.61,-2.29 -3.65,-4.27 -6.12,-5.94 -0.76,-0.5 -1.67,-0.74 -2.73,-0.71 -1.08,0.05 -1.99,0.29 -2.73,0.71 l -8.17,4.72 -1.28,1.49 0.88,1.77 c 1.12,0.89 1.97,1.92 2.52,3.09 0.53,1.16 0.67,2.41 0.4,3.74 -0.27,1.31 -1.06,2.72 -2.37,4.21 -1.33,1.49 -3.3,3 -5.92,4.51 -2.62,1.52 -5.304,2.6 -8.058,3.27 -2.75,0.65 -5.461,0.98 -8.137,0.96 -2.652,-0.02 -5.269,-0.37 -7.867,-1.04 -2.582,-0.69 -4.988,-1.59 -7.207,-2.71 -2.695,-1.41 -5.594,-3 -8.664,-4.78 -3.113,-1.79 -5.863,-3.46 -8.289,-5.01 -2.031,-1.33 -3.582,-2.72 -4.742,-4.2 -1.137,-1.47 -1.727,-2.98 -1.762,-4.51 -0.039,-1.53 0.527,-3.11 1.668,-4.69 1.137,-1.6 3.016,-3.15 5.652,-4.67 2.614,-1.5 5.231,-2.64 7.813,-3.4 2.597,-0.76 5.043,-1.23 7.359,-1.4 2.328,-0.17 4.492,-0.1 6.524,0.2 2.003,0.31 3.789,0.81 5.343,1.47"
         style="fill:#26b6a6;fill-opacity:1;fill-rule:nonzero;stroke:none"
         id="path304" /><path
         d="m 1038.31,1239.6 14.62,-8.45 c 3.83,-2.22 7.57,-3.6 11.21,-4.14 3.62,-0.54 7.34,0.27 11.09,2.45 3.78,2.17 5.16,4.29 4.14,6.35 -1.01,2.05 -3.43,4.2 -7.27,6.41 l -14.62,8.44 z m 46.94,9.6 c 8.4,-4.84 12.83,-9.67 13.29,-14.44 0.49,-4.78 -2.75,-9.17 -9.69,-13.17 -4.91,-2.83 -10.22,-4.61 -15.93,-5.29 -5.71,-0.7 -11.61,-0.28 -17.66,1.27 l -10.99,-22.42 -0.82,-0.83 -2.22,-0.51 -2.22,0.52 -8.57,4.95 c -1.35,0.78 -2.03,1.54 -2.03,2.28 l 0.42,1.81 10.29,21.2 -13.42,7.75 -23.51,-13.57 c -0.75,-0.44 -1.66,-0.65 -2.733,-0.65 -1.066,0 -1.973,0.21 -2.715,0.64 l -8.176,4.72 -1.117,1.57 1.117,1.58 65.184,37.63 c 0.74,0.43 1.65,0.64 2.73,0.63 1.06,0.01 1.99,-0.2 2.73,-0.63 l 26.04,-15.04"
         style="fill:#26b6a6;fill-opacity:1;fill-rule:nonzero;stroke:none"
         id="path306" /><path
         d="m 1113.08,1166.13 1.1,-1.56 -1.12,-1.58 -7.14,-4.13 c -0.75,-0.44 -1.65,-0.65 -2.73,-0.65 -1.09,0 -1.98,0.21 -2.72,0.64 l -44.3,25.57 -1.11,1.58 1.11,1.57 65.18,37.65 c 0.74,0.41 1.65,0.63 2.73,0.62 1.06,0.01 1.99,-0.21 2.73,-0.62 l 43.49,-25.12 1.09,-1.58 -1.09,-1.56 -7.17,-4.15 c -0.74,-0.42 -1.65,-0.63 -2.73,-0.63 -1.09,0 -1.99,0.21 -2.73,0.64 l -32.58,18.82 -16.04,-9.27 30.36,-17.53 1.12,-1.58 -1.11,-1.57 -7.17,-4.13 c -0.73,-0.44 -1.65,-0.65 -2.73,-0.65 -1.07,0 -1.99,0.21 -2.73,0.65 l -30.36,17.53 -16.76,-9.67 33.41,-19.29"
         style="fill:#26b6a6;fill-opacity:1;fill-rule:nonzero;stroke:none"
         id="path308" /><path
         d="m 1202.67,1149.24 c 2.01,1.32 3.6,2.72 4.74,4.2 1.14,1.48 1.72,3.01 1.72,4.6 0,1.6 -0.66,3.21 -1.97,4.86 -1.31,1.65 -3.41,3.32 -6.31,4.99 l -13.52,7.81 -45.4,-26.23 14.01,-8.09 c 2.77,-1.6 5.54,-2.76 8.33,-3.47 2.8,-0.73 5.53,-1.08 8.23,-1.08 2.69,0 5.32,0.34 7.92,1.02 2.58,0.68 5.03,1.61 7.32,2.77 5.24,2.73 10.23,5.59 14.93,8.62 z m 11.3,25.64 c 4.99,-2.88 8.64,-5.75 11,-8.62 2.35,-2.89 3.54,-5.72 3.58,-8.54 0.04,-2.82 -1,-5.59 -3.13,-8.33 -2.12,-2.74 -5.15,-5.41 -9.14,-8.01 -4.7,-3.03 -9.67,-5.9 -14.92,-8.63 -4.52,-2.29 -9.14,-4.04 -13.86,-5.26 -4.76,-1.23 -9.54,-1.83 -14.38,-1.83 -4.85,0 -9.73,0.65 -14.64,1.97 -4.91,1.33 -9.78,3.37 -14.64,6.18 l -25.43,14.68 -1.1,1.57 1.1,1.58 65.18,37.63 c 0.74,0.42 1.67,0.63 2.73,0.63 1.08,0 1.99,-0.21 2.73,-0.63 l 24.92,-14.39"
         style="fill:#26b6a6;fill-opacity:1;fill-rule:nonzero;stroke:none"
         id="path310" /><path
         d="m 1189.45,1107.47 -1.1,1.57 1.1,1.58 65.18,37.64 c 0.74,0.42 1.67,0.63 2.73,0.62 1.08,0.01 1.99,-0.2 2.73,-0.62 l 8.17,-4.72 1.1,-1.58 -1.1,-1.57 -65.18,-37.64 c -0.73,-0.42 -1.65,-0.64 -2.73,-0.64 -1.08,0.01 -1.99,0.22 -2.73,0.63 l -8.17,4.73"
         style="fill:#26b6a6;fill-opacity:1;fill-rule:nonzero;stroke:none"
         id="path312" /><path
         d="m 1333.76,1105.72 1.1,-1.57 -1.12,-1.58 -7.17,-4.13 c -0.73,-0.43 -1.63,-0.64 -2.71,-0.64 -1.08,0 -1.99,0.21 -2.73,0.64 l -18.16,10.49 -55.28,-31.93 c -0.74,-0.42 -1.65,-0.63 -2.74,-0.64 -1.08,0.01 -1.98,0.22 -2.73,0.64 l -8.17,4.71 -1.12,1.58 1.14,1.57 55.28,31.94 -18.17,10.49 -1.1,1.56 1.1,1.58 7.17,4.14 c 0.74,0.42 1.65,0.63 2.73,0.62 1.06,0.01 1.99,-0.2 2.73,-0.62 l 49.95,-28.85"
         style="fill:#26b6a6;fill-opacity:1;fill-rule:nonzero;stroke:none"
         id="path314" /><path
         d="m 1362.21,1033.6 c 1,0.42 2.01,0.6 3.01,0.54 1.01,-0.09 1.86,-0.33 2.53,-0.72 l 8.17,-4.71 1.21,-1.57 -1.21,-1.58 c -2.96,-1.47 -6.41,-2.67 -10.34,-3.58 -3.94,-0.91 -8.23,-1.31 -12.87,-1.19 -4.63,0.11 -9.5,0.83 -14.63,2.16 -5.11,1.31 -10.29,3.49 -15.52,6.52 -4.65,2.67 -8.07,5.44 -10.25,8.3 -2.2,2.85 -3.31,5.71 -3.33,8.56 -0.04,2.86 0.96,5.67 3.03,8.46 2.03,2.76 4.95,5.4 8.73,7.89 2.4,1.55 5.17,3.22 8.26,5 3.09,1.78 5.99,3.38 8.69,4.78 4.3,2.17 8.86,3.85 13.67,5.05 4.8,1.17 9.69,1.76 14.62,1.74 4.95,-0.02 9.88,-0.67 14.85,-1.92 4.93,-1.26 9.73,-3.24 14.35,-5.92 5.26,-3.03 9.03,-6.02 11.31,-8.97 2.29,-2.95 3.54,-5.77 3.73,-8.45 0.21,-2.67 -0.51,-5.16 -2.12,-7.45 -1.61,-2.3 -3.66,-4.28 -6.14,-5.95 -0.75,-0.5 -1.65,-0.73 -2.71,-0.7 -1.09,0.05 -2,0.28 -2.74,0.7 l -8.17,4.71 -1.27,1.5 0.87,1.78 c 1.12,0.89 1.97,1.92 2.52,3.08 0.53,1.16 0.67,2.41 0.4,3.74 -0.27,1.31 -1.06,2.73 -2.37,4.22 -1.32,1.48 -3.3,3 -5.91,4.51 -2.62,1.52 -5.32,2.6 -8.07,3.27 -2.74,0.65 -5.47,0.97 -8.13,0.96 -2.66,-0.03 -5.27,-0.38 -7.87,-1.05 -2.58,-0.69 -4.99,-1.58 -7.21,-2.72 -2.69,-1.39 -5.59,-2.99 -8.66,-4.78 -3.11,-1.78 -5.86,-3.45 -8.29,-5 -2.03,-1.32 -3.59,-2.71 -4.74,-4.19 -1.14,-1.48 -1.73,-2.98 -1.77,-4.52 -0.03,-1.53 0.54,-3.1 1.67,-4.68 1.14,-1.6 3.02,-3.15 5.65,-4.67 2.62,-1.51 5.24,-2.65 7.82,-3.41 2.6,-0.76 5.04,-1.22 7.35,-1.4 2.34,-0.18 4.5,-0.1 6.53,0.2 2.01,0.32 3.79,0.8 5.35,1.46"
         style="fill:#26b6a6;fill-opacity:1;fill-rule:nonzero;stroke:none"
         id="path316" /><path
         d="m 1429.79,999.109 17.66,23.021 -39.84,-10.2 z m 38.76,28.791 c 1.09,-0.63 1.6,-1.25 1.56,-1.9 l -1.16,-2.29 -39.04,-51.101 -0.61,-0.468 c -0.74,-0.422 -1.65,-0.641 -2.73,-0.641 -1.06,0 -1.97,0.219 -2.71,0.641 l -7.29,4.187 c -1.32,0.781 -1.99,1.492 -1.97,2.133 l 0.57,1.609 6.87,8.969 -31.9,18.411 -15.53,-3.96 c -0.74,-0.2 -1.67,-0.3 -2.79,-0.32 -1.1,-0.02 -2.33,0.36 -3.68,1.14 l -7.24,4.19 -1.12,1.57 1.12,1.58 0.8,0.34 88.5,22.55 c 1.54,0.42 2.86,0.64 3.98,0.66 1.1,0.03 2.2,-0.27 3.28,-0.89 l 11.09,-6.41"
         style="fill:#26b6a6;fill-opacity:1;fill-rule:nonzero;stroke:none"
         id="path318" /><path
         d="m 1488.22,979.84 14.62,-8.449 c 3.85,-2.211 7.59,-3.59 11.21,-4.141 3.62,-0.551 7.34,0.281 11.09,2.449 3.77,2.18 5.16,4.289 4.15,6.352 -1,2.058 -3.43,4.187 -7.28,6.41 l -14.62,8.449 z m 46.93,9.609 c 8.41,-4.84 12.85,-9.668 13.3,-14.437 0.49,-4.782 -2.75,-9.18 -9.69,-13.18 -4.91,-2.832 -10.2,-4.602 -15.93,-5.293 -5.71,-0.699 -11.61,-0.277 -17.66,1.281 l -11,-22.429 -0.79,-0.821 -2.24,-0.519 -2.22,0.531 -8.57,4.949 c -1.35,0.77 -2.01,1.539 -2.03,2.27 l 0.42,1.801 10.3,21.207 -13.43,7.75 -23.52,-13.571 c -0.73,-0.429 -1.64,-0.648 -2.73,-0.648 -1.06,0 -1.97,0.211 -2.71,0.648 l -8.17,4.723 -1.12,1.559 1.12,1.582 65.17,37.628 c 0.75,0.43 1.66,0.64 2.74,0.64 1.06,0 1.99,-0.21 2.73,-0.64 l 26.03,-15.031"
         style="fill:#26b6a6;fill-opacity:1;fill-rule:nonzero;stroke:none"
         id="path320" /><path
         d="m 1591.42,924.5 c 2.02,1.32 3.59,2.73 4.74,4.199 1.14,1.473 1.71,3 1.71,4.602 0,1.59 -0.65,3.219 -1.97,4.871 -1.31,1.648 -3.42,3.308 -6.3,4.976 l -13.52,7.801 -45.42,-26.211 14.03,-8.09 c 2.76,-1.597 5.55,-2.757 8.33,-3.476 2.79,-0.723 5.54,-1.082 8.23,-1.082 2.69,0 5.33,0.34 7.93,1.031 2.58,0.668 5.02,1.59 7.3,2.75 5.25,2.731 10.22,5.609 14.94,8.629 z m 11.31,25.629 c 4.98,-2.867 8.64,-5.738 10.99,-8.617 2.36,-2.871 3.55,-5.711 3.59,-8.543 0.04,-2.797 -1.02,-5.578 -3.13,-8.328 -2.14,-2.731 -5.18,-5.403 -9.14,-7.993 -4.71,-3.039 -9.69,-5.91 -14.94,-8.636 -4.5,-2.293 -9.15,-4.043 -13.87,-5.274 -4.74,-1.218 -9.52,-1.84 -14.37,-1.84 -4.84,0 -9.73,0.672 -14.64,2 -4.91,1.301 -9.79,3.372 -14.62,6.161 l -25.43,14.691 -1.12,1.559 1.12,1.589 65.18,37.633 c 0.73,0.418 1.65,0.641 2.73,0.629 1.06,0.012 1.99,-0.211 2.73,-0.629 l 24.92,-14.402"
         style="fill:#26b6a6;fill-opacity:1;fill-rule:nonzero;stroke:none"
         id="path322" /><path
         d="m 3756.2,3529.5 c -29.1,-62.59 -78.89,-166.15 -106.16,-223.58 l -106.83,125.75 h -89.74 c 0,0 108.01,-230.27 172.42,-283.79 24.15,-20.07 54.61,-17.68 73.69,4.44 19.08,22.11 43.35,54.95 72.31,99.64 51.04,78.75 73.78,112.78 73.78,112.78 l 64.28,270.12 c -56.34,4.49 -113.36,-18.47 -153.75,-105.36"
         style="fill:#f6879f;fill-opacity:1;fill-rule:nonzero;stroke:none"
         id="path324" /><path
         d="m 3920.32,3635.39 c -34.35,1.34 -71.6,5.59 -104.36,-22.97 -21.53,-18.78 -49.16,-48.41 -71.31,-100.4 -22.15,-51.98 -56.36,-117.87 -56.36,-117.87 0,0 23.89,-37.11 64.06,-66.84 40.17,-29.72 76.84,-32.34 76.84,-32.34 l 91.13,340.42"
         style="fill:#26b6a6;fill-opacity:1;fill-rule:nonzero;stroke:none"
         id="path326" /><path
         d="m 3803.38,3300.77 c -13.91,4.53 -32.08,12.52 -51.03,26.54 -40.17,29.73 -64.06,66.84 -64.06,66.84 0,0 34.21,65.89 56.36,117.87 22.15,51.99 49.78,81.62 71.31,100.4 23.21,20.23 48.66,24 73.75,24 8.85,0 17.66,-0.47 26.3,-0.85 -34.58,-3.42 -49.01,-14.49 -70.95,-42.16 -29.62,-37.34 -35.81,-107.58 -39.18,-187.14 -0.93,-21.91 -1.77,-60.74 -2.5,-105.5"
         style="fill:#0a8372;fill-opacity:1;fill-rule:nonzero;stroke:none"
         id="path328" /><path
         d="m 3650.04,3305.92 c 0,0 25.88,-30.89 32.84,-44.82 0,0 -11.47,42.42 -27.09,56.9 l -5.75,-12.08"
         style="fill:#f47089;fill-opacity:1;fill-rule:nonzero;stroke:none"
         id="path330" /><path
         d="m 3426.45,3598.85 -0.17,-0.04 8.51,8.93 0.02,-0.11 c 1.94,1.89 5.14,2.73 9.47,2 l 103.43,-17.57 c 9.59,-1.63 20.66,-10.11 24.72,-18.94 l 92.95,-202.14 c 2.16,-4.68 1.84,-8.48 -0.29,-10.82 l 0.08,-0.02 -8.79,-9.2 -0.01,0.12 c -1.91,-1.95 -5.16,-2.82 -9.54,-2.08 l -103.44,17.56 c -9.59,1.62 -20.66,10.11 -24.71,18.94 -18.26,39.74 -74.71,162.42 -92.96,202.15 -2.28,4.98 -1.79,8.94 0.73,11.22"
         style="fill:#33535f;fill-opacity:1;fill-rule:nonzero;stroke:none"
         id="path332" /><path
         d="m 3656.83,3362.03 -92.95,202.14 c -4.06,8.83 -15.12,17.32 -24.71,18.95 l -103.44,17.56 c -9.59,1.62 -14.07,-4.22 -10.01,-13.05 18.25,-39.73 74.7,-162.41 92.96,-202.14 4.05,-8.84 15.12,-17.33 24.71,-18.95 l 103.44,-17.56 c 9.58,-1.62 14.07,4.22 10,13.05"
         style="fill:#17282f;fill-opacity:1;fill-rule:nonzero;stroke:none"
         id="path334" /><path
         d="m 3550.71,3578.38 c 5.66,-3.63 10.72,-8.9 13.19,-14.24 l 92.97,-202.07 c 2.02,-4.53 1.93,-8.26 0.01,-10.59 l 8.27,8.62 -0.1,0.08 c 2.18,2.36 2.48,6.1 0.34,10.82 l -92.98,202.16 c -2.26,4.98 -6.9,9.82 -12.2,13.48 l -9.5,-8.26"
         style="fill:#273e47;fill-opacity:1;fill-rule:nonzero;stroke:none"
         id="path336" /><path
         d="m 3475.41,3398.92 c -42.79,49.14 -41.6,110.63 -21.94,128.35 l 13.05,-28.39 c 0,0 65.48,-14.56 96.96,-12.15 31.5,2.41 57.24,9.88 65.86,3.81 18.28,-12.88 23.52,-67.75 -28.82,-87.68 -44.52,-16.94 -125.11,-3.94 -125.11,-3.94"
         style="fill:#f6879f;fill-opacity:1;fill-rule:nonzero;stroke:none"
         id="path338" /><path
         d="m 4227.87,1785.4 c -27.64,-14.84 -61.32,-13.64 -94.2,0 l -13.64,179.21 107.85,-14.23 -0.01,-164.98"
         style="fill:#f6879f;fill-opacity:1;fill-rule:nonzero;stroke:none"
         id="path340" /><path
         d="m 3897.2,1892.52 c -23.34,-50.47 -65.48,-36.5 -112.97,-4.17 l 8.34,180.09 h 114.52 l -9.89,-175.92"
         style="fill:#f6879f;fill-opacity:1;fill-rule:nonzero;stroke:none"
         id="path342" /><path
         d="m 4026.06,1615.8 c -3.04,-2.85 -2.13,-22.41 1.23,-27.68 3.6,-5.65 24.26,-23.27 61.61,-25.94 35.71,-2.56 67.58,2.25 88.54,15.56 20.96,13.31 31.1,27.99 33.08,48.32 1.97,20.34 -0.3,39.96 9.4,55.61 8.95,14.45 23.21,30.74 26.32,38.57 6.76,17.05 0.24,41.42 0.24,41.42 L 4026.06,1615.8"
         style="fill:#17282f;fill-opacity:1;fill-rule:nonzero;stroke:none"
         id="path344" /><path
         d="m 4124.01,1793.3 c -0.6,-7.54 -1.87,-15.04 -4.36,-22.61 -5.17,-15.77 -13.04,-30.61 -21.86,-44.73 -4.55,-7.27 -9.34,-14.41 -14.89,-21 -10.79,-12.85 -24.21,-23.4 -35.64,-35.72 -11.43,-12.32 -21.14,-27.27 -22.04,-43.82 -1.52,-28 28.87,-37.51 52.27,-41.68 24.98,-4.45 51.64,-3.11 76.02,3.82 27.13,7.71 46.71,28.73 51.21,55.79 1.29,7.77 0.81,15.72 1.73,23.55 2.1,17.84 11.34,34.15 21.78,48.98 6.05,8.61 12.64,17.01 16.71,26.66 7.29,17.33 1.44,36.84 -3.22,54.1 -4.04,14.9 -8.6,31.78 -13.84,30.37 -0.03,-3.01 0.2,-6.22 -1.24,-8.95 -1.72,-3.25 -3.05,-5.05 -4.13,-8.83 -1.14,-3.94 -2.42,-7.84 -4.25,-11.52 -2.78,-5.62 -6.89,-10.78 -12.42,-13.72 -0.35,10.57 -0.71,21.14 -1.06,31.71 -0.1,3.28 -0.31,6.82 -2.43,9.31 -2.16,2.53 -5.68,3.28 -8.94,3.89 -19.78,3.68 -39.94,7.37 -59.91,4.96 -2.98,-0.36 -6.3,-1.06 -8.03,-3.52 -1.44,-2.02 -1.41,-4.68 -1.34,-7.16 0.31,-10.19 0.66,-20.07 -0.12,-29.88"
         style="fill:#273e47;fill-opacity:1;fill-rule:nonzero;stroke:none"
         id="path346" /><path
         d="m 4094.01,1720.09 c 10.43,7.81 33.79,7.91 46.56,6.55 16,-1.72 28.96,-7.33 36.31,-12.75 3.26,-2.4 7.82,-1.98 10.7,0.85 3.44,3.4 3.13,9.01 -0.8,11.89 -7.79,5.74 -21.9,13.81 -40.85,15.14 -31.44,2.22 -40.66,-3.17 -40.66,-3.17 0,0 -14.33,-9.23 -11.26,-18.51"
         style="fill:#f3f2f1;fill-opacity:1;fill-rule:nonzero;stroke:none"
         id="path348" /><path
         d="m 4070.04,1691.4 c 13.11,7.75 38.81,6.64 51.58,5.27 16,-1.72 27.95,-8.01 35.31,-13.43 3.26,-2.4 7.82,-1.99 10.69,0.84 3.45,3.41 3.13,9.01 -0.79,11.9 -7.8,5.73 -22.78,15.01 -41.73,16.34 -31.44,2.22 -39.63,-4.2 -39.63,-4.2 0,0 -13.27,-5.14 -15.43,-16.72"
         style="fill:#f3f2f1;fill-opacity:1;fill-rule:nonzero;stroke:none"
         id="path350" /><path
         d="m 4158.45,1771.86 c -21.73,2.24 -30.94,-0.19 -39.53,-3.31 -5.53,-3.11 -9.18,-11.86 -5.61,-14.08 6.99,3.89 19.59,5.5 35.03,4.81 10.35,-0.46 23.4,-4.65 33.99,-9.34 2.69,-1.19 5.87,-2.86 8.65,-4.41 3.76,-2.08 8.55,-0.6 10.35,3.22 1.53,3.24 0.4,7.1 -2.73,8.98 -7.6,4.6 -22.61,12.31 -40.15,14.13"
         style="fill:#f3f2f1;fill-opacity:1;fill-rule:nonzero;stroke:none"
         id="path352" /><path
         d="m 3596.63,1777.32 c -2.94,-6.14 -2.09,-17.64 1.4,-24.93 3.47,-7.29 41.56,-28.77 92.93,-25.3 51.37,3.47 86.66,24.16 106.24,37.13 19.58,12.97 39.98,15.39 65.42,16.85 25.44,1.46 58.84,14.14 64.43,26.04 5.57,11.89 -0.84,32.39 -0.84,32.39 l -329.58,-62.18"
         style="fill:#17282f;fill-opacity:1;fill-rule:nonzero;stroke:none"
         id="path354" /><path
         d="m 3803.08,1935.3 c -4.44,1.62 -8.88,3.26 -13.33,4.88 -2.45,0.9 -5.15,1.8 -7.59,0.88 -3.29,-1.23 -4.57,-5.11 -5.45,-8.51 -1.79,-6.94 -2.52,-15.95 -5.61,-22.32 -2.79,-5.78 -9.62,-11.08 -14.41,-15.14 -12.46,-10.54 -26.78,-18.8 -41.12,-26.5 -16.77,-9.02 -33.22,-16.02 -50.54,-23.81 -17.68,-7.95 -41.15,-12.81 -54.97,-22.13 -20.17,-13.59 -22.77,-47.73 0.2,-61.21 19.82,-11.63 71.94,-24.23 126.63,-8.75 29.79,8.44 62.84,40.27 101.95,43.33 24.86,1.94 71.87,8.93 87.88,27.81 5.91,8.37 -1.99,34.92 -8.47,57.83 -7.08,25.01 -9.78,64.13 -18.06,61.93 -0.58,-8.32 -7.78,-13.14 -12.15,-20.11 -3.85,-6.16 -6.02,-13.21 -8.92,-19.87 -2.9,-6.67 -6.81,-13.27 -12.98,-17.11 -6.17,-3.84 -15.07,-4.07 -20.14,1.15 -7.32,7.55 -2.98,20.83 -8.32,29.9 -3.61,6.16 -10.83,9.03 -17.53,11.49 -5.69,2.08 -11.38,4.17 -17.07,6.26"
         style="fill:#273e47;fill-opacity:1;fill-rule:nonzero;stroke:none"
         id="path356" /><path
         d="m 3738.8,1882.11 c 0,0 3.57,9.54 18.36,12.29 11.31,2.1 31.29,-6.23 43.71,-16.46 5.08,-4.19 4.42,-12.15 -1.34,-15.33 -3.43,-1.9 -7.64,-1.4 -10.6,1.18 -8.13,7.08 -26.39,19.96 -50.13,18.32"
         style="fill:#f3f2f1;fill-opacity:1;fill-rule:nonzero;stroke:none"
         id="path358" /><path
         d="m 3703.74,1862.48 c 0,0 7.3,11.42 21.75,11.2 0,0 29.54,-0.85 47.83,-17.89 4.66,-4.35 4.33,-11.75 -1.25,-14.82 -3.32,-1.82 -7.37,-1.34 -10.21,1.18 -8.23,7.36 -24.74,22.82 -58.12,20.33"
         style="fill:#f3f2f1;fill-opacity:1;fill-rule:nonzero;stroke:none"
         id="path360" /><path
         d="m 3665.03,1844.78 c 0,0 8.13,10.34 22.59,10.12 0,0 27.52,-1.03 45.81,-18.07 4.65,-4.35 4.34,-11.75 -1.25,-14.82 -3.32,-1.82 -7.38,-1.34 -10.21,1.18 -8.23,7.36 -23.56,24.08 -56.94,21.59"
         style="fill:#f3f2f1;fill-opacity:1;fill-rule:nonzero;stroke:none"
         id="path362" /><path
         d="m 4214.16,3134.31 c 6.46,-196.09 5.97,-670.48 5.97,-670.48 2.07,-24.4 11.98,-74.49 20.11,-172.15 10.58,-127.02 -12.36,-406.38 -12.36,-406.38 0,0 -46.6,-23.8 -102.36,-0.56 0,0 -61.33,398.18 -80.78,523.82 -17.07,110.39 -50.57,358.34 -50.57,358.34 l -38.63,-322.43 c 0,0 9.24,-76.26 -3.95,-161.11 -8.99,-57.8 -49.03,-295.45 -49.03,-295.45 0,0 -52.81,-16.2 -113.52,4.31 0,0 -3.78,411.7 -4.81,465.23 -1.18,61.03 27.03,725.25 27.03,725.25 l 402.9,-48.39"
         style="fill:#273e47;fill-opacity:1;fill-rule:nonzero;stroke:none"
         id="path364" /><path
         d="m 3994.17,2766.91 -29.01,160.68 c 0,0 -80.39,7.03 -124.79,51.85 0,0 7.91,-43.94 108.97,-70.31 l 28.99,-162.59 -22.79,-302.07 38.63,322.44"
         style="fill:#17282f;fill-opacity:1;fill-rule:nonzero;stroke:none"
         id="path366" /><path
         d="m 3821.15,3484.43 c 8.66,62.79 16.94,147.18 114.27,151.05 l 125.54,-5.98 c 30.92,-8.04 151.16,-22.31 151.16,-22.31 l 2.23,-272.39 c 0,0 7.69,-196.36 5.32,-301.48 -89.92,-57.02 -285.5,-75.5 -408.41,17.76 -3.65,86.78 1.32,371.18 9.89,433.35"
         style="fill:#fafaf9;fill-opacity:1;fill-rule:nonzero;stroke:none"
         id="path368" /><path
         d="m 3837.34,3958.65 c -9.62,-16.97 -15.45,-36.41 -16.12,-57.26 -1.66,-51.08 27.72,-95.93 71.13,-116.53 l -22.65,-15.51 225.83,-20.24 -2.92,-54.36 c 0,0 15.95,3.67 24.08,18.15 8.13,14.49 30.12,103.53 30.12,103.53 21.18,48.61 31.58,98.61 16.39,115.18 -7.25,7.9 -15.59,11.46 -22.46,13.03 l 30.31,15.04 c -5.78,12.68 -20.39,18.05 -32.63,11.98 -2.64,-1.31 -4.89,-3.11 -6.84,-5.15 0.73,3.17 1.34,6.38 1.54,9.67 0.63,9.88 -1.11,20.21 -6.75,28.34 -4.05,5.8 -9.83,10.17 -15.84,13.92 -25.42,15.85 -55.56,21.8 -83.81,31.8 -16.03,5.67 -31.54,12.69 -47.31,19.05 -10.59,4.26 -22.02,8.3 -33.22,6.06 -11.2,-2.23 -21.42,-13.27 -18.55,-24.32 -14.6,11.45 -29.73,14.4 -46.67,7.07 -13.98,-6.05 -24.81,-21.15 -22.78,-36.77 -10.24,2.06 -21.35,1.87 -30.61,-2.97 -9.27,-4.83 -16.16,-15.06 -14.88,-25.44 1.55,-12.51 12.65,-24.66 24.64,-34.27"
         style="fill:#273e47;fill-opacity:1;fill-rule:nonzero;stroke:none"
         id="path370" /><path
         d="m 3996.32,3926.85 c 20.75,2.47 41.37,5.82 62.02,9.08 1.86,0.29 3.99,0.52 5.45,-0.68 0.92,-0.77 1.36,-1.96 1.75,-3.1 13.55,-39.52 13.2,-82.5 23.95,-122.87 0.98,-3.65 3.27,-9.92 7.75,-10.44 8,-0.93 13.45,6.19 16.88,12.37 2.56,4.62 5.12,9.25 7.68,13.88 1.63,2.93 3.55,4.81 5.65,7.13 9.68,8.94 38.34,19.83 51.61,-10.64 13.74,-31.56 -15.13,-71.74 -38.2,-78.17 -39.78,-11.08 -44.87,14.36 -44.87,14.36 l -7.62,-141.92 c -35.16,-36.81 -150.91,-23.99 -127.98,7.92 l 1.51,43.22 c 0,0 -35.85,-4.26 -53.16,-1 -28.81,5.41 -46.29,28.85 -54.05,60.48 -12.48,50.8 -11.13,112.96 -1.32,190.24 1.24,9.8 3.92,18.58 7.09,26.58 40.5,-22.32 89.79,-21.93 135.86,-16.44"
         style="fill:#f6879f;fill-opacity:1;fill-rule:nonzero;stroke:none"
         id="path372" /><path
         d="m 3961.9,3666.98 c 0,0 65.06,10.93 88.05,22.2 15.39,7.55 28.3,21.09 32.25,29.9 0,0 -4.87,-19.04 -18.93,-35.88 -17.22,-20.59 -101.92,-33.41 -101.92,-33.41 l 0.55,17.19"
         style="fill:#f47089;fill-opacity:1;fill-rule:nonzero;stroke:none"
         id="path374" /><path
         d="m 3971.19,3827.22 c -0.25,-7.95 5.75,-14.59 13.41,-14.82 7.66,-0.23 14.08,6.03 14.33,14 0.27,7.96 -5.74,14.59 -13.4,14.82 -7.66,0.23 -14.08,-6.04 -14.34,-14"
         style="fill:#17282f;fill-opacity:1;fill-rule:nonzero;stroke:none"
         id="path376" /><path
         d="m 3990.54,3885 29.09,-12.53 c 3.29,8.32 -0.55,17.88 -8.58,21.34 -8.03,3.46 -17.21,-0.49 -20.51,-8.81"
         style="fill:#17282f;fill-opacity:1;fill-rule:nonzero;stroke:none"
         id="path378" /><path
         d="m 3988.01,3751.68 -45.61,-15.44 c 4.03,-13.06 17.52,-20.19 30.12,-15.93 12.6,4.27 19.53,18.32 15.49,31.37"
         style="fill:#c35363;fill-opacity:1;fill-rule:nonzero;stroke:none"
         id="path380" /><path
         d="m 3972.52,3720.31 c 8.05,2.73 13.75,9.47 15.78,17.38 -2.54,1.13 -5.34,1.8 -8.3,1.8 -11.03,0 -19.94,-8.75 -20.33,-19.67 4.11,-1.01 8.52,-0.97 12.85,0.49"
         style="fill:#f47089;fill-opacity:1;fill-rule:nonzero;stroke:none"
         id="path382" /><path
         d="m 3855.64,3873.3 28.97,11.1 c -2.84,7.92 -11.62,11.86 -19.63,8.8 -8,-3.07 -12.18,-11.98 -9.34,-19.9"
         style="fill:#17282f;fill-opacity:1;fill-rule:nonzero;stroke:none"
         id="path384" /><path
         d="m 3865.81,3827.22 c -0.27,-8.01 5.78,-14.69 13.49,-14.92 7.71,-0.23 14.17,6.08 14.44,14.09 0.25,8.02 -5.78,14.7 -13.5,14.92 -7.71,0.23 -14.18,-6.08 -14.43,-14.09"
         style="fill:#17282f;fill-opacity:1;fill-rule:nonzero;stroke:none"
         id="path386" /><path
         d="m 3933.62,3831.48 -2.09,-76.72 -42.82,12.35 39.91,65 c 1.86,0.19 3.5,-0.08 5,-0.63"
         style="fill:#f47089;fill-opacity:1;fill-rule:nonzero;stroke:none"
         id="path388" /><path
         d="m 3805.88,3406.27 c 3.37,79.56 9.56,149.8 39.18,187.14 29.6,37.34 45.54,44.45 115.77,43.32 l -0.2,-4.8 c -8.16,-0.73 -15.32,-4.72 -19.87,-11.54 -12.88,-19.34 -39.07,-63.24 -54.01,-120 -20.36,-77.31 -23.86,-249.89 -24.92,-342.9 -1.04,-93.01 0,-167.86 0,-167.86 0,0 -46.99,10.97 -61.55,34.51 0,0 2.24,302.57 5.6,382.13"
         style="fill:#26b6a6;fill-opacity:1;fill-rule:nonzero;stroke:none"
         id="path390" /><path
         d="m 3861.83,2989.63 c 0,0 -46.99,10.97 -61.55,34.51 0,0 2.24,302.57 5.6,382.13 3.37,79.56 9.56,149.8 39.18,187.14 27.74,34.99 43.48,43.43 103.14,43.43 4,0 8.21,-0.04 12.63,-0.11 l -0.2,-4.8 c -8.16,-0.73 -15.32,-4.72 -19.87,-11.54 -12.88,-19.34 -39.07,-63.24 -54.01,-120 -20.36,-77.31 -23.86,-249.89 -24.92,-342.9 -0.35,-31.06 -0.46,-60.1 -0.46,-85 0,-49.66 0.46,-82.86 0.46,-82.86"
         style="fill:#06a088;fill-opacity:1;fill-rule:nonzero;stroke:none"
         id="path392" /><path
         d="m 4048.62,3532.91 c 10,42.38 30.69,70.33 39.96,91.93 l 87.8,-12.42 c 32.33,-14.91 74.36,-50.53 71.23,-85.99 l -22.99,-260.63 6.38,-246.74 c -50.15,-77.96 -199.75,-63.57 -199.75,-63.57 0,0 -4.25,111.02 0.56,325.46 2.7,120.2 4.05,197.91 16.81,251.96"
         style="fill:#26b6a6;fill-opacity:1;fill-rule:nonzero;stroke:none"
         id="path394" /><path
         d="m 4058.99,2954.44 c -16.87,0 -27.74,1.05 -27.74,1.05 0,0 -0.39,10.19 -0.8,30.37 -0.45,22.28 -0.93,56.75 -0.93,103.1 0,50.18 0.55,114.3 2.29,191.99 2.7,120.2 4.05,197.91 16.81,251.96 10,42.38 30.69,70.33 39.96,91.93 l 82.51,-11.67 c -4.03,-0.35 -6.36,-0.75 -6.36,-0.75 0,0 -10.82,-28.62 -10.83,-81.54 -0.01,-7.56 0.21,-15.61 0.72,-24.15 0.66,-11.17 2.39,-21.98 4.84,-32.27 -42.2,7.13 -81.64,12.42 -118.12,15.84 -0.3,-2.39 -0.58,-4.85 -0.84,-7.32 37.28,-3.48 77.68,-8.94 120.98,-16.32 13.55,-48.64 41.62,-83.59 41.62,-83.59 l 26.53,-60.44 -5.01,-56.83 6.38,-246.74 c -36.63,-56.94 -126.31,-64.62 -172.01,-64.62"
         style="fill:#06a088;fill-opacity:1;fill-rule:nonzero;stroke:none"
         id="path396" /><path
         d="m 4044.5,3512.02 c 5.78,27.24 8.92,77.84 13.66,88 4.75,10.18 30.89,30.49 31.91,44.12 l 0.46,8.9 c 0,0 10.58,-1.24 21.94,-11.33 8.18,-7.28 32.45,-24.24 32.45,-24.24 0,0 -2.4,-24 -18.21,-46.79 -14.37,-20.71 -34.45,-34.22 -37.55,-29.11 -2.91,4.79 -2.58,12.93 -7.86,24.99 -6.6,15.1 -8.16,21.48 -15.18,6.57 -5.62,-11.95 -21.62,-61.11 -21.62,-61.11"
         style="fill:#273e47;fill-opacity:1;fill-rule:nonzero;stroke:none"
         id="path398" /><path
         d="m 3894.77,3526.87 c -7.13,-22.93 11.67,79.42 23.82,97.42 12.15,18.01 43.21,25.1 43.21,25.1 l -1.33,-22.12 c 0,0 -10.12,-1.23 -19.81,-13.78 -7.82,-10.11 -36.13,-55.22 -45.89,-86.62"
         style="fill:#273e47;fill-opacity:1;fill-rule:nonzero;stroke:none"
         id="path400" /><path
         d="m 4041.34,3490.3 c 59.25,-5.55 126.29,-16.04 200.32,-31.33 l -0.66,-7.38 c -74.16,15.34 -141.26,25.85 -200.5,31.39 0.26,2.47 0.54,4.93 0.84,7.32"
         style="fill:#26b6a6;fill-opacity:1;fill-rule:nonzero;stroke:none"
         id="path402" /><path
         d="m 3812.12,3491.94 c 21.87,2.56 46.75,4.84 74.06,6.16 -0.61,-2.41 -1.2,-4.9 -1.79,-7.47 -26.96,-1.35 -51.57,-3.64 -73.13,-6.2 0.28,2.52 0.55,5.04 0.86,7.51"
         style="fill:#26b6a6;fill-opacity:1;fill-rule:nonzero;stroke:none"
         id="path404" /><path
         d="m 4411.44,3261.1 c -93.81,238.17 -114.38,312.34 -180.51,339.74 -25.47,10.54 -54.55,11.58 -54.55,11.58 -16.25,-29.83 -40.24,-145.22 38.18,-225.36 0,0 56.79,-140.16 85.43,-206.27 -0.94,-66.53 3.91,-122.06 -16.39,-212.08 -2.15,-9.5 -13.67,-25.38 -22.63,-30.32 -23.78,-13.11 -27.74,-27.88 -45.33,-44.79 -13.75,-13.22 -25.77,-16.25 -23.73,-20.65 2.62,-5.65 13.14,-15 30.43,-10.66 8.7,2.18 22.97,11.48 36.83,19.32 2.29,-2.69 -19.9,-38.22 -43.12,-64.1 -34.22,-38.14 -42.54,-65.64 25.95,-68.3 42.91,-1.66 89.22,33.47 118.28,118.96 5.75,16.92 11.72,41.39 17.8,65.13 4.44,10.24 35.77,170.65 42.41,219.63 8.38,62.02 6.18,69.5 -9.05,108.17"
         style="fill:#f6879f;fill-opacity:1;fill-rule:nonzero;stroke:none"
         id="path406" /><path
         d="m 4164.73,3612.42 c 0,0 45.91,7.77 83.05,-14.61 37.13,-22.36 49.95,-41.96 94.71,-146.22 44.74,-104.25 53.52,-124.28 53.52,-124.28 0,0 -20.19,-59.36 -139.38,-66.21 l -53.53,121.97 c 0,0 -44.45,55.35 -48.48,123.66 -4.03,68.31 10.11,105.69 10.11,105.69"
         style="fill:#26b6a6;fill-opacity:1;fill-rule:nonzero;stroke:none"
         id="path408" /><path
         d="m 4256.63,3261.1 -27,61.53 -26.53,60.44 c 0,0 -28.07,34.95 -41.62,83.59 -3.5,12.56 -6.04,26.04 -6.86,40.07 -0.51,8.54 -0.73,16.59 -0.72,24.15 0.01,52.92 10.83,81.54 10.83,81.54 0,0 7.71,1.31 19.36,1.31 16.79,0 41.77,-2.71 63.69,-15.92 37.13,-22.36 49.95,-41.96 94.71,-146.22 44.74,-104.25 53.52,-124.28 53.52,-124.28 0,0 -1.51,-4.45 -6.16,-11.05 -11.87,-16.88 -44.19,-47.82 -123.95,-54.5 -3.02,-0.26 -6.11,-0.47 -9.27,-0.66"
         style="fill:#0a8372;fill-opacity:1;fill-rule:nonzero;stroke:none"
         id="path410" /></g></g></svg>
