<?xml version="1.0" encoding="UTF-8" standalone="no"?>
<svg
   xmlns:dc="http://purl.org/dc/elements/1.1/"
   xmlns:cc="http://creativecommons.org/ns#"
   xmlns:rdf="http://www.w3.org/1999/02/22-rdf-syntax-ns#"
   xmlns:svg="http://www.w3.org/2000/svg"
   xmlns="http://www.w3.org/2000/svg"
   xmlns:sodipodi="http://sodipodi.sourceforge.net/DTD/sodipodi-0.dtd"
   xmlns:inkscape="http://www.inkscape.org/namespaces/inkscape"
   version="1.1"
   id="svg2"
   xml:space="preserve"
   width="620.4267"
   height="597.46667"
   viewBox="0 0 620.4267 597.46667"
   sodipodi:docname="4706263.eps"><metadata
     id="metadata8"><rdf:RDF><cc:Work
         rdf:about=""><dc:format>image/svg+xml</dc:format><dc:type
           rdf:resource="http://purl.org/dc/dcmitype/StillImage" /></cc:Work></rdf:RDF></metadata><defs
     id="defs6"><clipPath
       clipPathUnits="userSpaceOnUse"
       id="clipPath168"><path
         d="m 1958.38,3379.42 c -24.04,0 -46.11,19.23 -46.11,46.1 l 119.4,68.96 v -21.62 c 0,-35.97 -19.19,-69.21 -50.33,-87.2 -7.42,-4.29 -15.29,-6.24 -22.96,-6.24"
         id="path166" /></clipPath></defs><sodipodi:namedview
     pagecolor="#ffffff"
     bordercolor="#666666"
     borderopacity="1"
     objecttolerance="10"
     gridtolerance="10"
     guidetolerance="10"
     inkscape:pageopacity="0"
     inkscape:pageshadow="2"
     inkscape:window-width="640"
     inkscape:window-height="480"
     id="namedview4" /><g
     id="g10"
     inkscape:groupmode="layer"
     inkscape:label="ink_ext_XXXXXX"
     transform="matrix(1.3333333,0,0,-1.3333333,0,597.46667)"><g
       id="g12"
       transform="scale(0.1)"><path
         d="M 3951.07,2291.72 C 3043.04,2815.97 1575.65,2815.97 673.523,2291.71 -228.656,1767.42 -223.867,917.449 684.152,393.199 1592.23,-131.07 3059.63,-131.07 3961.81,393.219 4863.93,917.469 4859.14,1767.44 3951.07,2291.72"
         style="fill:#f3f2f1;fill-opacity:1;fill-rule:nonzero;stroke:none"
         id="path14" /><path
         d="m 4278.97,1369.56 c 66.98,38.67 175.22,38.67 241.77,0 66.55,-38.67 66.2,-101.37 -0.79,-140.04 -66.98,-38.67 -175.22,-38.67 -241.77,0 -66.55,38.67 -66.19,101.37 0.79,140.04"
         style="fill:#dadbd8;fill-opacity:1;fill-rule:nonzero;stroke:none"
         id="path16" /><path
         d="m 2374.09,1313.34 -123.91,168.43 c -25.28,34.37 -64.3,56.02 -106.86,59.29 l -182.62,14.05 -290.24,176.34 108.48,62.65 c 6.54,3.77 6.51,13.22 -0.06,16.95 l -45.13,25.67 c -18.11,10.29 -40.31,10.21 -58.34,-0.22 L 612.199,1221.86 c -6.508,-3.76 -6.508,-13.17 0.008,-16.93 l 43.992,-25.4 c 18.145,-10.48 40.504,-10.47 58.653,0.01 l 461.598,266.59 286.15,-164.17 37.42,-105.21 c 23.56,-66.24 86.26,-110.49 156.56,-110.49 h 267.03 l 181.16,-104.6 437.79,254.41 -168.47,97.27"
         style="fill:#dadbd8;fill-opacity:1;fill-rule:nonzero;stroke:none"
         id="path18" /><path
         d="m 4003.11,1468.67 c -289.42,167.09 -757.12,167.09 -1044.65,-0.01 -254.07,-147.65 -282.29,-376.29 -85.84,-542.801 -158.51,9.821 -322.79,-20.379 -443.86,-90.738 -212.49,-123.492 -211.36,-323.68 2.5,-447.172 213.89,-123.488 559.51,-123.48 772,0.012 169.07,98.238 202.74,245.019 101.79,363.109 243.62,-35.23 511.76,2.231 701.49,112.481 287.52,167.099 286,438.009 -3.43,605.119"
         style="fill:#dadbd8;fill-opacity:1;fill-rule:nonzero;stroke:none"
         id="path20" /><path
         d="m 643.719,1007.5 c -76.219,44.01 -199.399,44.01 -275.121,0 -75.735,-44 -75.332,-115.359 0.89,-159.371 76.227,-44 199.403,-44 275.133,0 75.731,44.019 75.324,115.371 -0.902,159.371"
         style="fill:#dadbd8;fill-opacity:1;fill-rule:nonzero;stroke:none"
         id="path22" /><path
         d="m 1385.57,4450.46 53.49,30.54 3.35,-1169.4 -0.14,-0.08 -431.22,-246.22 -0.18,61.25 -3.17,1108.15 377.87,215.76"
         style="fill:#ededeb;fill-opacity:1;fill-rule:nonzero;stroke:none"
         id="path24" /><path
         d="m 1387.14,3903.35 -1.57,547.11 53.49,30.54 1.57,-547.22 -53.49,-30.43"
         style="fill:#d1d2d0;fill-opacity:1;fill-rule:nonzero;stroke:none"
         id="path26" /><path
         d="m 795.477,4113.54 53.492,30.54 3.351,-1169.4 -0.136,-0.08 -431.223,-246.22 -0.176,61.25 -3.18,1108.15 377.872,215.76"
         style="fill:#ededeb;fill-opacity:1;fill-rule:nonzero;stroke:none"
         id="path28" /><path
         d="m 797.043,3567.63 -1.566,545.91 53.492,30.54 1.566,-546.02 -53.492,-30.43"
         style="fill:#d1d2d0;fill-opacity:1;fill-rule:nonzero;stroke:none"
         id="path30" /><path
         d="m 420.961,2728.38 -0.176,61.25 192.145,109.71 v -61.35 L 420.961,2728.38"
         style="fill:#b6b8b6;fill-opacity:1;fill-rule:nonzero;stroke:none"
         id="path32" /><path
         d="m 2632.34,3794.15 c -3.27,3.51 -6.51,7.1 -9.7,10.74 l -2.1,2.45 h -0.01 c -5.24,6.08 -10.37,12.3 -15.35,18.71 l -1.61,2.11 v 0.01 c -3.96,5.15 -7.82,10.38 -11.59,15.72 l -1.68,2.34 c -3.63,5.18 -7.14,10.45 -10.57,15.79 -0.83,1.28 -1.64,2.57 -2.45,3.86 -2.77,4.38 -5.49,8.82 -8.13,13.3 -0.55,0.94 -1.13,1.87 -1.69,2.83 -2.97,5.13 -5.87,10.32 -8.66,15.54 -0.69,1.3 -1.37,2.62 -2.05,3.91 -2.18,4.15 -4.29,8.33 -6.35,12.53 -0.68,1.4 -1.37,2.8 -2.05,4.2 -2.54,5.32 -5,10.66 -7.33,16.04 l -0.99,2.33 c -2.07,4.83 -4.05,9.69 -5.94,14.55 -0.58,1.46 -1.14,2.92 -1.69,4.37 v 0.01 c -2.2,5.78 -4.3,11.58 -6.24,17.4 l -0.45,1.41 -0.01,0.01 c -1.98,5.99 -3.79,11.98 -5.49,17.99 v 0 c -0.32,1.15 -0.67,2.31 -0.99,3.46 -1.9,6.97 -3.6,13.94 -5.12,20.9 v 0 c -0.33,1.52 -0.67,3.05 -0.98,4.57 -0.56,2.73 -1.07,5.43 -1.56,8.15 -0.32,1.74 -0.64,3.48 -0.93,5.21 l -0.09,0.49 c -0.47,2.82 -0.87,5.63 -1.27,8.43 -0.23,1.67 -0.49,3.35 -0.7,5.01 -0.76,6.01 -1.34,11.99 -1.76,17.93 -0.09,1.26 -0.16,2.53 -0.23,3.79 -0.36,6.1 -0.6,12.16 -0.58,18.15 0.01,4.13 0.12,8.18 0.3,12.16 0.08,1.52 0.23,2.96 0.32,4.45 0.16,2.43 0.3,4.89 0.52,7.26 0.15,1.53 0.37,2.99 0.54,4.5 0.26,2.25 0.5,4.53 0.82,6.72 0.23,1.59 0.54,3.11 0.8,4.67 0.35,2.03 0.66,4.1 1.05,6.07 0.33,1.58 0.72,3.1 1.07,4.65 0.43,1.87 0.82,3.78 1.29,5.6 0.41,1.55 0.88,3.01 1.31,4.53 0.5,1.74 0.97,3.52 1.53,5.22 0.48,1.5 1.03,2.91 1.54,4.37 0.59,1.63 1.14,3.29 1.75,4.88 0.56,1.42 1.18,2.76 1.78,4.14 0.65,1.53 1.28,3.11 1.98,4.59 0.63,1.34 1.31,2.59 1.96,3.88 0.75,1.46 1.46,2.93 2.23,4.34 0.69,1.24 1.45,2.41 2.16,3.62 0.82,1.35 1.61,2.75 2.46,4.07 0.76,1.16 1.58,2.25 2.37,3.39 0.89,1.25 1.74,2.54 2.67,3.75 0.83,1.09 1.72,2.11 2.59,3.17 0.94,1.15 1.86,2.33 2.84,3.44 0.91,1.01 1.85,1.94 2.79,2.92 1.01,1.04 1.99,2.13 3.03,3.13 0.97,0.93 2,1.79 3.01,2.69 1.06,0.94 2.1,1.91 3.18,2.8 1.04,0.85 2.13,1.62 3.2,2.43 1.12,0.84 2.22,1.71 3.36,2.51 1.1,0.75 2.24,1.43 3.37,2.14 10.11,6.4 21.31,10.97 33.44,13.56 -22.52,-25.34 -35.73,-63.86 -35.87,-113.46 -0.02,-5.99 0.21,-12.06 0.58,-18.16 0.07,-1.26 0.14,-2.52 0.23,-3.78 0.42,-5.94 1,-11.92 1.76,-17.93 0.21,-1.67 0.47,-3.35 0.7,-5.03 0.39,-2.8 0.8,-5.6 1.27,-8.41 0.31,-1.89 0.66,-3.79 1.02,-5.69 0.48,-2.72 1,-5.44 1.56,-8.17 0.31,-1.52 0.64,-3.04 0.98,-4.57 1.51,-6.95 3.21,-13.92 5.12,-20.89 0.31,-1.16 0.67,-2.32 0.99,-3.49 1.7,-5.99 3.51,-11.98 5.49,-17.96 l 0.45,-1.43 c 1.94,-5.81 4.05,-11.61 6.24,-17.39 0.55,-1.46 1.12,-2.92 1.69,-4.38 1.9,-4.87 3.88,-9.73 5.95,-14.56 l 0.98,-2.32 c 2.34,-5.38 4.8,-10.73 7.34,-16.05 0.68,-1.4 1.36,-2.79 2.04,-4.18 2.07,-4.22 4.19,-8.41 6.38,-12.58 0.68,-1.29 1.34,-2.57 2.02,-3.85 2.8,-5.23 5.69,-10.42 8.66,-15.55 0.56,-0.96 1.15,-1.91 1.7,-2.86 2.65,-4.48 5.36,-8.91 8.14,-13.3 0.8,-1.28 1.6,-2.56 2.42,-3.83 3.44,-5.34 6.96,-10.62 10.59,-15.81 l 1.66,-2.32 c 3.78,-5.34 7.65,-10.6 11.62,-15.76 l 1.59,-2.08 c 4.98,-6.41 10.12,-12.64 15.37,-18.72 l 2.09,-2.44 c 3.21,-3.68 6.48,-7.29 9.79,-10.84 l 0.57,-0.64 c 3.51,-3.73 7.08,-7.37 10.69,-10.94 l 2.29,-2.22 c 4.68,-4.58 9.43,-9.02 14.27,-13.3 l 1.33,-1.2 c 5,-4.4 10.09,-8.57 15.24,-12.62 0.99,-0.78 1.96,-1.55 2.95,-2.31 5.07,-3.9 10.19,-7.63 15.38,-11.18 0.93,-0.63 1.86,-1.23 2.78,-1.84 5.44,-3.63 10.92,-7.12 16.48,-10.32 4.45,-2.57 8.86,-4.91 13.24,-7.13 1.27,-0.64 2.53,-1.24 3.79,-1.85 3.34,-1.61 6.66,-3.13 9.95,-4.54 1.17,-0.51 2.35,-1.04 3.53,-1.52 3.09,-1.26 6.17,-2.42 9.21,-3.51 l 2.31,-0.85 c 3.8,-1.3 7.56,-2.45 11.28,-3.48 2.2,-0.6 4.37,-1.12 6.55,-1.63 1,-0.23 2.01,-0.51 3,-0.73 3.18,-0.68 6.34,-1.27 9.45,-1.76 4.76,-0.72 9.4,-1.14 13.98,-1.39 0.93,-0.06 1.86,-0.12 2.78,-0.15 4.11,-0.15 8.15,-0.14 12.11,0.09 l 2.05,0.19 c 3.2,0.24 6.36,0.61 9.45,1.1 0.97,0.15 1.94,0.3 2.89,0.48 1.04,0.19 2.02,0.48 3.04,0.7 -7.63,-8.61 -16.31,-15.71 -25.93,-21.19 l -0.08,-0.05 -1.07,-0.55 -0.62,-0.31 c -2.52,-1.37 -5.09,-2.62 -7.73,-3.77 l -0.16,-0.08 c -0.89,-0.39 -1.79,-0.76 -2.7,-1.12 -2.74,-1.11 -5.55,-2.09 -8.41,-2.97 l -1.56,-0.51 c -3.31,-0.94 -6.71,-1.7 -10.17,-2.35 l -0.21,-0.04 -2.71,-0.43 c -3.03,-0.48 -6.12,-0.84 -9.25,-1.09 l -2.43,-0.2 c -3.89,-0.22 -7.86,-0.24 -11.9,-0.09 h -0.18 l -2.57,0.15 h -0.03 c -2.2,0.12 -4.42,0.28 -6.64,0.5 -2.5,0.26 -5,0.54 -7.54,0.94 -1.6,0.25 -3.23,0.59 -4.85,0.89 -1.53,0.29 -3.04,0.54 -4.6,0.87 -0.92,0.21 -1.86,0.46 -2.8,0.68 l -0.83,0.21 c -1.95,0.46 -3.9,0.92 -5.86,1.47 -3.68,1.01 -7.39,2.14 -11.14,3.43 l -2.3,0.85 c -3.05,1.09 -6.12,2.25 -9.22,3.51 l -0.1,0.04 c -1.12,0.46 -2.26,0.98 -3.38,1.46 l -0.04,0.02 c -3.3,1.41 -6.62,2.93 -9.96,4.55 l -2.19,1.07 -1.61,0.79 c -4.37,2.21 -8.78,4.54 -13.23,7.1 -5.55,3.21 -11.04,6.7 -16.48,10.33 l -0.74,0.49 -2.03,1.36 c -5.2,3.54 -10.32,7.27 -15.39,11.18 l -1.92,1.5 -1.02,0.8 c -5.15,4.05 -10.24,8.23 -15.25,12.62 l -0.82,0.74 -0.52,0.47 c -4.83,4.27 -9.56,8.71 -14.25,13.28 l -2.31,2.24 c -3.6,3.56 -7.16,7.2 -10.66,10.93 l -0.67,0.73"
         style="fill:#e7e8e5;fill-opacity:1;fill-rule:nonzero;stroke:none"
         id="path34" /><path
         d="m 2884.9,3908.2 -0.04,-12.85 36.28,-20.95 0.03,12.86 -36.27,20.94"
         style="fill:#ffffff;fill-opacity:1;fill-rule:nonzero;stroke:none"
         id="path36" /><path
         d="m 2591.36,4179.43 -5.6,-7.85 31.4,-39.04 5.6,7.91 -31.4,38.98"
         style="fill:#ffffff;fill-opacity:1;fill-rule:nonzero;stroke:none"
         id="path38" /><path
         d="m 2748.93,4185.59 -11.13,6.43 -0.12,-41.74 11.13,-6.43 0.12,41.74 m -12.3,-403.55 11.14,-6.43 0.11,41.74 -11.13,6.43 -0.12,-41.74 m 184.54,105.22 -36.27,20.94 -0.04,-12.85 36.28,-20.95 0.03,12.86 m -320.5,172.17 0.04,12.85 -36.33,20.98 -0.04,-12.86 36.33,-20.97 m 57.2,-207.61 18.27,25.66 -9.61,11.96 -18.27,-25.65 9.61,-11.97 m 1.03,361.44 -9.65,-0.84 18.06,-46.63 9.65,0.83 -18.06,46.64 m 209.93,-226.03 31.52,2.72 -5.53,14.28 -31.53,-2.65 5.54,-14.35 m -277.47,192.2 -5.6,-7.85 31.4,-39.04 5.6,7.91 -31.4,38.98 m 302.84,-391.29 5.61,7.91 -31.41,39.04 -5.59,-7.92 31.39,-39.03 m -303.45,175.2 31.52,2.71 -5.54,14.34 -31.52,-2.71 5.54,-14.34 m 235.86,-208.94 9.7,0.81 -18.05,46.63 -9.71,-0.8 18.06,-46.64 m -7.57,323.78 18.26,25.67 -9.66,11.99 -18.27,-25.66 9.67,-12 m -170.72,-86.92 c 0.89,-2.94 2.95,-5.57 5.11,-6.82 l 2.21,-0.75 88.8,-6.96 c 1.37,-0.29 2.61,0.13 3.3,1.31 l 58.12,98.45 c 1.37,2.39 0.28,6.89 -2.48,10.1 -0.8,0.91 -1.64,1.61 -2.47,2.09 -2.04,1.18 -4.01,1.02 -5.02,-0.66 l -57.16,-96.93 -87.48,6.9 c -2.81,0.19 -4.13,-2.81 -2.93,-6.73 m 303.54,-128.19 c -0.37,-132.66 -94.31,-186.13 -209.76,-119.48 -115.46,66.66 -208.78,228.24 -208.4,360.91 0.38,132.71 94.31,186.19 209.76,119.54 115.46,-66.66 208.78,-228.24 208.4,-360.97"
         style="fill:#dadbd8;fill-opacity:1;fill-rule:nonzero;stroke:none"
         id="path40" /><path
         d="m 2737.8,4192.02 -0.12,-41.74 11.13,-6.43 0.12,41.74 -11.13,6.43"
         style="fill:#ffffff;fill-opacity:1;fill-rule:nonzero;stroke:none"
         id="path42" /><path
         d="m 2827.64,4115.84 -18.27,-25.66 9.67,-12 18.26,25.67 -9.66,11.99"
         style="fill:#ffffff;fill-opacity:1;fill-rule:nonzero;stroke:none"
         id="path44" /><path
         d="m 2894.82,4004.23 -31.53,-2.65 5.54,-14.35 31.52,2.72 -5.53,14.28"
         style="fill:#ffffff;fill-opacity:1;fill-rule:nonzero;stroke:none"
         id="path46" /><path
         d="m 2868.4,3835.09 -5.59,-7.92 31.39,-39.03 5.61,7.91 -31.41,39.04"
         style="fill:#ffffff;fill-opacity:1;fill-rule:nonzero;stroke:none"
         id="path48" /><path
         d="m 2818.26,3801.84 -9.71,-0.8 18.06,-46.64 9.7,0.81 -18.05,46.63"
         style="fill:#ffffff;fill-opacity:1;fill-rule:nonzero;stroke:none"
         id="path50" /><path
         d="m 2736.75,3823.78 -0.12,-41.74 11.14,-6.43 0.11,41.74 -11.13,6.43"
         style="fill:#ffffff;fill-opacity:1;fill-rule:nonzero;stroke:none"
         id="path52" /><path
         d="m 2666.53,3889.44 -18.27,-25.65 9.61,-11.97 18.27,25.66 -9.61,11.96"
         style="fill:#ffffff;fill-opacity:1;fill-rule:nonzero;stroke:none"
         id="path54" /><path
         d="m 2616.73,3980.39 -31.52,-2.71 5.54,-14.34 31.52,2.71 -5.54,14.34"
         style="fill:#ffffff;fill-opacity:1;fill-rule:nonzero;stroke:none"
         id="path56" /><path
         d="m 2564.38,4093.26 -0.04,-12.86 36.33,-20.97 0.04,12.85 -36.33,20.98"
         style="fill:#ffffff;fill-opacity:1;fill-rule:nonzero;stroke:none"
         id="path58" /><path
         d="m 2658.9,4213.26 -9.65,-0.84 18.06,-46.63 9.65,0.83 -18.06,46.64"
         style="fill:#ffffff;fill-opacity:1;fill-rule:nonzero;stroke:none"
         id="path60" /><path
         d="m 2742.83,3990.2 -2.24,0.74 -1.86,0.15 -87.48,6.9 c -2.81,0.19 -4.13,-2.81 -2.93,-6.73 0.89,-2.94 2.95,-5.57 5.11,-6.82 l 2.21,-0.75 88.8,-6.96 0.53,-0.04 c 2.82,-0.24 4.13,2.75 2.93,6.74 -0.91,2.93 -2.95,5.54 -5.07,6.77"
         style="fill:#ffffff;fill-opacity:1;fill-rule:nonzero;stroke:none"
         id="path62" /><path
         d="m 2800.91,4088.68 c -2.04,1.18 -4.01,1.02 -5.02,-0.66 l -57.16,-96.93 1.86,-0.15 2.24,-0.74 c 2.12,-1.23 4.16,-3.84 5.07,-6.77 1.2,-3.99 -0.11,-6.98 -2.93,-6.74 l -0.53,0.04 c 1.37,-0.28 2.61,0.13 3.3,1.31 l 58.12,98.45 c 1.37,2.39 0.28,6.89 -2.48,10.1 -0.8,0.91 -1.64,1.61 -2.47,2.09"
         style="fill:#f3f2f1;fill-opacity:1;fill-rule:nonzero;stroke:none"
         id="path64" /><path
         d="m 2885.93,3699.53 c 1.12,0.85 2.27,1.66 3.36,2.56 1.2,0.97 2.34,2.04 3.5,3.08 1.07,0.95 2.16,1.86 3.2,2.86 1.13,1.08 2.19,2.25 3.28,3.39 1.01,1.04 2.04,2.06 3.02,3.15 1.05,1.19 2.04,2.47 3.05,3.71 0.94,1.14 1.92,2.25 2.83,3.44 0.97,1.29 1.88,2.66 2.83,4 0.87,1.24 1.77,2.44 2.61,3.73 0.9,1.39 1.74,2.88 2.61,4.33 0.79,1.32 1.62,2.61 2.38,3.97 0.83,1.51 1.59,3.1 2.38,4.66 0.71,1.4 1.46,2.77 2.15,4.22 0.75,1.61 1.43,3.32 2.15,4.99 0.63,1.48 1.31,2.92 1.9,4.44 0.68,1.74 1.28,3.57 1.91,5.35 0.55,1.55 1.15,3.06 1.66,4.65 0.59,1.83 1.1,3.76 1.65,5.65 0.46,1.63 0.97,3.22 1.41,4.89 0.5,1.94 0.92,3.96 1.37,5.95 0.39,1.71 0.82,3.38 1.17,5.13 0.43,2.11 0.76,4.3 1.12,6.46 0.3,1.72 0.64,3.39 0.89,5.14 0.36,2.43 0.62,4.96 0.91,7.45 0.18,1.57 0.4,3.08 0.56,4.68 0.26,2.77 0.43,5.65 0.61,8.51 0.09,1.38 0.23,2.73 0.3,4.14 0.2,4.3 0.31,8.68 0.33,13.14 0.02,6.49 -0.25,13.05 -0.64,19.65 l -0.08,1.25 c -0.45,7.35 -1.12,14.76 -2.07,22.23 l -0.34,2.46 c -0.53,4.01 -1.12,8.05 -1.79,12.09 v 0 c -0.34,2.03 -0.72,4.08 -1.09,6.12 v 0.01 c -0.54,2.95 -1.1,5.9 -1.71,8.85 v 0.02 l -0.31,1.46 c -3.43,16.42 -7.88,32.94 -13.32,49.4 l -0.01,0.04 c -7.11,21.49 -15.87,42.85 -26.01,63.71 l -0.65,1.35 v 0 c -5.73,11.7 -11.87,23.24 -18.43,34.55 h -0.01 c -0.6,1.06 -1.25,2.09 -1.86,3.14 v 0.01 c -2.98,5.03 -6.03,10.02 -9.16,14.96 -0.74,1.17 -1.48,2.35 -2.23,3.52 v 0 c -8.53,13.25 -17.61,26.11 -27.18,38.43 l -0.32,0.43 c -9.41,12.12 -19.29,23.73 -29.56,34.71 h -0.01 l -0.07,0.09 c -3.92,4.19 -7.92,8.28 -11.96,12.28 v 0.01 l -1.94,1.87 c -5.26,5.15 -10.58,10.14 -16.01,14.94 l -0.01,0.01 -0.6,0.54 c -5.66,5 -11.43,9.77 -17.27,14.36 l -0.01,0.01 c -1.06,0.82 -2.1,1.66 -3.16,2.47 v 0.01 c -5.48,4.21 -11.03,8.25 -16.64,12.08 l -0.68,0.45 c -3.55,2.42 -7.14,4.76 -10.74,7.01 -3.12,1.97 -6.24,3.87 -9.39,5.69 -4.81,2.78 -9.58,5.3 -14.31,7.7 h -0.01 l -0.39,0.19 c -14.68,7.38 -28.98,12.99 -42.77,16.79 l -0.15,0.05 c -1.32,0.36 -2.63,0.66 -3.94,0.98 -2.06,0.52 -4.14,1.08 -6.18,1.52 l -0.21,0.05 c -1.45,0.31 -2.87,0.52 -4.3,0.8 -1.92,0.36 -3.84,0.77 -5.73,1.06 l -0.2,0.04 -0.34,0.04 c -1.43,0.21 -2.82,0.34 -4.23,0.51 -2.49,0.32 -4.97,0.59 -7.42,0.78 l -0.56,0.04 -2.28,0.13 c -5.49,0.31 -10.88,0.37 -16.14,0.07 l -0.21,-0.01 -2.22,-0.19 -0.15,-0.02 c -3.4,-0.26 -6.75,-0.65 -10.04,-1.17 h -0.02 l -0.18,-0.03 c -4.76,-0.76 -9.43,-1.73 -13.94,-3.03 l -0.31,-0.06 -0.5,-0.17 -0.85,-0.3 c -3.11,-0.95 -6.16,-2.03 -9.14,-3.22 l -0.19,-0.07 -1.38,-0.59 c -4.17,-1.75 -8.24,-3.68 -12.14,-5.92 l -0.41,-0.22 55.39,32.19 1.24,0.71 1.47,0.71 c 2.71,1.48 5.49,2.84 8.33,4.08 l 1.55,0.76 1.34,0.47 c 3.32,1.34 6.7,2.56 10.18,3.58 l 0.42,0.16 0.08,0.02 c 3.68,1.06 7.45,1.89 11.29,2.6 l 1.32,0.3 1.81,0.22 c 3.35,0.52 6.76,0.93 10.21,1.18 l 1.63,0.2 h 0.59 c 4.28,0.25 8.65,0.27 13.1,0.11 l 1.27,0.01 c 1.41,-0.07 2.85,-0.21 4.26,-0.31 1.02,-0.07 2.01,-0.13 3.03,-0.22 3.04,-0.28 6.09,-0.64 9.18,-1.11 l 0.34,-0.05 h 0.05 c 3.36,-0.52 6.76,-1.16 10.2,-1.89 1.06,-0.24 2.15,-0.54 3.23,-0.79 2.15,-0.5 4.28,-0.98 6.45,-1.57 l 0.64,-0.19 c 4.02,-1.11 8.08,-2.35 12.19,-3.76 l 2.5,-0.93 c 3.3,-1.18 6.62,-2.42 9.97,-3.79 l 1.32,-0.5 2.47,-1.14 c 3.57,-1.53 7.15,-3.16 10.77,-4.91 1.35,-0.66 2.72,-1.31 4.09,-2 4.73,-2.4 9.51,-4.92 14.32,-7.7 6,-3.46 11.93,-7.23 17.81,-11.16 0.99,-0.67 2,-1.31 3,-1.99 5.61,-3.83 11.15,-7.86 16.63,-12.08 1.06,-0.82 2.12,-1.66 3.18,-2.49 5.57,-4.38 11.07,-8.9 16.49,-13.65 l 1.4,-1.27 c 5.22,-4.63 10.37,-9.44 15.45,-14.4 l 1.54,-1.44 0.94,-0.96 c 3.9,-3.86 7.74,-7.79 11.53,-11.83 l 0.57,-0.62 c 3.6,-3.85 7.14,-7.78 10.64,-11.77 l 1.01,-1.12 1.23,-1.5 c 5.68,-6.58 11.24,-13.32 16.63,-20.25 l 0.47,-0.57 1.2,-1.64 c 4.29,-5.57 8.48,-11.25 12.56,-17.03 l 1.28,-1.72 0.57,-0.84 c 3.9,-5.61 7.7,-11.3 11.41,-17.06 l 1.1,-1.63 1.54,-2.53 c 2.99,-4.73 5.91,-9.5 8.75,-14.32 l 1.38,-2.26 0.49,-0.89 c 3.23,-5.54 6.34,-11.15 9.37,-16.79 l 0.75,-1.36 c 0.5,-0.93 0.94,-1.88 1.43,-2.81 2.36,-4.51 4.65,-9.03 6.88,-13.58 0.46,-0.95 0.97,-1.88 1.43,-2.83 l 0.79,-1.73 c 2.75,-5.75 5.42,-11.54 7.96,-17.37 l 0.23,-0.52 0.73,-1.8 c 2.27,-5.28 4.44,-10.59 6.52,-15.91 l 1.04,-2.56 0.78,-2.17 c 2.38,-6.26 4.65,-12.53 6.75,-18.82 l 0.13,-0.35 0.32,-1.09 c 2.15,-6.49 4.12,-13 5.96,-19.51 l 0.75,-2.43 0.33,-1.35 c 2.06,-7.55 3.9,-15.08 5.54,-22.6 l 0.49,-2 c 0.21,-0.98 0.36,-1.96 0.56,-2.95 0.61,-2.95 1.17,-5.9 1.71,-8.85 0.37,-2.05 0.74,-4.1 1.09,-6.15 0.5,-3.05 0.94,-6.09 1.37,-9.12 0.21,-1.43 0.46,-2.87 0.65,-4.29 l 0.11,-1.12 c 0.83,-6.5 1.45,-12.97 1.91,-19.4 0.09,-1.37 0.17,-2.72 0.24,-4.08 0.39,-6.6 0.65,-13.16 0.63,-19.65 -0.2,-71.24 -25.35,-121.37 -65.92,-144.95 l -55.39,-32.19 c 1.2,0.7 2.34,1.5 3.52,2.24 1.18,0.76 2.39,1.46 3.54,2.26 1.27,0.88 2.49,1.85 3.73,2.78"
         style="fill:#e7e8e5;fill-opacity:1;fill-rule:nonzero;stroke:none"
         id="path66" /><path
         d="m 2633.01,3793.42 -0.67,0.73 c -3.27,3.51 -6.51,7.1 -9.7,10.74 l -2.1,2.45 c -5.25,6.08 -10.38,12.3 -15.36,18.71 l -1.61,2.11 c -3.96,5.16 -7.82,10.39 -11.59,15.73 l -1.68,2.34 c -3.63,5.18 -7.14,10.45 -10.57,15.79 -0.83,1.28 -1.64,2.57 -2.45,3.86 -2.77,4.38 -5.49,8.82 -8.13,13.3 -0.55,0.94 -1.13,1.87 -1.69,2.83 -2.97,5.13 -5.87,10.31 -8.66,15.54 -0.69,1.3 -1.37,2.62 -2.05,3.91 -2.18,4.15 -4.29,8.33 -6.35,12.53 -0.68,1.4 -1.37,2.8 -2.05,4.2 -2.54,5.32 -5,10.66 -7.33,16.04 l -0.99,2.33 c -2.07,4.83 -4.05,9.69 -5.94,14.55 -0.58,1.46 -1.14,2.92 -1.69,4.37 -2.2,5.79 -4.3,11.59 -6.24,17.41 l -0.45,1.41 c -1.99,6 -3.8,12 -5.5,18 -0.32,1.15 -0.67,2.31 -0.99,3.46 -1.9,6.97 -3.6,13.94 -5.12,20.9 -0.33,1.52 -0.67,3.05 -0.98,4.57 -0.56,2.73 -1.07,5.43 -1.56,8.15 -0.32,1.74 -0.64,3.48 -0.93,5.21 -0.5,2.98 -0.94,5.95 -1.36,8.92 -0.23,1.67 -0.49,3.35 -0.7,5.01 -0.76,6.01 -1.34,11.99 -1.76,17.93 -0.09,1.26 -0.16,2.53 -0.23,3.79 -0.36,6.1 -0.6,12.16 -0.58,18.15 0.01,4.13 0.12,8.18 0.3,12.16 0.08,1.52 0.23,2.96 0.32,4.45 0.16,2.43 0.3,4.89 0.52,7.26 0.15,1.53 0.37,2.99 0.54,4.5 0.26,2.25 0.5,4.53 0.82,6.72 0.23,1.59 0.54,3.11 0.8,4.67 0.35,2.03 0.66,4.1 1.05,6.07 0.33,1.58 0.72,3.1 1.07,4.65 0.43,1.87 0.82,3.78 1.29,5.6 0.41,1.55 0.88,3.01 1.31,4.53 0.5,1.74 0.97,3.52 1.53,5.22 0.48,1.5 1.03,2.91 1.54,4.37 0.59,1.63 1.14,3.29 1.75,4.88 0.56,1.42 1.18,2.76 1.78,4.14 0.65,1.53 1.28,3.11 1.98,4.59 0.63,1.34 1.31,2.59 1.96,3.88 0.75,1.46 1.46,2.93 2.23,4.34 0.69,1.24 1.45,2.41 2.16,3.62 0.82,1.35 1.61,2.75 2.46,4.07 0.76,1.16 1.58,2.25 2.37,3.39 0.89,1.25 1.74,2.54 2.67,3.75 0.83,1.09 1.72,2.11 2.59,3.17 0.94,1.15 1.86,2.33 2.84,3.44 0.91,1.01 1.86,1.94 2.79,2.92 1.01,1.04 1.99,2.13 3.03,3.13 0.97,0.94 2,1.79 3.01,2.69 1.06,0.94 2.1,1.91 3.18,2.8 1.04,0.85 2.13,1.62 3.2,2.43 1.12,0.84 2.22,1.71 3.36,2.51 1.1,0.75 2.24,1.43 3.37,2.14 10.11,6.4 21.31,10.97 33.44,13.56 33.74,7.18 74.55,-0.74 118.5,-26.11 115.45,-66.66 208.77,-228.24 208.39,-360.96 -0.13,-49.49 -13.31,-87.95 -35.75,-113.27 -7.63,-8.61 -16.31,-15.71 -25.93,-21.19 l -0.08,-0.05 -1.07,-0.55 c -2.76,-1.53 -5.61,-2.9 -8.51,-4.16 -0.89,-0.39 -1.79,-0.76 -2.7,-1.12 -2.74,-1.11 -5.54,-2.1 -8.41,-2.97 l -1.56,-0.51 c -3.38,-0.97 -6.85,-1.75 -10.38,-2.39 l -2.71,-0.43 c -3.03,-0.48 -6.12,-0.84 -9.25,-1.09 l -2.43,-0.2 c -3.94,-0.22 -7.97,-0.25 -12.08,-0.09 l -2.57,0.15 c -2.21,0.12 -4.43,0.26 -6.67,0.5 -2.5,0.26 -5,0.54 -7.54,0.94 -1.6,0.25 -3.23,0.59 -4.85,0.89 -1.53,0.29 -3.04,0.54 -4.6,0.87 -1.2,0.26 -2.42,0.59 -3.63,0.89 -1.95,0.46 -3.9,0.92 -5.86,1.47 -7.43,2.05 -15.03,4.67 -22.76,7.83 -1.12,0.46 -2.26,0.98 -3.38,1.46 -4.03,1.73 -8.09,3.6 -12.19,5.64 l -1.61,0.79 c -4.37,2.21 -8.78,4.54 -13.23,7.1 -5.55,3.21 -11.04,6.7 -16.48,10.33 l -0.74,0.49 c -6.54,4.4 -12.99,9.08 -19.34,14.04 l -1.02,0.8 c -5.43,4.27 -10.8,8.71 -16.07,13.36 l -0.52,0.47 c -4.83,4.27 -9.57,8.71 -14.25,13.28 l -2.31,2.24 c -3.6,3.56 -7.16,7.2 -10.66,10.93 z m -143.97,304.76 c -0.4,-143.38 100.47,-318.11 225.3,-390.18 64.65,-37.32 122.99,-39.72 164.32,-13.51 1.18,0.76 2.39,1.46 3.54,2.26 1.27,0.88 2.49,1.85 3.73,2.78 1.12,0.85 2.27,1.66 3.36,2.56 1.2,0.97 2.34,2.04 3.5,3.08 1.07,0.95 2.16,1.86 3.2,2.86 1.13,1.08 2.19,2.25 3.28,3.39 1.01,1.04 2.04,2.06 3.02,3.15 1.05,1.19 2.04,2.47 3.05,3.71 0.94,1.14 1.92,2.25 2.83,3.44 0.97,1.29 1.88,2.66 2.83,4 0.87,1.24 1.77,2.44 2.61,3.73 0.9,1.39 1.74,2.88 2.61,4.33 0.79,1.32 1.62,2.61 2.38,3.97 0.83,1.51 1.59,3.1 2.38,4.66 0.71,1.4 1.46,2.77 2.15,4.22 0.75,1.61 1.43,3.32 2.15,4.99 0.63,1.48 1.31,2.92 1.9,4.44 0.68,1.74 1.28,3.57 1.91,5.35 0.55,1.55 1.15,3.06 1.66,4.65 0.59,1.83 1.1,3.76 1.65,5.65 0.46,1.63 0.97,3.22 1.41,4.89 0.5,1.94 0.92,3.96 1.37,5.95 0.39,1.71 0.82,3.38 1.17,5.13 0.43,2.11 0.76,4.3 1.12,6.46 0.3,1.72 0.64,3.39 0.89,5.14 0.36,2.43 0.62,4.96 0.91,7.45 0.18,1.57 0.4,3.08 0.56,4.68 0.26,2.77 0.43,5.65 0.61,8.51 0.09,1.38 0.23,2.73 0.3,4.14 0.2,4.3 0.31,8.67 0.33,13.14 0.02,6.49 -0.25,13.05 -0.64,19.65 l -0.08,1.25 c -0.45,7.35 -1.12,14.76 -2.07,22.23 l -0.34,2.46 c -0.53,4.01 -1.12,8.05 -1.79,12.09 -0.34,2.03 -0.72,4.08 -1.09,6.13 -0.54,2.95 -1.1,5.9 -1.71,8.85 l -0.31,1.48 c -3.43,16.42 -7.88,32.94 -13.32,49.4 l -0.01,0.04 c -7.11,21.49 -15.87,42.85 -26.01,63.71 l -0.65,1.35 c -5.73,11.7 -11.87,23.24 -18.43,34.55 -0.61,1.05 -1.26,2.09 -1.87,3.15 -2.98,5.03 -6.03,10.02 -9.16,14.96 -0.75,1.17 -1.48,2.36 -2.23,3.52 -8.53,13.25 -17.61,26.11 -27.18,38.43 l -0.32,0.43 c -9.41,12.12 -19.29,23.73 -29.56,34.71 l -0.08,0.09 c -3.92,4.19 -7.92,8.28 -11.96,12.28 l -1.94,1.88 c -5.26,5.15 -10.58,10.14 -16.01,14.94 l -0.61,0.55 c -5.66,5 -11.43,9.77 -17.27,14.36 -1.06,0.83 -2.11,1.67 -3.17,2.49 -5.48,4.21 -11.03,8.25 -16.64,12.08 l -0.68,0.45 c -3.55,2.42 -7.14,4.76 -10.74,7.01 -3.12,1.95 -6.24,3.87 -9.39,5.69 -4.81,2.78 -9.58,5.3 -14.31,7.7 l -0.4,0.19 c -14.68,7.38 -28.98,12.99 -42.77,16.79 -1.37,0.38 -2.72,0.68 -4.09,1.03 -2.06,0.52 -4.14,1.08 -6.18,1.52 -1.51,0.32 -3.01,0.56 -4.51,0.85 -1.92,0.36 -3.84,0.77 -5.73,1.06 -1.61,0.25 -3.18,0.39 -4.77,0.59 -2.49,0.32 -4.97,0.59 -7.42,0.78 -0.95,0.07 -1.9,0.11 -2.84,0.17 -5.49,0.31 -10.88,0.37 -16.14,0.07 l -2.58,-0.22 c -3.4,-0.26 -6.75,-0.65 -10.04,-1.17 l -0.2,-0.03 c -4.76,-0.76 -9.43,-1.73 -13.94,-3.03 l -1.66,-0.53 c -3.11,-0.95 -6.16,-2.03 -9.14,-3.22 l -1.57,-0.66 c -4.17,-1.75 -8.24,-3.68 -12.14,-5.92 -40.81,-23.49 -66.14,-73.71 -66.34,-145.2"
         style="fill:#ffffff;fill-opacity:1;fill-rule:nonzero;stroke:none"
         id="path68" /><path
         d="m 4078.81,3336.37 -0.65,-233.59 -28.31,-16.45 0.75,266.34 28.21,-16.3"
         style="fill:#ededeb;fill-opacity:1;fill-rule:nonzero;stroke:none"
         id="path70" /><path
         d="m 4383.78,2926.32 -0.09,-32.74 -333.84,192.75 28.31,16.45 305.62,-176.46"
         style="fill:#f3f2f1;fill-opacity:1;fill-rule:nonzero;stroke:none"
         id="path72" /><path
         d="m 4049.85,3086.33 0.75,266.34 28.21,-16.3 305.64,-176.45 -0.67,-233.6 -0.09,-32.74 z m -34.33,-19.56 402.28,-232.25 0.97,344.9 -402.27,232.25 -0.98,-344.9"
         style="fill:#dadbd8;fill-opacity:1;fill-rule:nonzero;stroke:none"
         id="path74" /><path
         d="m 4016.5,3411.67 28.31,16.45 402.27,-232.25 -28.31,-16.45 -402.27,232.25"
         style="fill:#f3f2f1;fill-opacity:1;fill-rule:nonzero;stroke:none"
         id="path76" /><path
         d="m 4447.08,3195.87 -0.97,-344.9 -28.31,-16.45 0.97,344.9 28.31,16.45"
         style="fill:#ededeb;fill-opacity:1;fill-rule:nonzero;stroke:none"
         id="path78" /><path
         d="m 4175.92,3247.68 -83.35,-65.62 -0.18,-64.12 277.23,-160.06 0.18,64.12 -52.83,104.93 -47.45,-36.83 16.78,-52.11 -24.34,46.27 -86.04,163.42"
         style="fill:#dadbd8;fill-opacity:1;fill-rule:nonzero;stroke:none"
         id="path80" /><path
         d="m 4266.99,3215.37 c -13.05,7.53 -23.67,1.48 -23.72,-13.51 -0.03,-15 10.51,-33.26 23.56,-40.8 13.05,-7.53 23.66,-1.48 23.7,13.51 0.05,15 -10.5,33.26 -23.54,40.8"
         style="fill:#dadbd8;fill-opacity:1;fill-rule:nonzero;stroke:none"
         id="path82" /><path
         d="m 4090.79,3809.72 -0.66,-233.59 -28.31,-16.46 0.75,266.34 28.22,-16.29"
         style="fill:#ededeb;fill-opacity:1;fill-rule:nonzero;stroke:none"
         id="path84" /><path
         d="m 4395.76,3399.66 -0.09,-32.74 -333.85,192.75 28.31,16.46 305.63,-176.47"
         style="fill:#f3f2f1;fill-opacity:1;fill-rule:nonzero;stroke:none"
         id="path86" /><path
         d="m 4061.82,3559.67 0.75,266.34 28.22,-16.29 305.64,-176.46 -0.67,-233.6 -0.09,-32.74 z m -34.32,-19.56 402.27,-232.25 0.98,344.9 -402.27,232.25 -0.98,-344.9"
         style="fill:#dadbd8;fill-opacity:1;fill-rule:nonzero;stroke:none"
         id="path88" /><path
         d="m 4028.48,3885.01 28.31,16.45 402.27,-232.25 -28.31,-16.45 -402.27,232.25"
         style="fill:#f3f2f1;fill-opacity:1;fill-rule:nonzero;stroke:none"
         id="path90" /><path
         d="m 4459.06,3669.21 -0.98,-344.9 -28.31,-16.45 0.98,344.9 28.31,16.45"
         style="fill:#ededeb;fill-opacity:1;fill-rule:nonzero;stroke:none"
         id="path92" /><path
         d="m 4187.9,3721.02 -83.35,-65.63 -0.18,-64.11 277.22,-160.05 0.19,64.11 -52.83,104.93 -47.44,-36.83 16.76,-52.11 -24.34,46.27 -86.03,163.42"
         style="fill:#dadbd8;fill-opacity:1;fill-rule:nonzero;stroke:none"
         id="path94" /><path
         d="m 4278.96,3688.71 c -13.05,7.53 -23.66,1.48 -23.7,-13.51 -0.04,-14.99 10.5,-33.26 23.55,-40.79 13.05,-7.53 23.66,-1.48 23.7,13.5 0.04,15 -10.5,33.27 -23.55,40.8"
         style="fill:#dadbd8;fill-opacity:1;fill-rule:nonzero;stroke:none"
         id="path96" /><path
         d="m 3242.87,4078.75 598.7,-346.25 c 10.58,-6.07 19,-14.86 24.78,-25.13 5.51,-9.79 8.64,-20.94 8.64,-32.57 v -602.03 c 0,-44.65 -50.55,-82.63 -100.48,-54.1 l -250.43,148.41 -5.36,-8.68 -0.87,-0.78 0.04,-0.12 -0.65,-0.42 -0.17,-0.11 c -9.74,-6.45 -26.89,-15.65 -30.74,-17.63 l 0.09,0.25 c -1.77,-0.51 -3.82,0.22 -4.53,2.23 l -21.81,61.83 h 0.01 l -284.22,160.45 c -20.73,11.85 -33.52,33.89 -33.52,57.77 v 602.79 c 0,48 70.66,71.22 100.52,54.09"
         style="fill:#ad58b2;fill-opacity:1;fill-rule:nonzero;stroke:none"
         id="path98" /><path
         d="m 3486.33,3139.34 0.09,0.25 2.15,1.51 21.11,34.21 14.4,-8.23 -5.36,-8.68 -0.87,-0.78 0.04,-0.12 -0.65,-0.42 -0.17,-0.11 c -9.74,-6.45 -26.89,-15.65 -30.74,-17.63 m 23.35,35.97 -4.18,2.38 4.18,-2.38"
         style="fill:#c171bf;fill-opacity:1;fill-rule:nonzero;stroke:none"
         id="path100" /><path
         d="m 3800.19,3669.78 c -4.33,8.55 -10.28,16.23 -17.81,22.32 l -0.05,0.04 c -2.51,2.02 -5.21,3.88 -8.07,5.52 l -598.7,346.24 c -3.56,2.04 -7.33,2.98 -11,2.98 -11.59,0 -22.21,-9.27 -22.21,-22.22 0,37.35 42.8,59.7 75.85,59.7 9.42,0 18.05,-1.82 24.67,-5.61 l 598.7,-346.25 c 10.58,-6.07 19,-14.86 24.78,-25.13 l -66.16,-37.59"
         style="fill:#d58dcc;fill-opacity:1;fill-rule:nonzero;stroke:none"
         id="path102" /><path
         d="m 3809.93,3008.8 c -11.37,-0.01 -23.41,3.01 -35.42,9.87 3.54,-2.03 7.3,-2.95 10.96,-2.95 11.59,0 22.21,9.27 22.21,22.2 v 602.04 c 0,2.65 -0.18,5.27 -0.53,7.86 -1.02,7.73 -3.5,15.11 -6.96,21.96 l 66.16,37.59 c 5.51,-9.79 8.64,-20.94 8.64,-32.57 v -602.03 c 0,-33.91 -29.16,-63.97 -65.06,-63.97"
         style="fill:#c171bf;fill-opacity:1;fill-rule:nonzero;stroke:none"
         id="path104" /><path
         d="m 3530.71,3301.92 c -8.63,4.98 -15.65,0.98 -15.68,-8.92 -0.02,-9.9 6.96,-21.98 15.57,-26.96 8.62,-4.98 15.63,-0.98 15.66,8.93 0.03,9.9 -6.94,21.98 -15.55,26.95 m -150.13,86.68 c -8.62,4.97 -15.65,0.98 -15.66,-8.93 -0.03,-9.9 6.94,-21.98 15.55,-26.96 8.67,-5 15.65,-0.97 15.68,8.93 0.01,9.9 -6.91,21.96 -15.57,26.96 m -30.28,138.54 0.53,190.77 c 0.03,8.89 -6.21,19.63 -13.89,24.08 -7.7,4.44 -13.98,0.91 -14,-7.98 l -0.54,-190.76 c -0.02,-8.84 6.21,-19.64 13.9,-24.08 7.7,-4.44 13.97,-0.87 14,7.97 m 60.27,-34.8 0.55,190.77 c 0.02,8.89 -6.22,19.64 -13.91,24.07 -7.69,4.44 -13.96,0.92 -13.98,-7.97 l -0.55,-190.77 c -0.02,-8.83 6.21,-19.64 13.9,-24.08 7.69,-4.44 13.97,-0.86 13.99,7.98 m 180.85,-104.42 0.54,190.77 c 0.03,8.9 -6.21,19.64 -13.9,24.08 -7.7,4.44 -13.97,0.92 -13.99,-7.97 l -0.54,-190.77 c -0.03,-8.84 6.21,-19.64 13.9,-24.08 7.69,-4.44 13.96,-0.86 13.99,7.97 m -60.28,34.81 0.54,190.77 c 0.02,8.89 -6.21,19.64 -13.9,24.08 -7.7,4.44 -13.97,0.91 -14,-7.97 l -0.54,-190.78 c -0.02,-8.84 6.22,-19.63 13.9,-24.07 7.7,-4.44 13.98,-0.87 14,7.97 m -60.29,34.8 0.55,190.77 c 0.02,8.89 -6.21,19.64 -13.91,24.08 -7.68,4.44 -13.96,0.92 -13.99,-7.98 l -0.54,-190.76 c -0.03,-8.84 6.21,-19.64 13.91,-24.08 7.68,-4.44 13.96,-0.86 13.98,7.97 m -181.84,339.11 347.46,-200.61 -20.86,-238.17 c -1.25,-14.54 -12.4,-19.72 -25.71,-12.05 l -266.23,153.72 c -5.01,2.89 -9.73,7.27 -13.71,12.44 l 0.49,-6.73 c 2.15,-28.81 21.93,-61.08 46.02,-74.99 l 11.68,-6.74 c 3.98,-0.86 8.16,-2.47 12.51,-4.99 4.4,-2.54 8.57,-5.75 12.51,-9.46 l 125.1,-72.23 c 3.99,-0.86 8.16,-2.47 12.51,-4.98 4.36,-2.52 8.58,-5.75 12.51,-9.46 l 26.51,-15.31 c 5.65,-3.26 10.26,-11.21 10.25,-17.75 -0.02,-6.55 -4.67,-9.15 -10.32,-5.88 l -2.04,1.17 c 2.95,-8.31 4.64,-16.75 4.62,-24.69 -0.08,-26.46 -18.76,-37.11 -41.8,-23.81 -22.98,13.26 -41.59,45.45 -41.51,71.91 0.02,7.93 1.76,14.4 4.73,19.29 l -76.17,43.98 c 3,-8.34 4.64,-16.76 4.62,-24.69 -0.08,-26.46 -18.76,-37.11 -41.79,-23.82 -22.99,13.27 -41.6,45.45 -41.52,71.92 0.03,8.46 1.99,15.22 5.35,20.21 -29.03,22.84 -51.52,63.29 -54.25,99.96 l -23.6,319.89 c -0.94,12.81 -9.76,27.18 -20.46,33.36 l -43.05,24.86 c -5.7,3.29 -10.27,11.21 -10.25,17.76 0.02,6.55 4.62,9.17 10.32,5.88 l 43.04,-24.86 c 21.41,-12.36 39.01,-41.02 40.94,-66.66 l 2.1,-28.47"
         style="fill:#ffffff;fill-opacity:1;fill-rule:nonzero;stroke:none"
         id="path106" /><path
         d="m 3736,3590.96 c 3.87,-2.24 7.72,-6.17 10.65,-11.28 5.91,-10.17 5.88,-21.17 -0.06,-24.5 l -88.32,-50.38 c -2.94,-1.69 -6.81,-1.14 -10.67,1.09 -3.87,2.23 -7.72,6.15 -10.7,11.25 l -43.27,75.01 c -5.91,10.23 -5.88,21.17 0.06,24.56 2.95,1.68 6.82,1.14 10.69,-1.1 3.86,-2.23 7.74,-6.15 10.69,-11.24 l 32.65,-56.54 77.55,44.2 c 2.97,1.69 6.85,1.16 10.73,-1.07"
         style="fill:#ffffff;fill-opacity:1;fill-rule:nonzero;stroke:none"
         id="path108" /><path
         d="m 3658.27,3504.8 88.32,50.38 c 5.94,3.33 5.97,14.33 0.06,24.5 -2.93,5.11 -6.78,9.04 -10.65,11.28 -3.88,2.23 -7.76,2.77 -10.73,1.07 l -77.55,-44.2 -32.65,56.54 c -2.95,5.09 -6.83,9.01 -10.69,11.24 -3.87,2.24 -7.74,2.78 -10.69,1.1 -5.94,-3.39 -5.97,-14.33 -0.06,-24.56 l 43.27,-75.01 c 2.98,-5.1 6.83,-9.02 10.7,-11.25 3.86,-2.23 7.73,-2.78 10.67,-1.09 m 12.11,178.58 c 58.87,-33.98 106.42,-116.34 106.22,-183.92 -0.18,-67.63 -48.04,-94.85 -106.91,-60.86 -58.8,33.95 -106.36,116.25 -106.16,183.88 0.18,67.58 48.05,94.86 106.85,60.9"
         style="fill:#ad58b2;fill-opacity:1;fill-rule:nonzero;stroke:none"
         id="path110" /><path
         d="m 3717.55,3423.96 c -14.4,0 -30.66,4.71 -47.86,14.64 -15.64,9.03 -30.48,21.48 -43.84,36.16 -12.95,14.24 -24.51,30.57 -34.05,47.92 -13.64,24.81 -23.15,51.7 -26.72,77.52 -1.02,7.41 -1.55,14.73 -1.55,21.89 0,0.13 0,0.26 0,0.39 0.13,47.86 24.18,75.5 59.09,75.5 14.38,0 30.61,-4.69 47.76,-14.6 58.76,-33.92 106.23,-116.02 106.23,-183.52 0,-0.13 -0.01,-0.27 -0.01,-0.4 -0.13,-47.87 -24.15,-75.5 -59.05,-75.5 m -128.34,182.93 c 0.02,-4.41 1.48,-9.66 4.42,-14.74 l 43.27,-75.01 c 2.98,-5.1 6.83,-9.02 10.7,-11.25 2.33,-1.35 4.66,-2.08 6.79,-2.08 1.4,0 2.71,0.32 3.88,0.99 l 88.32,50.38 c 2.99,1.68 4.49,5.3 4.47,9.79 v 0 c -0.01,4.42 -1.48,9.67 -4.41,14.71 -2.93,5.11 -6.78,9.04 -10.65,11.28 -0.07,0.04 -0.15,0.08 -0.22,0.12 -2.26,1.26 -4.51,1.95 -6.57,1.95 -1.42,0 -2.75,-0.33 -3.94,-1 v 0 l -77.55,-44.2 -32.65,56.54 c -2.95,5.09 -6.83,9.01 -10.69,11.24 v 0 c -0.04,0.03 -0.09,0.05 -0.13,0.08 -0.05,0.03 -0.11,0.06 -0.17,0.09 -0.05,0.03 -0.11,0.06 -0.16,0.1 -2.15,1.16 -4.28,1.8 -6.24,1.82 -0.03,0 -0.07,0 -0.1,0 v 0 c -0.01,0 -0.01,0 -0.02,0 -1.26,-0.01 -2.46,-0.27 -3.53,-0.81 -0.01,0 -0.01,0 -0.01,0 -0.03,-0.01 -0.06,-0.03 -0.09,-0.05 -0.03,-0.01 -0.06,-0.03 -0.09,-0.04 -0.01,-0.01 -0.03,-0.02 -0.05,-0.03 -0.03,-0.02 -0.06,-0.04 -0.1,-0.06 -2.99,-1.7 -4.49,-5.33 -4.48,-9.82 v 0"
         style="fill:#cc80c6;fill-opacity:1;fill-rule:nonzero;stroke:none"
         id="path112" /><path
         d="m 1751,3973.41 0.07,0.07 c -7.04,24.72 -57.22,71.71 -107.16,70.72 -1.81,0.02 -10.78,-0.9 -14.02,-2.74 L 659.832,3489.57 c -16.488,-9.39 -29.219,-23.49 -37.285,-39.96 -6.113,-12.49 -9.617,-26.31 -9.617,-40.7 V 1310.62 c 0,-53.44 61.629,-104.45 119.5,-79.92 l 0.386,0.28 c 1.25,0.45 2.504,0.81 3.719,1.5 l 970.095,552.8 c 28.96,16.51 46.84,47.29 46.84,80.63 V 3963.3 c 0,3.74 -0.99,7.08 -2.47,10.11"
         style="fill:#33535f;fill-opacity:1;fill-rule:nonzero;stroke:none"
         id="path114" /><path
         d="m 748.25,3187.13 c 0,16.68 8.961,32.07 23.457,40.33 l 900.703,512.43 c 15.46,8.8 34.67,-2.37 34.67,-20.16 V 2027.75 c 0,-16.63 -8.99,-32.08 -23.44,-40.33 L 782.934,1474.17 c -15.465,-8.82 -34.684,2.35 -34.684,20.15 v 1692.81"
         style="fill:#ad58b2;fill-opacity:1;fill-rule:nonzero;stroke:none"
         id="path116" /><path
         d="m 771.477,1471.09 c -12.122,0 -23.227,9.7 -23.227,23.23 v 3.48 l 50.641,4.97 c 78.875,110.64 131.117,165.95 131.117,165.95 v 0 0 C 859.129,1667.56 799,1658.54 748.25,1643.41 v 252.96 c 36.133,99.67 61.773,151.84 61.773,151.84 v 0 0 0 0 c -21.703,-7.1 -42.269,-14.59 -61.773,-22.44 v 1161.36 c 0,7.36 1.746,14.47 4.945,20.83 l 320.735,-266.69 121.99,70.46 -326.643,271.24 326.643,-271.24 119.39,68.97 119.4,68.96 -325.18,269.99 325.18,-269.99 v 0 c 0,-26.87 22.06,-46.1 46.1,-46.1 7.67,0 15.54,1.95 22.96,6.24 31.14,17.99 50.33,51.23 50.33,87.2 v 21.63 c 0,-26.87 22.06,-46.1 46.11,-46.11 7.66,0 15.53,1.96 22.95,6.24 31.15,18 50.33,51.23 50.33,87.2 v 21.63 l -323.7,268.75 323.7,-268.75 33.59,19.4 -33.59,-19.4 v 0 c 0,-22.09 14.92,-39.02 33.59,-44.34 v -104.47 c -6.07,-24.28 -9.77,-52.22 -11,-84.21 0.42,-0.06 0.84,-0.13 1.26,-0.2 -2.45,-6.37 -4.34,-12.96 -5.63,-19.57 -2.48,-12.71 -3.16,-25.57 -2.72,-38.47 -1.27,-0.39 -2.51,-0.88 -3.74,-1.48 -14.97,-7.34 -18.4,-27.02 -18.04,-43.69 0.57,-26.04 6.2,-52.87 21.86,-73.68 5.03,-6.67 11.16,-12.4 18.01,-16.92 v -52.44 c -14.9,-5.32 -29.76,-10.77 -44.23,-16.26 -51.09,-19.38 -82.67,-32.38 -121.46,-51.66 -35.84,-9.04 -65.87,-34.32 -80.77,-68.38 -12.82,-10.08 -25.05,-19.08 -35.13,-25.33 -16.43,18.59 -37.77,34.45 -62.03,44.29 -20.06,8.13 -41.55,11.92 -62.37,11.92 -10.64,0 -21.1,-0.99 -31.1,-2.89 -29.73,-5.49 -55.32,-18.95 -73.08,-34.61 21.29,10.44 47.07,18.53 74.95,20.63 5.03,0.4 10.13,0.6 15.26,0.6 23.22,0 47.18,-4.14 69.27,-13.07 20.16,-8.2 38.65,-20.35 54.39,-34.71 -13.81,-6.19 -28.55,-9.9 -43.62,-11.94 l -0.23,-0.03 c -19.3,-2.65 -40.23,-10.06 -62.11,-22.69 -96.22,-55.56 -173.92,-190.18 -173.61,-300.7 0.21,-72.46 34,-116.33 84.29,-122.48 l -0.01,-0.27 2.07,0.03 c 3.51,-0.36 7.1,-0.54 10.75,-0.54 4.28,0 8.66,0.25 13.13,0.78 57.97,0.52 139.12,1 203.34,5.85 3.81,-30.11 18.93,-58.08 42.89,-77.83 l 166.75,-138.06 -871.486,-496.6 c -3.711,-2.11 -7.633,-3.08 -11.457,-3.08 m 424.443,1540.64 v 0 c 0,-26.87 22.06,-46.1 46.1,-46.1 7.67,0 15.54,1.96 22.96,6.24 31.15,17.99 50.33,51.23 50.33,87.2 v 21.63 l -119.39,-68.97 v 0 m 238.79,137.93 -119.4,-68.96 c 0,-26.87 22.06,-46.1 46.11,-46.1 7.67,0 15.53,1.95 22.95,6.24 31.15,17.99 50.34,51.22 50.34,87.19 v 21.63 m 272.37,-1052.28 -105.13,111.21 c 0,0 1.03,6.29 2.82,17.37 35.89,14.56 70.17,31.52 102.31,50.89 v -179.47"
         style="fill:#a651af;fill-opacity:1;fill-rule:nonzero;stroke:none"
         id="path118" /><path
         d="m 701.598,1224.37 c -3.035,0 -6.051,0.18 -9.032,0.52 -0.187,11.93 -0.652,23.89 -1.414,35.83 v 0 c -0.125,21.27 -11.129,42.54 -33.015,60.76 7.984,11.74 16.312,24.68 24.996,38.91 v 0 0 l -70.203,12.24 v 7.94 l 88.925,15.17 v -143.1 c 0,-13.5 11.032,-23.05 23.11,-23.05 2.601,0 5.254,0.44 7.851,1.39 l -0.386,-0.28 c -10.282,-4.36 -20.68,-6.33 -30.832,-6.33 m 0.257,259.69 -27.941,6.43 27.941,2.74 v -9.17 m -68.597,105.08 c 2.805,9.93 5.59,20.35 8.359,31.31 v 0 0 0 l -28.687,-3.68 v 30.5 l 46.758,23.7 33.058,98.83 -79.816,-5.92 v 9.11 l 88.925,37.41 v -183.55 c -25.738,-10.86 -48.511,-23.53 -68.597,-37.71 m -20.328,365.89 v 1453.88 c 0,14.39 3.504,28.21 9.617,40.7 v 0 0 l 94.969,-47.45 c -9.938,-14.97 -15.661,-32.65 -15.661,-51.24 V 2005.5 c -33.183,-15.74 -62.73,-32.63 -88.925,-50.47"
         style="fill:#20353d;fill-opacity:1;fill-rule:nonzero;stroke:none"
         id="path120" /><path
         d="m 717.516,3402.16 v 0 0 l -94.969,47.45 c 8.066,16.47 20.797,30.57 37.285,39.96 l 970.058,551.89 c 3.21,1.83 12.07,2.74 13.98,2.74 0.01,0 0.02,0 0.04,0 0.52,0.01 1.03,0.02 1.55,0.02 49.42,0 98.64,-46.28 105.61,-70.74 l -0.07,-0.07 v 0 c -3.89,7.97 -12.1,13.1 -20.86,13.1 -3.77,0 -7.65,-0.96 -11.33,-3.05 L 748.758,3431.57 c -12.836,-7.3 -23.34,-17.52 -31.242,-29.41"
         style="fill:#46646e;fill-opacity:1;fill-rule:nonzero;stroke:none"
         id="path122" /><path
         d="m 1347.22,3636.97 c 6.82,3.93 12.46,0.89 12.49,-6.94 0.01,-7.83 -5.6,-17.55 -12.41,-21.48 l -190.32,-109.88 c -6.81,-3.94 -12.31,-0.63 -12.33,7.2 -0.02,7.83 5.44,17.28 12.25,21.22 l 190.32,109.88"
         style="fill:#17282f;fill-opacity:1;fill-rule:nonzero;stroke:none"
         id="path124" /><path
         d="m 1108.03,3498.87 c 6.81,3.93 12.31,0.8 12.33,-7.03 0.02,-7.83 -5.44,-17.46 -12.26,-21.39 -6.81,-3.93 -12.45,-0.71 -12.47,7.11 -0.03,7.83 5.58,17.38 12.4,21.31"
         style="fill:#17282f;fill-opacity:1;fill-rule:nonzero;stroke:none"
         id="path126" /><path
         d="m 1229.85,3652.95 c 13.61,7.86 24.59,1.6 24.64,-14.04 0.04,-15.64 -10.87,-34.88 -24.48,-42.74 -13.61,-7.85 -24.89,-1.42 -24.94,14.21 -0.04,15.64 11.17,34.71 24.78,42.57"
         style="fill:#17282f;fill-opacity:1;fill-rule:nonzero;stroke:none"
         id="path128" /><path
         d="m 1229.92,1677.59 c 27.72,16 50.09,3.26 50.18,-28.6 0.09,-31.85 -22.13,-71.04 -49.85,-87.05 -27.73,-16 -50.7,-2.91 -50.79,28.95 -0.09,31.85 22.74,70.69 50.46,86.7"
         style="fill:#17282f;fill-opacity:1;fill-rule:nonzero;stroke:none"
         id="path130" /><path
         d="m 1704.11,3766.39 327.56,-271.91 -119.4,-68.96 -327.52,271.9 119.36,68.97"
         style="fill:#ad58b2;fill-opacity:1;fill-rule:nonzero;stroke:none"
         id="path132" /><path
         d="m 1465.4,3628.43 327.48,-271.87 -119.39,-68.97 -327.45,271.86 119.36,68.98"
         style="fill:#ad58b2;fill-opacity:1;fill-rule:nonzero;stroke:none"
         id="path134" /><path
         d="m 1346.04,3559.45 327.45,-271.86 -119.39,-68.96 -327.41,271.83 119.35,68.99"
         style="fill:#ffffff;fill-opacity:1;fill-rule:nonzero;stroke:none"
         id="path136" /><path
         d="m 1584.75,3697.42 327.52,-271.9 -119.39,-68.96 -327.48,271.87 119.35,68.99"
         style="fill:#ffffff;fill-opacity:1;fill-rule:nonzero;stroke:none"
         id="path138" /><path
         d="m 987.973,3352.49 327.337,-271.79 -119.39,-68.97 -327.303,271.79 119.356,68.97"
         style="fill:#ad58b2;fill-opacity:1;fill-rule:nonzero;stroke:none"
         id="path140" /><path
         d="m 1226.69,3490.46 327.41,-271.83 -119.39,-68.97 -327.38,271.82 119.36,68.98"
         style="fill:#ad58b2;fill-opacity:1;fill-rule:nonzero;stroke:none"
         id="path142" /><path
         d="m 746.922,3213.18 121.695,70.34 327.303,-271.79 -121.99,-70.46 -327.008,271.91"
         style="fill:#ffffff;fill-opacity:1;fill-rule:nonzero;stroke:none"
         id="path144" /><path
         d="m 1107.33,3421.48 327.38,-271.82 -119.4,-68.96 -327.337,271.79 119.357,68.99"
         style="fill:#ffffff;fill-opacity:1;fill-rule:nonzero;stroke:none"
         id="path146" /><path
         d="m 2031.67,3494.48 -119.4,-68.96 c 0,-35.44 38.38,-57.59 69.07,-39.86 31.14,17.99 50.33,51.23 50.33,87.2 v 21.62"
         style="fill:#ad58b2;fill-opacity:1;fill-rule:nonzero;stroke:none"
         id="path148" /><path
         d="m 1912.27,3425.52 -119.39,-68.96 c 0,-35.44 38.37,-57.59 69.07,-39.87 31.14,18 50.32,51.23 50.32,87.2 v 21.63"
         style="fill:#dadbd8;fill-opacity:1;fill-rule:nonzero;stroke:none"
         id="path150" /><path
         d="m 1792.88,3356.56 -119.39,-68.97 c 0,-35.44 38.37,-57.59 69.06,-39.86 31.15,17.99 50.33,51.23 50.33,87.2 v 21.63"
         style="fill:#ad58b2;fill-opacity:1;fill-rule:nonzero;stroke:none"
         id="path152" /><path
         d="m 1673.49,3287.59 -119.39,-68.96 c 0,-35.44 38.37,-57.59 69.06,-39.87 31.15,18 50.33,51.23 50.33,87.2 v 21.63"
         style="fill:#dadbd8;fill-opacity:1;fill-rule:nonzero;stroke:none"
         id="path154" /><path
         d="m 1554.1,3218.63 -119.39,-68.97 c 0,-35.44 38.36,-57.59 69.06,-39.86 31.14,17.99 50.33,51.23 50.33,87.2 v 21.63"
         style="fill:#ad58b2;fill-opacity:1;fill-rule:nonzero;stroke:none"
         id="path156" /><path
         d="m 1434.71,3149.66 -119.4,-68.96 c 0,-35.44 38.37,-57.59 69.06,-39.86 31.15,17.99 50.34,51.22 50.34,87.19 v 21.63"
         style="fill:#dadbd8;fill-opacity:1;fill-rule:nonzero;stroke:none"
         id="path158" /><path
         d="m 1315.31,3080.7 -119.39,-68.97 c 0,-35.44 38.37,-57.58 69.06,-39.86 31.15,17.99 50.33,51.23 50.33,87.2 v 21.63"
         style="fill:#ad58b2;fill-opacity:1;fill-rule:nonzero;stroke:none"
         id="path160" /><g
         id="g162"><g
           id="g164"
           clip-path="url(#clipPath168)"><path
             d="m 1912.27,3379.42 h 119.402 v 115.063 H 1912.27 Z"
             style="fill:#9b43a7;fill-opacity:1;fill-rule:nonzero;stroke:none"
             id="path170" /></g></g><path
         d="m 1719.6,3241.49 c -4.28,0 -8.49,0.61 -12.52,1.76 -18.67,5.32 -33.59,22.25 -33.59,44.34 l 119.39,68.97 v -21.63 c 0,-35.97 -19.18,-69.21 -50.33,-87.2 -7.42,-4.29 -15.28,-6.24 -22.95,-6.24"
         style="fill:#9b43a7;fill-opacity:1;fill-rule:nonzero;stroke:none"
         id="path172" /><path
         d="m 1480.81,3103.56 c -24.04,0 -46.1,19.23 -46.1,46.1 l 119.39,68.97 V 3197 c 0,-35.97 -19.19,-69.21 -50.33,-87.2 -7.42,-4.29 -15.29,-6.24 -22.96,-6.24"
         style="fill:#9b43a7;fill-opacity:1;fill-rule:nonzero;stroke:none"
         id="path174" /><path
         d="m 1242.02,2965.63 c -24.04,0 -46.1,19.23 -46.1,46.1 l 119.39,68.97 v -21.63 c 0,-35.97 -19.18,-69.21 -50.33,-87.2 -7.42,-4.28 -15.29,-6.24 -22.96,-6.24"
         style="fill:#9b43a7;fill-opacity:1;fill-rule:nonzero;stroke:none"
         id="path176" /><path
         d="m 1195.92,3011.73 -121.99,-70.46 c 0,-35.44 38.37,-57.59 69.07,-39.86 32.75,18.92 52.92,53.87 52.92,91.69 v 18.63"
         style="fill:#dadbd8;fill-opacity:1;fill-rule:nonzero;stroke:none"
         id="path178" /><path
         d="m 1335.08,2659.68 c -30.97,-3.39 -66.6,-13.29 -101.4,-31.29 -34.8,-17.86 -68.62,-43.75 -96.14,-75.44 -27.53,-31.7 -48.43,-68.8 -61.22,-105.77 -12.95,-36.98 -17.76,-73.65 -16.78,-104.78 7.24,30.34 17.92,64.14 33.93,97.78 15.92,33.63 37.09,67.01 62.72,96.57 25.67,29.52 55.76,55.16 86.83,75.63 31.06,20.57 63.03,35.89 92.06,47.3"
         style="fill:#ad58b2;fill-opacity:1;fill-rule:nonzero;stroke:none"
         id="path180" /><path
         d="m 1241.65,2136.19 c -17.57,0.34 -37.36,3.12 -57.05,9.93 -19.66,6.74 -39.11,17.48 -55.49,31.81 -16.34,14.36 -29.52,32.26 -38.77,50.87 -9.33,18.62 -14.65,37.89 -17.29,55.26 -2.02,-17.42 -0.09,-38.51 7.7,-59.39 7.66,-20.86 21.14,-41.39 39.18,-57.21 18.04,-15.82 40.15,-26.51 61.83,-31.4 21.71,-4.99 42.88,-4.16 59.89,0.13"
         style="fill:#ad58b2;fill-opacity:1;fill-rule:nonzero;stroke:none"
         id="path182" /><path
         d="m 1396.68,2457.85 c 1.67,-24.13 1.94,-51.59 -1.19,-80.36 -3.05,-28.77 -9.43,-58.79 -19.18,-87.72 -9.84,-28.91 -23.03,-56.63 -38.08,-81.32 -15.02,-24.75 -31.92,-46.39 -47.91,-64.54 20.15,13.3 41.36,32.38 59.75,56.41 18.43,23.96 33.98,52.73 44.38,83.3 10.33,30.6 15.47,62.89 15.39,93.12 0.01,30.26 -5.24,58.31 -13.16,81.11"
         style="fill:#ad58b2;fill-opacity:1;fill-rule:nonzero;stroke:none"
         id="path184" /><path
         d="m 1083.15,2568.21 c -21.29,-20.14 -42.39,-47.8 -58.31,-81.04 -16,-33.14 -26.723,-71.74 -29.473,-111.13 -2.742,-39.38 2.516,-79.1 13.753,-114.14 11.15,-35.12 28.21,-65.45 46.5,-88.35 -11.66,26.94 -22.68,58.41 -29.63,92.77 -7.02,34.3 -9.97,71.38 -7.43,108.11 2.59,36.72 10.66,73.03 22.37,106.02 11.65,33.07 26.94,62.7 42.22,87.76"
         style="fill:#ad58b2;fill-opacity:1;fill-rule:nonzero;stroke:none"
         id="path186" /><path
         d="m 1465.15,2556.43 c -1.84,23.6 -10.82,51.08 -28.34,75.73 -17.3,24.65 -43.06,46.33 -73.35,58.62 -30.3,12.28 -63.88,14.66 -93.47,9.03 -29.73,-5.49 -55.32,-18.95 -73.08,-34.61 21.29,10.44 47.07,18.53 74.95,20.63 27.8,2.2 57.56,-1.57 84.53,-12.47 26.95,-10.96 50.93,-28.99 69.35,-49.93 18.55,-20.92 31.41,-44.67 39.41,-67"
         style="fill:#ad58b2;fill-opacity:1;fill-rule:nonzero;stroke:none"
         id="path188" /><path
         d="m 1894.04,2869.51 c 65.72,6.69 125.5,-38.4 137.12,-103.45 l 46.46,-260.17 291,-203.45 -65.04,-79.09 -276.85,145.38 c -32.92,17.29 -57.45,47.14 -68.02,82.79 l -89.19,300.88 24.52,117.11"
         style="fill:#f6879f;fill-opacity:1;fill-rule:nonzero;stroke:none"
         id="path190" /><path
         d="m 2002.04,2590.45 c 25.65,13.38 46.39,35.58 58.77,61.7 l -26.13,119.21 c -13.74,62.69 -72.31,105.11 -136.16,98.61 l -4.48,-0.46 -24.52,-117.11 38.7,-172.77 c 31.25,-7.65 65.26,-4.08 93.82,10.82"
         style="fill:#33535f;fill-opacity:1;fill-rule:nonzero;stroke:none"
         id="path192" /><path
         d="m 2002.04,2590.45 c -28.56,-14.9 -62.57,-18.47 -93.82,-10.82 l 9.53,-42.55 c 36.17,-8.05 128.61,-5.37 152.72,71 l -9.66,44.07 c -12.38,-26.12 -33.12,-48.32 -58.77,-61.7"
         style="fill:#33535f;fill-opacity:1;fill-rule:nonzero;stroke:none"
         id="path194" /><path
         d="m 1943.89,2575.76 c 13.09,48.69 18.9,101.69 16.13,158.98 5.67,-0.59 11.37,-0.97 17.02,-0.97 13.48,0 26.64,2.17 38.27,8.81 8.6,4.91 15.54,11.81 21.34,19.78 l 24.16,-110.21 c -12.38,-26.12 -33.12,-48.32 -58.77,-61.7 -0.09,-0.05 -0.17,-0.09 -0.26,-0.13 -0.16,-0.09 -0.32,-0.17 -0.48,-0.25 -0.3,-0.16 -0.6,-0.31 -0.9,-0.46 -17.49,-8.8 -36.95,-13.41 -56.51,-13.85"
         style="fill:#57747c;fill-opacity:1;fill-rule:nonzero;stroke:none"
         id="path196" /><path
         d="m 1949.39,2533.99 c -6.65,0 -12.9,0.36 -18.52,0.98 4.92,13.24 9.27,26.84 13.02,40.79 19.57,0.44 39.02,5.05 56.51,13.85 0.3,0.15 0.6,0.3 0.9,0.46 0.16,0.08 0.32,0.16 0.48,0.25 0.09,0.04 0.17,0.08 0.26,0.13 25.65,13.38 46.39,35.58 58.77,61.7 l 9.66,-44.07 c -18.67,-59.14 -78.32,-74.09 -121.08,-74.09"
         style="fill:#91a7aa;fill-opacity:1;fill-rule:nonzero;stroke:none"
         id="path198" /><path
         d="m 1943.89,2575.76 v 0 c 19.56,0.44 39.02,5.05 56.51,13.85 -17.49,-8.8 -36.94,-13.41 -56.51,-13.85 m 57.41,14.31 c 0.16,0.08 0.32,0.16 0.48,0.25 -0.16,-0.09 -0.32,-0.17 -0.48,-0.25"
         style="fill:#a6b7b9;fill-opacity:1;fill-rule:nonzero;stroke:none"
         id="path200" /><path
         d="m 1958.45,2757.94 c 0,0 -11.55,88.47 -64.41,111.57 0,0 -126.32,-37.86 -231.19,-77.65 -51.12,-19.39 -82.71,-32.4 -121.53,-51.7 -23.85,-20.64 -92.11,-81.93 -124.22,-98.48 -15.6,-8.03 -32.56,-12.62 -49.94,-14.97 l -0.23,-0.03 c -19.3,-2.65 -40.23,-10.06 -62.11,-22.69 -96.22,-55.56 -173.92,-190.18 -173.61,-300.7 0.21,-72.46 34,-116.33 84.29,-122.48 l -0.01,-0.27 2.07,0.03 c 7.62,-0.77 15.58,-0.75 23.88,0.24 87.49,0.79 227.82,1.47 282.98,17.26 257.61,75.32 460.02,261.37 434.03,559.87"
         style="fill:#33535f;fill-opacity:1;fill-rule:nonzero;stroke:none"
         id="path202" /><path
         d="m 1713.13,2794.24 37.79,68.4 151.61,-102.23 c -19.99,-26.87 -39.99,-53.74 -59.98,-80.61 -26.05,-11.16 -55.6,-15 -81.4,-3.27 -25.81,11.72 -46.27,34.66 -54.99,61.62 -6.06,18.74 -2.26,37.66 6.97,56.09"
         style="fill:#f6879f;fill-opacity:1;fill-rule:nonzero;stroke:none"
         id="path204" /><path
         d="m 1870.61,2717.51 c -35.63,12.97 -91.5,45.08 -103.27,110.13 15.26,-25.57 39.48,-45.89 66.22,-59.6 18.63,-9.56 38.46,-16.25 58.81,-21.29 l -21.76,-29.24"
         style="fill:#e16f7e;fill-opacity:1;fill-rule:nonzero;stroke:none"
         id="path206" /><path
         d="m 1696.58,2935.31 c -5.64,32.92 -11.27,66.71 -4.87,99.49 6.39,32.78 27.54,64.84 59.54,74.41 11.52,27.67 39.24,50.07 67.74,59.31 28.5,9.25 58.96,10.09 88.92,10.78 33.12,0.75 66.6,1.38 99.01,-5.53 32.4,-6.91 64.11,-22.14 84.77,-48.05 23.81,-29.86 30.3,-70.85 24.59,-108.62 -5.7,-37.76 -22.41,-72.95 -41.08,-106.29 -63.63,-4.54 -128.43,-11.78 -192.07,-16.33 -32.47,-2.32 -65.17,-4.63 -97.49,-0.84 -32.33,3.8 -63.79,21.16 -89.06,41.67"
         style="fill:#17282f;fill-opacity:1;fill-rule:nonzero;stroke:none"
         id="path208" /><path
         d="m 2085.96,3087.79 c 16.37,-97.26 5.45,-198.96 -31.19,-290.52 -8.52,-21.28 -19.55,-43.33 -39.46,-54.69 -20.88,-11.92 -46.7,-9.43 -70.47,-5.85 -38.28,5.77 -76.84,13.65 -111.28,31.31 -34.45,17.66 -64.72,46.3 -77.03,83 -25.33,-6.06 -51.8,5.63 -67.46,26.44 -15.66,20.81 -21.29,47.64 -21.86,73.68 -0.36,16.67 3.07,36.35 18.04,43.69 13.93,6.83 30.65,-0.83 42.7,-10.59 19.72,-15.97 34.43,-38.05 41.57,-62.4 11.02,40.61 28.17,79.79 39.19,120.4 4.33,15.96 9.68,33.38 23.62,42.3 17.05,10.9 39.26,4.64 58.91,-0.22 59.92,-14.84 135.78,-14.91 194.72,3.45"
         style="fill:#f6879f;fill-opacity:1;fill-rule:nonzero;stroke:none"
         id="path210" /><path
         d="m 1967.58,2964.53 47.49,-79.95 -56.62,-10.63 z"
         style="fill:#f47089;fill-opacity:1;fill-rule:nonzero;stroke:none"
         id="path212" /><path
         d="m 1903.88,2846.41 c 14.34,-6.98 28.68,-13.95 43.02,-20.92 -6.26,-9.78 -22.03,-14.03 -32.62,-9.27 -10.59,4.75 -13.55,19.01 -10.4,30.19"
         style="fill:#f47089;fill-opacity:1;fill-rule:nonzero;stroke:none"
         id="path214" /><path
         d="m 1924.04,2814.26 c -3.44,0 -6.8,0.63 -9.76,1.96 -7.94,3.56 -11.59,12.47 -11.59,21.42 0,2.98 0.4,5.97 1.19,8.77 14.34,-6.98 28.68,-13.95 43.02,-20.92 -4.51,-7.05 -13.97,-11.23 -22.86,-11.23"
         style="fill:#b8515e;fill-opacity:1;fill-rule:nonzero;stroke:none"
         id="path216" /><path
         d="m 1929.22,2814.8 c -5.17,-0.9 -10.5,-0.58 -14.93,1.42 -8.32,3.73 -11.87,13.31 -11.51,22.67 6.1,-0.03 12.22,-2.02 16.95,-5.9 5.45,-4.46 8.79,-11.19 9.49,-18.19"
         style="fill:#f47089;fill-opacity:1;fill-rule:nonzero;stroke:none"
         id="path218" /><path
         d="m 1885.59,2961.35 c -0.9,-8.94 5.61,-16.92 14.55,-17.82 8.94,-0.9 16.91,5.62 17.81,14.56 0.9,8.93 -5.61,16.9 -14.55,17.8 -8.93,0.9 -16.91,-5.61 -17.81,-14.54"
         style="fill:#17282f;fill-opacity:1;fill-rule:nonzero;stroke:none"
         id="path220" /><path
         d="m 2021.96,2952.9 c -0.91,-8.94 5.61,-16.91 14.54,-17.82 8.94,-0.9 16.91,5.62 17.81,14.55 0.9,8.94 -5.61,16.91 -14.55,17.81 -8.93,0.9 -16.91,-5.61 -17.8,-14.54"
         style="fill:#17282f;fill-opacity:1;fill-rule:nonzero;stroke:none"
         id="path222" /><path
         d="m 2044.19,3015.7 c 11.12,-9.47 22.24,-18.94 33.36,-28.42 4.41,8.15 2.11,19.54 -4.45,26.1 -6.54,6.55 -20.76,6.71 -28.91,2.32"
         style="fill:#17282f;fill-opacity:1;fill-rule:nonzero;stroke:none"
         id="path224" /><path
         d="m 1911.21,3017.91 c -12.78,-7.06 -25.58,-14.13 -38.36,-21.19 -2.69,8.87 1.84,19.57 9.56,24.69 7.72,5.11 21.69,2.44 28.8,-3.5"
         style="fill:#17282f;fill-opacity:1;fill-rule:nonzero;stroke:none"
         id="path226" /><path
         d="m 2116.35,3054.89 c -135.54,-22.34 -284.7,-22.45 -420.27,-0.32 6.53,170.19 83.02,225.78 215.01,225.78 131.98,0 206.27,-70.08 205.26,-225.46"
         style="fill:#33535f;fill-opacity:1;fill-rule:nonzero;stroke:none"
         id="path228" /><path
         d="m 2116.35,3054.89 c 0.43,65.16 -12.56,115.13 -37.32,151.41 l -55.21,15.47 c -25.89,7.25 -53.06,8.71 -79.57,4.26 l -52.7,-8.84 c -36.84,-6.18 -65.17,-35.95 -69.52,-73.06 l -12.02,-102.58 c 102.36,-7.22 207.92,-2.88 306.34,13.34"
         style="fill:#33535f;fill-opacity:1;fill-rule:nonzero;stroke:none"
         id="path230" /><path
         d="m 1810.01,3041.55 v 0 l 12.02,102.58 c 4.35,37.11 32.68,66.88 69.52,73.06 l 52.7,8.84 c 10.02,1.68 20.14,2.52 30.25,2.52 16.62,0 33.22,-2.27 49.32,-6.78 l 55.21,-15.47 c 2.03,-2.97 3.98,-6.04 5.85,-9.2 -71.29,-5.21 -139.13,-33.81 -192.67,-81.84 l -82.2,-73.71"
         style="fill:#68838a;fill-opacity:1;fill-rule:nonzero;stroke:none"
         id="path232" /><path
         d="m 2132.91,3198.05 h -24.41 c -7.88,0 -15.72,-0.37 -23.53,-0.94 -71.33,-5.2 -139.2,-33.8 -192.76,-81.85 l -82.2,-73.71 c 102.36,-7.22 207.92,-2.88 306.34,13.34 l 53.51,64.53 c 25.93,31.28 3.69,78.63 -36.95,78.63"
         style="fill:#33535f;fill-opacity:1;fill-rule:nonzero;stroke:none"
         id="path234" /><path
         d="m 1906.15,3038.18 c -32.15,0 -64.3,1.12 -96.14,3.37 l 82.2,73.71 c 53.56,48.05 121.43,76.65 192.76,81.85 7.81,0.57 15.65,0.94 23.53,0.94 h 24.41 c 28.57,0 48.05,-23.41 48.09,-48.18 0.01,-10.46 -3.44,-21.17 -11.14,-30.45 l -53.51,-64.53 c -67.81,-11.18 -139,-16.71 -210.2,-16.71"
         style="fill:#263f48;fill-opacity:1;fill-rule:nonzero;stroke:none"
         id="path236" /><path
         d="m 2555.54,2289.25 -372.78,-216.63 -375.23,216.63 372.79,216.64 375.22,-216.64"
         style="fill:#ad58b2;fill-opacity:1;fill-rule:nonzero;stroke:none"
         id="path238" /><path
         d="m 2182.76,2072.62 -172.19,99.41 172.19,105.26 -64.97,39.72 -176.27,-105.12 21.17,-12.22 -21.17,12.22 v 0 l -133.99,77.36 372.79,216.64 375.22,-216.64 -372.78,-216.63"
         style="fill:#cc80c6;fill-opacity:1;fill-rule:nonzero;stroke:none"
         id="path240" /><path
         d="m 2555.54,2289.25 -1.07,-379.23 -372.79,-216.64 1.08,379.24 372.78,216.63"
         style="fill:#ad58b2;fill-opacity:1;fill-rule:nonzero;stroke:none"
         id="path242" /><path
         d="m 2181.68,1693.38 1.08,379.24 372.78,216.63 -1.07,-379.23 -372.79,-216.64"
         style="fill:#b764b9;fill-opacity:1;fill-rule:nonzero;stroke:none"
         id="path244" /><path
         d="m 2182.76,2072.62 -1.08,-379.24 -375.23,216.63 1.08,379.24 375.23,-216.63"
         style="fill:#ad58b2;fill-opacity:1;fill-rule:nonzero;stroke:none"
         id="path246" /><path
         d="m 2247.72,2317.01 126.16,77.13 -64.4,37.18 -126.72,-75.57 64.96,-38.74"
         style="fill:#dadbd8;fill-opacity:1;fill-rule:nonzero;stroke:none"
         id="path248" /><path
         d="m 2247.72,2317.01 -64.96,38.74 -128.71,76.76 -64.18,-37.3 127.92,-78.2 64.97,-39.72 171.64,-104.93 68.82,39.99 -175.5,104.66"
         style="fill:#ffffff;fill-opacity:1;fill-rule:nonzero;stroke:none"
         id="path250" /><path
         d="m 2117.79,2317.01 -176.27,-105.12 69.04,-39.86 172.2,105.26 -64.97,39.72"
         style="fill:#dadbd8;fill-opacity:1;fill-rule:nonzero;stroke:none"
         id="path252" /><path
         d="m 2423.22,2212.35 -68.82,-39.99 0.54,-0.33 1.08,-377.34 69.57,40.43 -1.07,376.45 -1.3,0.78"
         style="fill:#dadbd8;fill-opacity:1;fill-rule:nonzero;stroke:none"
         id="path254" /><path
         d="m 2010.56,2172.03 -69.04,39.86 -0.53,-0.32 -1.08,-378.61 69.58,-40.17 1.07,379.24"
         style="fill:#ffffff;fill-opacity:1;fill-rule:nonzero;stroke:none"
         id="path256" /><path
         d="m 2009.63,1841.52 -38.02,26.01 38.12,9.31 -0.1,-35.32 m 0.19,68.45 -69.67,6.59 0.84,295.01 0.53,0.32 69.04,-39.86 -0.74,-262.06"
         style="fill:#c3c5c2;fill-opacity:1;fill-rule:nonzero;stroke:none"
         id="path258" /><path
         d="m 2182.61,2202.4 -78.06,-47.72 78.06,-45.06 77.8,45.21 -77.8,47.57"
         style="fill:#ffffff;fill-opacity:1;fill-rule:nonzero;stroke:none"
         id="path260" /><path
         d="m 1444.61,2215.51 c 0,0 29.06,423.55 35.12,449.7 23.35,100.72 169.38,93.53 183.26,-8.93 5.66,-41.77 -61.04,-447.69 -61.04,-447.69 l 241.61,-255.59 48.96,-44.91 43.54,8.85 99.43,-9.39 c 5.32,-0.51 9.7,-4.43 10.79,-9.66 1.34,-6.44 -2.66,-12.77 -9.05,-14.34 l -65.62,-16.02 47.36,-32.4 c 6.64,-4.54 14.16,-7.67 22.07,-9.16 l 74.34,-14.05 c 6.8,-1.28 11.57,-7.41 11.14,-14.3 -0.34,-5.4 -3.82,-10.1 -8.89,-11.98 l -39.9,-14.92 c -52.29,-19.53 -110.5,-15.38 -159.49,11.37 l -86.62,47.28 c -12.54,6.85 -24.4,14.89 -35.41,24 l -308.54,255.46 c -31.5,25.97 -47.71,66.12 -43.06,106.68"
         style="fill:#f6879f;fill-opacity:1;fill-rule:nonzero;stroke:none"
         id="path262" /><path
         d="m 1659.06,2377.83 30.88,229.73 c 9,66.87 -38.79,128.06 -105.86,135.52 -66.06,7.34 -125.56,-40.31 -132.81,-106.39 L 1425.52,2402 c 33.61,-19.21 71.01,-31.82 109.45,-36.44 41.61,-4.99 84.22,-0.61 124.09,12.27"
         style="fill:#33535f;fill-opacity:1;fill-rule:nonzero;stroke:none"
         id="path264" /><path
         d="m 1568.79,2363.55 c -0.01,0 -0.02,0 -0.02,0 -10.86,0 -21.72,0.62 -32.52,1.86 -0.19,0.02 -0.38,0.05 -0.58,0.07 -0.23,0.03 -0.47,0.05 -0.7,0.08 -38.44,4.62 -75.84,17.23 -109.45,36.44 l 25.75,234.69 c 6.76,61.57 58.85,107.13 119.37,107.13 4.44,0 8.93,-0.24 13.44,-0.74 61.63,-6.86 106.98,-59.08 106.95,-119.4 0,-5.32 -0.36,-10.7 -1.09,-16.12 l -30.88,-229.73 v 0 c -0.55,-0.17 -1.09,-0.35 -1.64,-0.52 -0.07,-0.02 -0.13,-0.04 -0.2,-0.07 -28.54,-9.01 -58.46,-13.69 -88.38,-13.69 -0.02,0 -0.03,0 -0.05,0"
         style="fill:#57747c;fill-opacity:1;fill-rule:nonzero;stroke:none"
         id="path266" /><path
         d="m 1534.97,2365.56 c -38.44,4.62 -75.84,17.23 -109.45,36.44 l -5.94,-54.1 c 103.86,-79.82 231.33,-30.61 231.33,-30.61 l 8.15,60.54 c -39.87,-12.88 -82.48,-17.26 -124.09,-12.27"
         style="fill:#33535f;fill-opacity:1;fill-rule:nonzero;stroke:none"
         id="path268" /><path
         d="m 1559.75,2302.28 c -42.41,0 -93.66,9.87 -140.17,45.62 l 5.94,54.1 c 33.61,-19.21 71.01,-31.82 109.45,-36.44 11.23,-1.35 22.52,-2.01 33.82,-2.01 30.58,0 61.16,4.87 90.27,14.28 l -8.15,-60.54 c 0,0 -38.86,-15.01 -91.16,-15.01"
         style="fill:#91a7aa;fill-opacity:1;fill-rule:nonzero;stroke:none"
         id="path270" /><path
         d="m 4237.29,1592.08 162.17,-4.73 162.17,4.73 c 6.99,-109.51 -14.4,-221.12 -43.87,-275.63 l -0.12,0.01 c -5.28,-11.97 -15.89,-23.32 -32.1,-32.67 -47.85,-27.63 -125.19,-27.63 -172.72,0 -16.49,9.58 -27.09,21.24 -32.08,33.51 -29.25,54.81 -50.4,165.81 -43.45,274.78"
         style="fill:#ffffff;fill-opacity:1;fill-rule:nonzero;stroke:none"
         id="path272" /><path
         d="m 4285.17,1658.51 c -63.55,-36.69 -63.88,-96.17 -0.75,-132.85 63.12,-36.69 165.8,-36.69 229.34,0 63.54,36.68 63.87,96.16 0.75,132.85 -63.13,36.68 -165.81,36.68 -229.34,0"
         style="fill:#e7e8e5;fill-opacity:1;fill-rule:nonzero;stroke:none"
         id="path274" /><path
         d="m 4310.29,1643.91 c -49.57,-28.63 -49.84,-75.02 -0.59,-103.65 49.26,-28.62 129.36,-28.62 178.94,0 49.56,28.62 49.82,75.02 0.57,103.65 -49.25,28.61 -129.35,28.61 -178.92,0"
         style="fill:#dadbd8;fill-opacity:1;fill-rule:nonzero;stroke:none"
         id="path276" /><path
         d="m 4399.05,1518.8 c -27.76,0 -55.48,5.25 -78.34,15.77 4.22,22.94 7.41,46.07 9.52,69.31 9.96,-14.49 22.78,-27.1 35.96,-33.81 20.11,-10.23 42.83,-14.44 65.51,-14.44 5.5,0 11,0.25 16.46,0.72 25,2.15 49.37,8.71 73.27,16.45 -5.65,-11.92 -16.59,-23.18 -32.79,-32.54 -24.79,-14.31 -57.21,-21.46 -89.59,-21.46"
         style="fill:#b4b6b4;fill-opacity:1;fill-rule:nonzero;stroke:none"
         id="path278" /><path
         d="m 4482.18,1923.95 c 26.37,32.8 57,62.17 81.18,96.62 16.51,23.48 30.3,52.24 23.36,80.1 -6.43,25.85 -30.59,45.07 -56.78,49.97 -26.18,4.91 -53.59,-2.93 -76.21,-17 -22.61,-14.07 -40.99,-33.99 -57.59,-54.82 -90.74,-113.88 -134.95,-263.76 -120.51,-408.65 1.65,-16.62 4.43,-34.09 15.04,-46.97 11.38,-13.82 31.32,-19.9 48.47,-14.81 44.18,13.1 38.32,72.78 45.54,107.9 9.9,48.1 27.09,94.72 50.74,137.76 13.53,24.6 29.16,48.04 46.76,69.9"
         style="fill:#ad58b2;fill-opacity:1;fill-rule:nonzero;stroke:none"
         id="path280" /><path
         d="m 4345.68,1724.5 c 0.87,6.51 1.85,13.27 2.96,20.28 0.93,-4.11 1.92,-8.2 2.96,-12.25 0.16,-0.59 0.23,-1.16 0.23,-1.72 0,-3.51 -2.89,-6.17 -6.15,-6.31 m -7.33,3.42 c -2.35,1.33 -4.91,2.29 -7.54,2.71 -4.59,55.22 -15.49,109.92 -32.15,162.82 20.75,67.1 53.7,130.42 97.48,185.37 16.6,20.83 34.98,40.75 57.59,54.82 18.03,11.22 39.1,18.47 60.17,18.47 5.36,0 10.73,-0.47 16.04,-1.47 26.19,-4.9 50.35,-24.12 56.78,-49.97 1.26,-5.06 1.84,-10.15 1.84,-15.23 0,-22.9 -11.69,-45.65 -25.2,-64.87 -24.18,-34.45 -54.81,-63.82 -81.18,-96.62 -7.36,-9.14 -14.38,-18.57 -21.05,-28.24 -0.92,-0.65 -1.83,-1.34 -2.72,-2.05 -9.69,-7.74 -14.95,-17.89 -17.17,-29.31 -1.98,-3.41 -3.92,-6.84 -5.82,-10.3 -1.62,-2.96 -3.22,-5.93 -4.78,-8.92 l -13.26,24.46 c -3.43,6.32 -9.92,9.85 -16.68,9.85 -2.8,0 -5.64,-0.6 -8.32,-1.86 -4.72,-2.21 -9.25,-4.88 -13.61,-7.9 27.63,82.95 74.44,171.86 153.7,237.12 1.65,1.35 1.89,3.79 0.53,5.44 -0.76,0.92 -1.86,1.4 -2.97,1.4 -0.87,0 -1.74,-0.29 -2.47,-0.88 -84.11,-69.25 -132.19,-164.54 -159.67,-251.69 -4.33,-3.85 -8.43,-8.03 -12.27,-12.41 -10.22,-11.66 -15.94,-26.65 -15.94,-42.04 v 0 c 0,-1.67 0.07,-3.34 0.21,-5.01 0.96,-11.87 2.49,-23.83 4.53,-35.68 -2.45,-13.39 -4.45,-26.14 -6.07,-38.01"
         style="fill:#c171bf;fill-opacity:1;fill-rule:nonzero;stroke:none"
         id="path282" /><path
         d="m 4336.4,1652.86 c 1.71,0.34 3.04,1.81 3.11,3.62 3.1,70.92 26.15,312.98 192.96,450.32 1.65,1.35 1.89,3.79 0.53,5.44 -1.36,1.65 -3.78,1.87 -5.44,0.52 -169.28,-139.37 -192.64,-384.21 -195.77,-455.93 -0.09,-2.13 1.56,-3.94 3.69,-4.04 l 0.92,0.07"
         style="fill:#ededeb;fill-opacity:1;fill-rule:nonzero;stroke:none"
         id="path284" /><path
         d="m 4312.02,1645.19 c 5.05,-27.84 28.96,-62.29 54.17,-75.12 24.99,-12.72 54.01,-16.13 81.97,-13.72 28.46,2.45 56.12,10.61 83.2,19.73 13.37,4.51 28.24,10.58 29.67,27.15 0.75,8.74 -3.18,17.21 -9.46,23.33 -2.64,2.57 -5.54,5.07 -8.64,7.43 -6.3,4.81 -3.34,14.82 4.56,15.36 7.96,0.54 15.88,1.43 23.71,2.93 18.11,3.45 35.94,10.37 49.79,22.52 10.41,9.14 18.29,21.04 23,34.06 4.02,11.14 5.14,25.11 -3.28,33.43 -4.85,4.78 -11.8,6.59 -18.45,8.02 -5.93,1.28 -11.88,2.38 -17.83,3.3 -7.92,1.23 -9.24,12.04 -1.84,15.13 l 25.16,10.48 c 6.98,2.91 14.26,6.02 19.09,11.85 7.7,9.29 7.15,22.82 4.84,34.66 -3.07,15.75 -8.51,30.94 -12.22,46.56 -3.71,15.6 -5.65,32.08 -1.66,47.62 -46.98,4.77 -95.24,2.53 -140.93,-9.4 -13.64,-3.57 -27.44,-8.04 -38.46,-16.85 -15.69,-12.55 -19.77,-31.38 -18.1,-51.79 0.31,-3.88 -5.01,-5.35 -6.86,-1.93 l -16.07,29.65 c -4.85,8.93 -15.81,12.29 -25,7.99 -13.87,-6.52 -26.25,-16.94 -36.76,-28.92 -11.33,-12.92 -17.12,-29.93 -15.73,-47.05 1.87,-23.16 5.91,-46.61 11.71,-69.08 1.53,-5.89 -5.06,-10.31 -10,-6.76 l -0.77,0.55 c -4.38,3.18 -9.77,5.08 -15.15,4.41 -14.21,-1.76 -17.84,-16.16 -18.78,-28.42 -1.37,-17.73 1.78,-38.65 5.12,-57.12"
         style="fill:#ad58b2;fill-opacity:1;fill-rule:nonzero;stroke:none"
         id="path286" /><path
         d="m 4431.7,1555.63 c -22.68,0 -45.4,4.21 -65.51,14.44 -13.18,6.71 -26,19.32 -35.96,33.81 2.04,22.4 3.07,44.91 3.06,67.46 v 0 0 0 0 c 0,19.78 -0.84,39.57 -2.48,59.29 3.59,-0.58 7.04,-2.15 10.02,-4.31 l 0.77,-0.55 c 1.23,-0.88 2.55,-1.27 3.83,-1.27 3.36,0 6.4,2.71 6.4,6.31 v 0 c 0,0.56 -0.07,1.13 -0.23,1.72 -1.04,4.05 -2.03,8.14 -2.96,12.25 -1.58,6.99 -2.99,14.05 -4.22,21.15 -2.04,11.85 -3.57,23.81 -4.53,35.68 -0.14,1.67 -0.21,3.34 -0.21,5.01 0,15.39 5.72,30.38 15.94,42.04 10.51,11.98 22.89,22.4 36.76,28.92 2.68,1.26 5.52,1.86 8.32,1.86 6.76,0 13.25,-3.53 16.68,-9.85 l 16.07,-29.65 c 0.72,-1.33 1.96,-1.92 3.19,-1.92 1.85,0 3.68,1.34 3.68,3.52 v 0 c 0,0.1 -0.01,0.21 -0.01,0.33 -0.23,2.79 -0.35,5.55 -0.35,8.27 0.01,17.17 4.9,32.69 18.45,43.52 11.02,8.81 24.82,13.28 38.46,16.85 31.05,8.11 63.28,11.74 95.49,11.74 15.19,0 30.38,-0.81 45.44,-2.34 -1.56,-6.07 -2.21,-12.28 -2.21,-18.53 v 0 c 0.01,-9.75 1.61,-19.59 3.87,-29.09 3.71,-15.62 9.15,-30.81 12.22,-46.56 0.89,-4.53 1.51,-9.31 1.52,-14.01 0,-7.57 -1.61,-14.91 -6.36,-20.65 -4.83,-5.83 -12.11,-8.94 -19.09,-11.85 l -25.16,-10.48 c -3.32,-1.39 -4.89,-4.33 -4.89,-7.27 v 0 c 0,-3.6 2.36,-7.18 6.73,-7.86 5.95,-0.92 11.9,-2.02 17.83,-3.3 6.65,-1.43 13.6,-3.24 18.45,-8.02 4.57,-4.51 6.33,-10.7 6.34,-17.19 0.01,-5.47 -1.22,-11.15 -3.06,-16.24 -4.71,-13.02 -12.59,-24.92 -23,-34.06 -13.85,-12.15 -31.68,-19.07 -49.79,-22.52 -7.83,-1.5 -15.75,-2.39 -23.71,-2.93 -4.97,-0.34 -7.98,-4.43 -7.97,-8.61 v 0 c 0.01,-2.46 1.07,-4.96 3.41,-6.75 3.1,-2.36 6,-4.86 8.64,-7.43 5.77,-5.62 9.55,-13.21 9.55,-21.18 0,-0.72 -0.03,-1.43 -0.09,-2.15 -1.43,-16.57 -16.3,-22.64 -29.67,-27.15 -27.08,-9.12 -54.74,-17.28 -83.2,-19.73 -5.46,-0.47 -10.96,-0.72 -16.46,-0.72"
         style="fill:#b05fb6;fill-opacity:1;fill-rule:nonzero;stroke:none"
         id="path288" /><path
         d="m 4386.76,1573.94 c 0.2,0.99 9.92,48.15 37.9,109.85 0,1.11 0.47,2.15 1.34,2.89 0.88,1.91 1.74,3.81 2.65,5.74 -8.03,73.79 -37.25,125.27 -37.54,125.77 -1.07,1.86 -0.43,4.21 1.41,5.29 1.85,1.03 4.21,0.43 5.28,-1.43 0.29,-0.5 27.17,-47.84 37.02,-116.91 32.08,64.34 83.26,139.6 162.27,194.59 1.77,1.21 4.16,0.79 5.38,-0.97 1.22,-1.75 0.79,-4.16 -0.95,-5.38 -81.51,-56.72 -132.94,-135.34 -164.19,-200.59 63.68,31.01 131.33,18.74 134.33,18.18 2.1,-0.39 3.48,-2.42 3.08,-4.52 -0.3,-1.6 -1.54,-2.77 -3.05,-3.07 h -1.47 c -0.73,0.14 -74.49,13.54 -138.26,-22.11 -27.77,-61.08 -37.43,-107.84 -37.62,-108.82 -0.31,-1.58 -1.55,-2.75 -3.05,-3.05 h -1.48 c -2.1,0.42 -3.46,2.46 -3.05,4.54"
         style="fill:#ededeb;fill-opacity:1;fill-rule:nonzero;stroke:none"
         id="path290" /><path
         d="m 691.152,1260.72 -184.547,-5.38 -184.542,5.38 c -7.95,-124.63 16.382,-251.63 49.929,-313.669 l 0.129,0.019 c 6.008,-13.609 18.082,-26.519 36.527,-37.179 54.461,-31.43 142.454,-31.43 196.555,0 18.762,10.898 30.82,24.168 36.508,38.14 33.289,62.369 57.352,188.679 49.441,312.689"
         style="fill:#ffffff;fill-opacity:1;fill-rule:nonzero;stroke:none"
         id="path292" /><path
         d="m 636.668,1336.31 c 72.309,-41.75 72.691,-109.43 0.855,-151.17 -71.835,-41.75 -188.683,-41.75 -260.988,0 -72.297,41.74 -72.68,109.42 -0.844,151.17 71.836,41.74 188.676,41.75 260.977,0"
         style="fill:#e7e8e5;fill-opacity:1;fill-rule:nonzero;stroke:none"
         id="path294" /><path
         d="m 608.078,1319.7 c 56.414,-32.58 56.711,-85.38 0.672,-117.94 -56.051,-32.57 -147.207,-32.58 -203.621,-0.01 -56.406,32.57 -56.703,85.37 -0.656,117.95 56.039,32.56 147.195,32.56 203.605,0"
         style="fill:#dadbd8;fill-opacity:1;fill-rule:nonzero;stroke:none"
         id="path296" /><path
         d="m 507.059,1177.33 c -36.844,0 -73.727,8.14 -101.93,24.42 -28.313,16.35 -42.488,37.79 -42.496,59.22 -0.008,14.37 6.363,28.74 19.113,41.55 38.77,-62.68 69.844,-82.99 92.168,-82.99 16.348,0 27.996,10.9 34.52,24.04 4.785,-13.88 15.468,-26.06 32.843,-26.06 21.578,0 53.477,18.8 97.192,76.5 8.07,-10.67 12.109,-22.11 12.117,-33.54 0.008,-21.26 -13.926,-42.5 -41.836,-58.71 -28.031,-16.29 -64.84,-24.43 -101.691,-24.43"
         style="fill:#b4b6b4;fill-opacity:1;fill-rule:nonzero;stroke:none"
         id="path298" /><path
         d="m 810.023,2048.21 c -415.878,-136.17 -419.644,-414.39 -325.89,-612.52 23.644,-40.11 95.203,-61.65 157.484,184.76 l -109.234,-14 127.305,64.52 33.058,98.83 -106.137,-7.88 134.723,56.67 c 49.637,150.15 88.691,229.62 88.691,229.62"
         style="fill:#ad58b2;fill-opacity:1;fill-rule:nonzero;stroke:none"
         id="path300" /><path
         d="m 523.617,1445.86 c -3.902,23.18 -10.015,46.08 -18.691,68.38 -12.367,146 3.566,296.22 187.469,464.39 -171.243,-129.97 -220.848,-274.79 -204.872,-426.88 -13.644,25.07 -31.031,49.04 -52.691,71.37 -0.289,6.2 -0.441,12.43 -0.437,18.65 0.019,154.57 91.945,313.56 375.628,406.44 0,0 -25.64,-52.17 -61.773,-151.84 -8.461,-23.34 -17.5,-49.28 -26.918,-77.78 l -19.477,-8.19 -88.925,-37.41 -26.321,-11.07 106.137,7.88 -33.058,-98.83 -46.758,-23.7 -80.547,-40.82 109.234,14 c -2.769,-10.96 -5.554,-21.38 -8.359,-31.31 -55.028,-38.83 -89.817,-88.87 -109.641,-143.28"
         style="fill:#b05fb6;fill-opacity:1;fill-rule:nonzero;stroke:none"
         id="path302" /><path
         d="m 692.395,1978.63 c -219.309,-166.45 -239.11,-357.28 -177.153,-556.51 -21.918,175.43 -45.605,352.8 177.153,556.51"
         style="fill:#ffffff;fill-opacity:1;fill-rule:nonzero;stroke:none"
         id="path304" /><path
         d="m 105.625,1765.59 c 409.945,-57.72 459.676,-316.22 405.281,-516.3 -15.355,-41.29 -78.426,-73.24 -177.367,145.9 l 104.059,5.11 -129.282,38.94 -47.211,86.55 100.157,10.29 -134.887,30.39 c -71.172,131.59 -120.75,199.12 -120.75,199.12"
         style="fill:#ad58b2;fill-opacity:1;fill-rule:nonzero;stroke:none"
         id="path306" /><path
         d="m 473.914,1219.53 c -30.93,0 -78.676,39.01 -140.375,175.66 l 104.059,5.11 -129.282,38.94 -47.211,86.55 100.157,10.29 -134.887,30.39 c -71.172,131.59 -120.75,199.12 -120.75,199.12 281.984,-39.7 393.531,-174.39 417.992,-319.73 -15.164,-41.62 -21.574,-85.81 -21.582,-129.47 0,-22.84 1.746,-45.54 4.906,-67.66 0.411,-1.73 0.907,-3.46 1.493,-5.16 -6.524,-13.14 -18.172,-24.04 -34.52,-24.04"
         style="fill:#b662b8;fill-opacity:1;fill-rule:nonzero;stroke:none"
         id="path308" /><path
         d="m 226.73,1720.33 c 231.911,-118.58 282.055,-293.02 257.458,-488.86 -8.735,167.03 -16.149,336.16 -257.458,488.86"
         style="fill:#ffffff;fill-opacity:1;fill-rule:nonzero;stroke:none"
         id="path310" /><path
         d="m 930.008,1668.72 c -375.945,-6.14 -449.703,-233.55 -423.067,-419.99 9.219,-38.93 62.485,-74.77 176.192,111.66 l -93.215,16.25 120.871,20.63 52.246,72.73 -89.121,20.49 124.977,12.28 c 78.875,110.64 131.117,165.95 131.117,165.95"
         style="fill:#ad58b2;fill-opacity:1;fill-rule:nonzero;stroke:none"
         id="path312" /><path
         d="M 815.785,1641.49 C 593.492,1560.57 528.777,1408.96 529.027,1229.7 c 26.567,149.55 52.176,301.16 286.758,411.79"
         style="fill:#ffffff;fill-opacity:1;fill-rule:nonzero;stroke:none"
         id="path314" /><path
         d="m 541.277,1217.51 c -17.375,0 -28.058,12.18 -32.843,26.06 -0.586,1.7 -1.082,3.43 -1.493,5.16 -3.16,22.12 -4.906,44.82 -4.906,67.66 0.028,169.63 96.633,346.92 427.973,352.33 0,0 -52.242,-55.31 -131.117,-165.95 l -50.641,-4.97 -74.336,-7.31 89.121,-20.49 -52.246,-72.73 -8.934,-1.53 -88.925,-15.17 -23.012,-3.93 93.215,-16.25 C 615.773,1249.95 569.621,1217.51 541.277,1217.51 m 274.508,423.98 C 593.492,1560.57 528.777,1408.96 529.027,1229.7 c 26.567,149.55 52.176,301.16 286.758,411.79"
         style="fill:#c171bf;fill-opacity:1;fill-rule:nonzero;stroke:none"
         id="path316" /><path
         d="m 529.027,1229.7 c -0.25,179.26 64.465,330.87 286.758,411.79 C 581.203,1530.86 555.594,1379.25 529.027,1229.7"
         style="fill:#ffffff;fill-opacity:1;fill-rule:nonzero;stroke:none"
         id="path318" /><path
         d="m 3098.28,2044.39 c -98.7,-68.54 -209.86,-115.95 -292.29,-207.85 -153.96,-171.64 -157.55,-447.79 -36.63,-644.11 120.92,-196.321 345.8,-314.27 574.78,-341.258 240.25,-28.332 492.36,38.066 680.84,189.698 188.49,151.64 308.4,388.55 308.31,630.47 -0.08,241.91 -123.99,482.79 -326.62,614.94 -184.86,120.56 -450.49,154.95 -635.96,17 -93.78,-69.74 -156.29,-172.68 -249.83,-242.63 -7.44,-5.56 -14.98,-10.97 -22.6,-16.26"
         style="fill:#ad58b2;fill-opacity:1;fill-rule:nonzero;stroke:none"
         id="path320" /><path
         d="m 3453.29,844.789 c -36.47,0 -72.96,2.109 -109.15,6.383 19.43,-2.281 38.94,-3.891 58.49,-4.953 192.02,37.25 365.92,116.402 500.48,229.851 193.13,162.83 305.74,397.77 301.21,628.45 -4.03,205.85 -101.89,406.2 -261.74,535.94 -90.1,73.12 -198.1,122.31 -311.41,144.47 l 1.01,7.24 c 7.89,0.33 15.78,0.5 23.69,0.5 123.52,0 249.33,-40.22 350.8,-106.39 202.63,-132.15 326.54,-373.03 326.62,-614.94 0.01,-22.55 -1.02,-45.06 -3.06,-67.46 v 0 c -2.11,-23.24 -5.3,-46.37 -9.52,-69.31 v 0 c -1.43,-7.77 -2.98,-15.51 -4.65,-23.23 -11.59,-53.76 -28.82,-106.34 -51.1,-156.77 -10.47,-23.71 -22.05,-46.94 -34.69,-69.61 -52.08,-93.4 -121.98,-177.07 -205.29,-244.09 C 3864.89,912.082 3658.92,844.781 3453.29,844.789 m -109.15,6.383 c -80.48,9.488 -160.47,30.219 -235.61,61.629 0,0.019 0,0.031 -0.01,0.051 13.93,-5.832 28.04,-11.293 42.27,-16.383 -15.9,44.769 -18.81,94.832 -12.3,142.281 0.22,1.63 0.45,3.27 0.68,4.9 15.7,109.97 101.43,195.52 210.52,216.46 95.03,18.24 186.87,53.2 269.67,103.28 58.93,35.64 114.61,79.32 180.72,98.63 25.62,7.49 53.89,11.35 82.33,11.35 39.28,0 78.91,-7.35 112.44,-22.66 v 0 0 c -40.75,42.78 -102.84,68 -163.07,68 -21.9,0 -43.55,-3.34 -63.85,-10.37 52.69,80.64 99.05,167.51 117.2,262.11 18.15,94.6 5.25,198.42 -51.79,276.03 -48.13,65.5 -126.29,107.96 -207.43,112.78 -1.91,13.94 -3.13,28 -3.61,42.14 l -3.33,96.46 9.62,68.67 c 109.99,-21.67 214.78,-69.53 302.25,-140.52 155.66,-126.33 250.93,-321.42 254.87,-521.85 4.41,-225.14 -105.72,-454.62 -294.6,-613.85 -148.03,-124.81 -344.66,-207.56 -560.8,-237.33 4.61,-0.628 9.22,-1.261 13.83,-1.808 M 3022.1,954.969 c -3.54,1.98 -7.04,4 -10.54,6.043 0.01,0.008 0.02,0.027 0.02,0.039 3.5,-2.039 7.01,-4.051 10.53,-6.031 0,-0.02 -0.01,-0.04 -0.01,-0.051 m -221.19,191.061 c -11.16,14.94 -21.71,30.42 -31.55,46.4 -55.97,90.88 -85.27,198.86 -85.32,305.66 -0.06,123.92 39.26,246.26 121.95,338.45 34.97,38.98 75.1,69.96 117.27,97.94 18.08,-14.39 41.15,-22.78 64.17,-22.78 8.17,0 16.32,1.06 24.25,3.27 4.92,1.37 9.73,3.27 14.37,5.61 l 49.67,-92.47 c 4.11,-7.64 15.26,-18.3 25.13,-23.84 l 6.09,-3.43 -271.57,-151.3 c -69.28,-38.6 -106.2,-117.13 -91.72,-195.11 l 57.26,-308.4 m 356.52,793.19 -13.69,25.47 -0.32,0.58 -0.38,0.64 -0.4,0.64 -0.44,0.67 -0.46,0.68 -0.5,0.68 -0.51,0.7 -0.51,0.66 -0.5,0.63 -0.47,0.56 -0.41,0.49 -0.41,0.49 -0.34,0.38 -0.3,0.35 -0.32,0.34 -0.31,0.35 -0.24,0.26 -0.24,0.25 -0.23,0.26 -0.24,0.24 -0.24,0.25 -0.21,0.24 -0.22,0.21 -0.2,0.22 -0.22,0.21 -0.21,0.22 -0.21,0.2 -0.22,0.23 -0.24,0.23 -0.24,0.24 -0.24,0.22 -0.24,0.24 -0.24,0.23 -0.38,0.36 -0.43,0.4 -0.44,0.4 -1.65,1.48 -0.36,0.31 -0.36,0.31 -0.36,0.3 -0.36,0.31 -0.24,0.19 -0.23,0.2 -0.23,0.19 -0.25,0.2 -0.23,0.18 -0.24,0.19 -0.23,0.2 -0.24,0.17 -0.22,0.19 -0.23,0.17 -0.23,0.18 -0.23,0.17 -0.26,0.2 -0.28,0.21 -0.28,0.21 -0.29,0.21 -0.28,0.21 -0.28,0.21 -0.39,0.29 -0.4,0.27 -0.39,0.27 -0.43,0.3 -0.55,0.38 -0.56,0.36 -0.62,0.4 -0.69,0.44 -0.71,0.43 -0.75,0.44 -0.43,0.24 -33.44,18.81 12.45,36.43 c 0.24,0.17 0.48,0.34 0.72,0.5 7.62,5.29 15.16,10.7 22.6,16.26 18.49,13.83 35.76,28.94 52.31,44.83 10.03,-12.31 15.45,-27.64 15.48,-43.36 0,-3 -0.19,-6 -0.58,-9.01 l -30.66,-113.89"
         style="fill:#a651af;fill-opacity:1;fill-rule:nonzero;stroke:none"
         id="path322" /><path
         d="m 3150.79,896.469 c -14.23,5.09 -28.34,10.551 -42.27,16.383 -8.74,29.078 -17.33,55.488 -22.21,70.257 0.19,1.481 0.51,2.922 0.6,4.422 0.07,1.258 0.11,2.52 0.11,3.77 0.02,17.659 -6.82,34.939 -16.59,49.729 -3.46,5.25 -7.27,10.22 -11.32,15 5.98,14.29 11.7,29.34 17.18,45.57 37.24,110.17 62.06,186.19 62.06,186.19 l 309.62,84.62 c 144.74,39.56 251.48,163.06 268.28,312.16 5.28,46.82 5.52,78.79 5.52,78.79 v 0 0 0 0 0 0 c 0,119.96 -30.23,210.05 -56.74,265.98 -19.53,41.21 -32.94,84.96 -39.12,129.92 81.14,-4.82 159.3,-47.28 207.43,-112.78 57.04,-77.61 69.94,-181.43 51.79,-276.03 -18.15,-94.6 -64.51,-181.47 -117.2,-262.11 20.3,7.03 41.95,10.37 63.85,10.37 60.23,0 122.32,-25.22 163.07,-68 -33.53,15.31 -73.16,22.66 -112.44,22.66 -28.44,0 -56.71,-3.86 -82.33,-11.35 -66.11,-19.31 -121.79,-62.99 -180.72,-98.63 -82.8,-50.08 -174.64,-85.04 -269.67,-103.28 -109.09,-20.94 -194.82,-106.49 -210.52,-216.46 -0.23,-1.63 -0.46,-3.27 -0.68,-4.9 -6.51,-47.449 -3.6,-97.512 12.3,-142.281 m -128.68,58.551 c -3.52,1.98 -7.03,3.992 -10.53,6.031 11.24,19.961 21.74,39.359 31.61,59.729 -0.7,-3.74 -1.52,-7.44 -2.46,-11.07 -4.83,-18.651 -12.22,-36.53 -18.62,-54.69"
         style="fill:#974ba7;fill-opacity:1;fill-rule:nonzero;stroke:none"
         id="path324" /><path
         d="m 4204.32,1704.52 c -4.03,205.85 -101.89,406.2 -261.74,535.94 -97.79,79.37 -216.68,130.53 -340.55,149.55 -22.98,-2.26 -45.73,-6.08 -68.1,-11.43 143.73,-8.4 284.61,-61.42 396.91,-152.57 155.66,-126.33 250.93,-321.42 254.87,-521.85 4.41,-225.14 -105.72,-454.62 -294.6,-613.85 -148.03,-124.81 -344.66,-207.56 -560.8,-237.33 4.61,-0.628 9.22,-1.261 13.83,-1.808 19.43,-2.281 38.94,-3.891 58.49,-4.953 192.02,37.25 365.92,116.402 500.48,229.851 193.13,162.83 305.74,397.77 301.21,628.45"
         style="fill:#ffffff;fill-opacity:1;fill-rule:nonzero;stroke:none"
         id="path326" /><path
         d="m 3051.32,873.172 24.74,-49.024 c 34.96,32.332 41.3,58.454 41.3,58.454 -11.31,40.019 -24.51,80.718 -31.05,100.507 -3.37,-27.55 -22.19,-51.289 -30.12,-78.187 -3.05,-10.371 -4.4,-20.992 -4.87,-31.75"
         style="fill:#273e47;fill-opacity:1;fill-rule:nonzero;stroke:none"
         id="path328" /><path
         d="m 3052.5,822.961 23.56,1.187 -24.74,49.024 c -0.72,-16.563 0.65,-33.434 1.18,-50.211"
         style="fill:#17282f;fill-opacity:1;fill-rule:nonzero;stroke:none"
         id="path330" /><path
         d="m 3070.43,1041.03 c -8.28,12.54 -18.59,23.54 -29.26,34.17 6.74,-20.55 5.07,-44.15 -0.44,-65.49 -7.36,-28.429 -20.69,-55.081 -27.34,-83.671 -8.09,-34.809 -6.25,-72.219 -20.99,-104.777 -14.34,-31.672 -44.48,-55.711 -78.54,-62.66 -12.63,-2.563 -26.64,-2.653 -37.35,4.5 -4.85,3.226 -8.44,8.367 -10.28,13.898 -7.48,-15.43 -16.29,-30.16 -26.81,-43.77 -11.67,-15.07 -26.14,-31.601 -22.97,-50.398 2.62,-15.543 17.41,-26.801 32.85,-30 15.43,-3.203 31.42,0.047 46.72,3.859 32.83,8.18 65.47,19.18 93.5,38.141 28.02,18.957 51.25,46.68 59.32,79.547 3.9,15.832 4.18,32.152 3.66,48.582 -0.53,16.777 -1.9,33.648 -1.18,50.211 0.47,10.758 1.82,21.379 4.87,31.75 7.93,26.898 26.75,50.637 30.12,78.187 0.19,1.481 0.51,2.922 0.6,4.422 1.09,18.949 -6.02,37.649 -16.48,53.499"
         style="fill:#33535f;fill-opacity:1;fill-rule:nonzero;stroke:none"
         id="path332" /><path
         d="m 2862.61,651.531 c -4.46,0 -8.91,0.391 -13.31,1.301 -15.44,3.199 -30.23,14.457 -32.85,30 -0.3,1.797 -0.45,3.578 -0.44,5.34 0.02,16.609 12.85,31.437 23.41,45.058 10.52,13.61 19.33,28.34 26.81,43.77 1.84,-5.531 5.43,-10.672 10.28,-13.898 6.64,-4.442 14.56,-6.09 22.63,-6.09 4.93,0 9.93,0.617 14.72,1.59 34.06,6.949 64.2,30.988 78.54,62.66 14.74,32.558 12.9,69.968 20.99,104.777 6.65,28.59 19.98,55.242 27.34,83.671 0.94,3.63 1.76,7.33 2.46,11.07 5.5,11.37 10.8,23.04 15.92,35.25 4.05,-4.78 7.86,-9.75 11.32,-15 9.77,-14.79 16.61,-32.07 16.59,-49.729 0,-1.25 -0.04,-2.512 -0.11,-3.77 -0.09,-1.5 -0.41,-2.941 -0.6,-4.422 v 0 c -3.37,-27.55 -22.19,-51.289 -30.12,-78.187 -3.05,-10.371 -4.4,-20.992 -4.87,-31.75 v 0 0 c -0.15,-3.363 -0.21,-6.742 -0.2,-10.121 v 0 c 0,-13.289 0.96,-26.723 1.38,-40.09 0.12,-3.789 0.2,-7.57 0.2,-11.34 0,-12.582 -0.86,-25.062 -3.86,-37.242 -8.07,-32.867 -31.3,-60.59 -59.32,-79.547 -28.03,-18.961 -60.67,-29.961 -93.5,-38.141 -10.94,-2.722 -22.22,-5.16 -33.41,-5.16"
         style="fill:#2c4954;fill-opacity:1;fill-rule:nonzero;stroke:none"
         id="path334" /><path
         d="m 2913.86,758.602 c 34.06,6.949 64.2,30.988 78.54,62.66 14.74,32.558 12.9,69.968 20.99,104.769 6.65,28.598 19.98,55.25 27.34,83.679 5.51,21.33 7.18,44.94 0.44,65.48 -2.81,2.8 -5.64,5.59 -8.47,8.35 -42.19,-21.85 -90.16,-39.84 -128.57,-67.8 -0.46,-49.22 -0.95,-98.689 -9.37,-147.189 -5.48,-31.551 -14.59,-62.813 -28.53,-91.551 1.84,-5.539 5.43,-10.672 10.28,-13.898 10.71,-7.153 24.72,-7.071 37.35,-4.5"
         style="fill:#bb4e5b;fill-opacity:1;fill-rule:nonzero;stroke:none"
         id="path336" /><path
         d="m 2770.62,888.449 c -6.98,-40.738 -38.16,-123.64 -38.16,-123.64 0,0 146.16,-5.938 149.38,0.781 l 42.98,66.422 -154.2,56.437"
         style="fill:#d66d79;fill-opacity:1;fill-rule:nonzero;stroke:none"
         id="path338" /><path
         d="m 3208.18,1857.25 -372.81,-207.71 c -69.28,-38.6 -106.2,-117.13 -91.72,-195.11 l 72.36,-389.67 -59.36,-188.53 c 51.2,-68.66 168.74,-72.148 168.74,-72.148 65.56,131.5 113.67,187.359 150.9,297.518 37.24,110.17 62.06,186.19 62.06,186.19 l 309.62,84.62 c 144.74,39.56 251.48,163.06 268.28,312.16 5.28,46.82 5.52,78.79 5.52,78.79 l -513.59,93.89"
         style="fill:#33535f;fill-opacity:1;fill-rule:nonzero;stroke:none"
         id="path340" /><path
         d="m 2816.01,1064.76 83.97,339.08 c 9.66,39 34.21,72.67 68.39,93.8 l 214.78,132.12 c -24.83,62.07 -0.28,104.73 -0.28,104.73 -0.09,-41.2 14.97,-82.26 41.69,-113.61 l -234.94,-146.66 c -38.59,-24.16 -67.19,-61.45 -80.51,-104.99 l -93.1,-304.47"
         style="fill:#263f48;fill-opacity:1;fill-rule:nonzero;stroke:none"
         id="path342" /><path
         d="m 2811.74,575.852 3.47,-54.813 c 44.86,16 60.96,37.5 60.96,37.5 5.33,41.262 9.2,83.871 10.97,104.633 -13.93,-24.012 -40.56,-38.434 -58.44,-60.051 -6.89,-8.332 -12.3,-17.562 -16.96,-27.269"
         style="fill:#273e47;fill-opacity:1;fill-rule:nonzero;stroke:none"
         id="path344" /><path
         d="m 2793.08,529.219 22.13,-8.18 -3.47,54.813 c -7.18,-14.942 -12.56,-31 -18.66,-46.633"
         style="fill:#17282f;fill-opacity:1;fill-rule:nonzero;stroke:none"
         id="path346" /><path
         d="m 2895.32,722.68 c -2.69,14.781 -7.85,28.949 -13.48,42.91 -1.88,-21.539 -12.7,-42.59 -26.16,-60.031 -17.93,-23.25 -40.67,-42.508 -58.03,-66.188 -21.12,-28.812 -34.14,-63.941 -60.5,-88.082 -25.64,-23.48 -62.79,-33.73 -96.85,-26.73 -12.61,2.601 -25.54,8.031 -32.57,18.82 -3.19,4.871 -4.47,11 -3.98,16.82 -12.95,-11.25 -26.84,-21.328 -41.87,-29.687 -16.65,-9.274 -36.46,-18.793 -40.93,-37.321 -3.71,-15.32 5.47,-31.48 18.4,-40.5 12.93,-9.019 28.91,-12.312 44.47,-14.82 33.41,-5.391 67.75,-8.101 100.97,-1.691 33.22,6.41 65.48,22.761 85.83,49.808 9.8,13.024 16.48,27.934 22.46,43.231 6.1,15.633 11.48,31.691 18.66,46.633 4.66,9.707 10.07,18.937 16.96,27.269 17.88,21.617 44.51,36.039 58.44,60.051 0.74,1.289 1.61,2.476 2.29,3.828 8.45,17 9.27,36.992 5.89,55.68"
         style="fill:#33535f;fill-opacity:1;fill-rule:nonzero;stroke:none"
         id="path348" /><path
         d="m 2640.3,524.559 c 34.06,-7 71.21,3.25 96.85,26.73 26.36,24.141 39.38,59.27 60.5,88.082 17.36,23.68 40.1,42.938 58.03,66.188 13.46,17.441 24.28,38.492 26.16,60.031 -1.49,3.68 -2.99,7.351 -4.5,11.012 -47.39,-3.5 -98.56,-1.18 -144.88,-11.793 -19.78,-45.059 -39.68,-90.368 -66.49,-131.649 -17.44,-26.851 -38.11,-52.012 -62.22,-72.961 -0.49,-5.82 0.79,-11.949 3.98,-16.82 7.03,-10.789 19.96,-16.219 32.57,-18.82"
         style="fill:#d66d79;fill-opacity:1;fill-rule:nonzero;stroke:none"
         id="path350" /><path
         d="m 3590.29,2407.93 c 60.82,139.12 64.64,302.18 10.39,443.98 -17.39,45.44 -42.01,90.47 -82.32,117.69 -51.54,34.8 -118.32,34.28 -180.49,32.49 -33,-0.94 -66.69,-2.02 -97.68,-13.41 -31,-11.39 -56.45,-35.88 -64.55,-67.89 -40.63,7.55 -81.68,-24.6 -92.64,-64.45 -10.96,-39.84 3.4,-83.37 28.65,-116.08 25.27,-32.71 60.29,-56.33 95.58,-77.84 -21.32,-11.18 -37.14,-37.05 -44.6,-59.93 -7.47,-22.87 -5.65,-48.63 4.97,-70.23 -37.49,0.97 -75.69,-26.56 -87.32,-62.21 -11.64,-35.65 -1.78,-76.32 21.07,-106.05 22.85,-29.73 57.35,-49.14 93.64,-58.59 36.29,-9.45 74.43,-9.59 111.76,-6.01 38.59,-37.39 109.35,-36.61 157.79,-13.35 48.46,23.26 104.21,72.64 125.75,121.88"
         style="fill:#17282f;fill-opacity:1;fill-rule:nonzero;stroke:none"
         id="path352" /><path
         d="m 3244.76,2501.8 -9.48,-0.11 c -63.54,-0.71 -143.91,-43.93 -183.18,-154.81 l -152.59,-295.55 174.2,-77.24 95.3,278.98 75.75,248.73"
         style="fill:#d66d79;fill-opacity:1;fill-rule:nonzero;stroke:none"
         id="path354" /><path
         d="m 3122.41,2305.64 c -12.17,-34.9 -12.93,-72.56 -14.84,-109.48 -1.92,-36.91 -6.2,-81.49 -23.1,-114.36 -18.47,12.77 -41.11,19.39 -63.54,18.57 -22.44,-0.81 -44.54,-9.06 -62.02,-23.14 -12.58,-10.13 -21.92,-24.06 -28.25,-39.71 l 143.05,-63.43 95.3,278.98 46.85,153.83 c -42.84,-19.66 -77.89,-56.65 -93.45,-101.26"
         style="fill:#bb4e5b;fill-opacity:1;fill-rule:nonzero;stroke:none"
         id="path356" /><path
         d="m 3075.32,2027.43 c -12.83,32.94 -43.91,58.08 -78.8,63.71 -34.9,5.65 -74.48,-12.59 -97.01,-39.81 -19.02,-22.96 -16.03,-54.01 -4.05,-81.3 18.8,-42.8 71.2,-67.63 116.22,-55.06 45.03,12.57 80.59,68.9 63.64,112.46"
         style="fill:#d66d79;fill-opacity:1;fill-rule:nonzero;stroke:none"
         id="path358" /><path
         d="m 3260.82,2507.21 c -67.27,-10.68 -108.94,-180.74 -130.78,-245.27 -22.58,-66.72 8.12,-115.11 42.3,-155.44 12.54,-14.78 18.26,-34.17 15.75,-53.39 l -70.72,-262.7 c 193.03,-143.32 516.66,-73.85 604.4,-27.05 0,119.96 -30.23,210.05 -56.74,265.98 -25.58,53.99 -40.68,112.35 -42.73,172.06 l -3.33,96.46 23.31,166.36 -167.63,39.88 -147.7,6.58 c 0,0 -44.23,0 -66.13,-3.47"
         style="fill:#ad58b2;fill-opacity:1;fill-rule:nonzero;stroke:none"
         id="path360" /><path
         d="m 3422.21,1704.74 c -59.36,0 -120.84,6.77 -178.62,24.02 l 15.14,17.32 0.44,0.82 0.11,0.73 -0.02,0.63 -0.03,0.21 -0.01,0.05 -0.05,0.34 -0.14,0.59 -0.18,0.57 -0.21,0.58 -0.25,0.57 -0.28,0.59 -0.3,0.59 -0.02,0.04 -100.36,186.83 30.66,113.89 c 0.39,3.01 0.58,6.01 0.58,9.01 -0.03,16.16 -5.75,31.91 -16.33,44.38 -13.44,15.85 -26.33,32.95 -35.67,51.91 -8.75,17.79 -14.37,37.23 -14.37,58.82 0.01,13.96 2.36,28.82 7.74,44.71 21.84,64.53 63.51,234.59 130.78,245.27 21.9,3.47 66.13,3.47 66.13,3.47 l 147.7,-6.58 167.63,-39.88 -11.11,-79.29 -2.58,-18.4 -9.62,-68.67 3.33,-96.46 c 2.05,-59.71 17.15,-118.07 42.73,-172.06 26.51,-55.93 56.74,-146.02 56.74,-265.98 -48.47,-25.85 -168.9,-58.62 -299.56,-58.62 m -178.98,24.13 c -0.03,0.01 -0.02,0.01 -0.05,0.02 0.07,0.15 0.13,0.32 0.16,0.5 l -0.11,-0.52 m 0.3,1.38 c -0.06,1.02 -0.37,2.23 -1.13,3.75 0.66,-1.32 1.05,-2.45 1.19,-3.39 v -0.04 l -0.06,-0.32 m -19.9,4.95 c -37.93,13.17 -73.93,31.21 -106.26,55.21 l 1.06,3.97 105.2,-59.18"
         style="fill:#743583;fill-opacity:1;fill-rule:nonzero;stroke:none"
         id="path362" /><path
         d="m 3243.53,1730.25 c -0.07,1.13 -0.44,2.48 -1.39,4.24 0.82,-1.53 1.29,-2.83 1.45,-3.88 v -0.04 l -0.06,-0.32 m -121.36,224.5 1.58,-1.69 -1.58,1.69 m -8.2,7.96 c 1.21,-1.02 2.47,-1.99 3.6,-3.07 -1.13,1.08 -2.39,2.05 -3.6,3.07 m -150.32,84.65 0.9,0.16 0.04,-0.01 0.46,-0.2 -1.4,0.05 m 295.61,-299.1 -0.03,0.21 -0.01,0.05 -0.05,0.34 -0.14,0.59 -0.18,0.57 -0.21,0.58 -0.25,0.57 -0.28,0.59 -0.3,0.59 -0.02,0.04 -114.05,212.3 -0.32,0.58 -0.38,0.64 -0.4,0.64 -0.44,0.67 -0.46,0.68 -0.5,0.68 -0.51,0.7 -0.51,0.66 -0.5,0.63 -0.47,0.56 -0.41,0.49 -0.41,0.49 -0.34,0.38 -0.3,0.35 -0.32,0.34 -0.31,0.35 -0.24,0.26 -0.24,0.25 -0.23,0.26 -0.24,0.24 -0.24,0.25 -0.21,0.24 -0.22,0.21 -0.2,0.22 -0.22,0.21 -0.21,0.22 -0.21,0.2 -0.22,0.23 -0.24,0.23 -0.24,0.24 -0.24,0.22 -0.24,0.24 -0.24,0.23 -0.38,0.36 -0.43,0.4 -0.44,0.4 -1.65,1.48 -0.36,0.31 -0.36,0.31 -0.36,0.3 -0.36,0.31 -0.24,0.19 -0.23,0.2 -0.23,0.19 -0.25,0.2 -0.23,0.18 -0.24,0.19 -0.23,0.2 -0.24,0.17 -0.22,0.19 -0.23,0.17 -0.23,0.18 -0.23,0.17 -0.26,0.2 -0.28,0.21 -0.28,0.21 -0.29,0.21 -0.28,0.21 -0.28,0.21 -0.39,0.29 -0.4,0.27 -0.39,0.27 -0.43,0.3 -0.55,0.38 -0.56,0.36 -0.62,0.4 -0.69,0.44 -0.71,0.43 -0.75,0.44 -0.43,0.24 -131.11,73.75 -0.31,0.18 -0.76,0.41 -0.73,0.38 -0.73,0.35 -0.7,0.33 -0.69,0.3 -0.69,0.28 -0.69,0.24 -0.7,0.24 -0.72,0.19 -0.48,0.1 -0.05,0.01 -0.21,0.05 -0.78,0.11 -0.92,0.02 -1.98,-0.81 -15.63,-17.9 0.52,0.09 c -1.3,-0.97 -1.38,-3.07 0.49,-6.56 l 114.04,-212.3 c 4.11,-7.64 15.26,-18.3 25.13,-23.84 l 131.11,-73.75 c 6.75,-3.8 10.81,-3.89 11.38,-1.13 l -0.25,-1.21 15.64,17.9 0.44,0.82 0.11,0.73 -0.02,0.63"
         style="fill:#33535f;fill-opacity:1;fill-rule:nonzero;stroke:none"
         id="path364" /><path
         d="m 3243.09,1728.18 c 0.47,0.55 0.64,1.34 0.5,2.39 v 0.04 0 c -0.14,0.94 -0.53,2.07 -1.19,3.39 v 0 c -0.08,0.16 -0.17,0.32 -0.26,0.49 l -114.04,212.3 15.64,17.9 114.05,-212.3 0.02,-0.04 0.3,-0.59 0.28,-0.59 0.25,-0.57 0.21,-0.58 0.18,-0.57 0.14,-0.59 0.05,-0.34 0.01,-0.05 0.03,-0.21 0.02,-0.63 -0.11,-0.73 -0.44,-0.82 -15.14,-17.32 -0.5,-0.58"
         style="fill:#4e6c75;fill-opacity:1;fill-rule:nonzero;stroke:none"
         id="path366" /><path
         d="m 3128.1,1946.79 c -1.04,1.94 -2.53,4.06 -4.32,6.24 l -0.03,0.03 c -1.79,2.17 -3.89,4.41 -6.17,6.58 h -0.01 c -2.27,2.17 -4.73,4.26 -7.22,6.15 l -0.02,0.02 c -2.48,1.9 -5,3.58 -7.43,4.95 l -131.1,73.74 c -2.9,1.63 -5.32,2.62 -7.21,3.01 v 0 l -0.04,0.01 c -0.59,0.12 -1.13,0.18 -1.61,0.18 -1.04,0 -1.81,-0.28 -2.27,-0.82 v 0 l 15.63,17.9 1.98,0.81 0.92,-0.02 0.78,-0.11 0.21,-0.05 0.05,-0.01 0.48,-0.1 0.72,-0.19 0.7,-0.24 0.69,-0.24 0.69,-0.28 0.69,-0.3 0.7,-0.33 0.73,-0.35 0.73,-0.38 0.76,-0.41 0.31,-0.18 131.11,-73.75 0.43,-0.24 0.75,-0.44 0.71,-0.43 0.69,-0.44 0.62,-0.4 0.56,-0.36 0.55,-0.38 0.43,-0.3 0.39,-0.27 0.4,-0.27 0.39,-0.29 0.28,-0.21 0.28,-0.21 0.29,-0.21 0.28,-0.21 0.28,-0.21 0.26,-0.2 0.23,-0.17 0.23,-0.18 0.23,-0.17 0.22,-0.19 0.24,-0.17 0.23,-0.2 0.24,-0.19 0.23,-0.18 0.25,-0.2 0.23,-0.19 0.23,-0.2 0.24,-0.19 0.36,-0.31 0.36,-0.3 0.36,-0.31 0.36,-0.31 1.65,-1.48 0.44,-0.4 0.43,-0.4 0.38,-0.36 0.24,-0.23 0.24,-0.24 0.24,-0.22 0.24,-0.24 0.24,-0.23 0.22,-0.23 0.21,-0.2 0.21,-0.22 0.22,-0.21 0.2,-0.22 0.22,-0.21 0.21,-0.24 0.24,-0.25 0.24,-0.24 0.23,-0.26 0.24,-0.25 0.24,-0.26 0.31,-0.35 0.32,-0.34 0.3,-0.35 0.34,-0.38 0.41,-0.49 0.41,-0.49 0.47,-0.56 0.5,-0.63 0.51,-0.66 0.51,-0.7 0.5,-0.68 0.46,-0.68 0.44,-0.67 0.4,-0.64 0.38,-0.64 0.32,-0.58 -15.64,-17.9"
         style="fill:#57747c;fill-opacity:1;fill-rule:nonzero;stroke:none"
         id="path368" /><path
         d="m 3707.08,2408.58 c -18.57,31.92 -42.96,56.43 -79.78,59.2 0,0 -60.4,-31.17 -60.4,-172.8 l 3.96,-354.26 0.07,-0.02 c -8.69,-3.53 -17.33,-7.2 -25.99,-10.8 -71.7,-29.77 -151.26,-56.28 -227.88,-68.86 -38.48,32.49 -93.37,49.34 -143.72,48.78 l 19.35,-36.01 c -36.64,-23.46 -119.4,18.83 -119.4,18.83 -6.07,-51.64 27.38,-105.25 71.74,-132.38 44.37,-27.12 467.85,12.71 557.66,70.86 59.04,38.24 45.09,403.48 45.09,403.48 4.11,60.76 -10.07,121.35 -40.7,173.98"
         style="fill:#d66d79;fill-opacity:1;fill-rule:nonzero;stroke:none"
         id="path370" /><path
         d="m 2983.76,1999.53 c -1.22,-11.19 -6.08,-31.17 -4.81,-42.36 3.8,-33.52 17.31,-66.41 40.84,-90.58 5.05,-5.18 10.72,-10.06 17.57,-12.4 6.84,-2.34 15.1,-1.68 20.41,3.24 5.63,5.24 6.66,13.65 7.12,21.33 0.67,11.47 0.84,23.13 -1.89,34.3 -2.73,11.16 -8.65,21.91 -18.08,28.47 -6.88,4.8 -15.13,7.08 -22.94,10.12 -7.81,3.04 -14.26,8.21 -20.44,14.8 l -17.78,33.08"
         style="fill:#d66d79;fill-opacity:1;fill-rule:nonzero;stroke:none"
         id="path372" /><path
         d="m 3326.95,2576.49 v -133.81 c -13.12,-12.38 -25.66,-26.57 -26.88,-44.25 -1.17,-16.86 9.2,-33.37 23.89,-41.75 14.68,-8.38 32.88,-9.27 49.18,-4.77 16.3,4.51 30.85,14.01 43.49,25.23 34.42,30.55 58.02,81.69 58.02,126.96 v 135.51 l -147.7,-63.12"
         style="fill:#d66d79;fill-opacity:1;fill-rule:nonzero;stroke:none"
         id="path374" /><path
         d="m 3468.93,2639.61 c -13.94,-73.64 -42.65,-137.41 -141.98,-160.32 v 97.2 l 141.98,63.12"
         style="fill:#bb4e5b;fill-opacity:1;fill-rule:nonzero;stroke:none"
         id="path376" /><path
         d="m 3434.3,2717.23 c -1.16,-8.91 -2.02,-26.74 -0.2,-35.54 1.81,-8.79 5.95,-17.3 12.72,-23.21 6.76,-5.91 15.47,-8.27 24.18,-6.07 -5.61,22.93 9.46,48.92 32.14,55.46 22.67,6.54 49.27,-7.44 56.74,-29.83 5.35,-16.07 1.36,-34.25 -7.72,-48.54 -9.08,-14.3 -22.76,-25.13 -37.31,-33.79 -17.35,-7.15 -37.44,0.51 -47.42,16.4 -42.64,-58.87 -119.35,-104.87 -193.1,-101.73 -20.03,0.85 -40.36,5.81 -56.71,17.43 -28.67,20.38 -32.06,52.76 -36.89,84.66 -6.12,40.39 -8.93,81.58 -4.06,122.27 6.73,56.22 29.35,112.14 71.23,150.26 30.17,-120.44 143.4,-160.56 186.4,-167.77"
         style="fill:#d66d79;fill-opacity:1;fill-rule:nonzero;stroke:none"
         id="path378" /><path
         d="m 3280.68,2724.79 -47.79,-64.09 47.46,-14.18 z"
         style="fill:#bb4e5b;fill-opacity:1;fill-rule:nonzero;stroke:none"
         id="path380" /><path
         d="m 3324.55,2618.06 c -12.89,-4.67 -25.78,-9.35 -38.67,-14.02 4.47,-8.92 17.58,-13.97 27.06,-10.86 9.48,3.11 13.29,15.05 11.61,24.88"
         style="fill:#bb4e5b;fill-opacity:1;fill-rule:nonzero;stroke:none"
         id="path382" /><path
         d="m 3306.88,2592.26 c -8.34,0 -17.43,4.65 -21,11.78 12.89,4.67 25.78,9.35 38.67,14.02 0.26,-1.5 0.39,-3.04 0.39,-4.6 0,-8.66 -3.96,-17.64 -12,-20.28 -1.91,-0.63 -3.96,-0.92 -6.06,-0.92"
         style="fill:#79333b;fill-opacity:1;fill-rule:nonzero;stroke:none"
         id="path384" /><path
         d="m 3300.04,2593.32 c 4.35,-1.25 8.93,-1.45 12.9,-0.14 7.44,2.44 11.34,10.33 11.88,18.36 -5.23,0.52 -10.64,-0.63 -15.03,-3.52 -5.06,-3.33 -8.52,-8.79 -9.75,-14.7"
         style="fill:#bb4e5b;fill-opacity:1;fill-rule:nonzero;stroke:none"
         id="path386" /><path
         d="m 3350.51,2714.71 c -0.03,-7.72 -6.32,-13.95 -14.04,-13.92 -7.72,0.03 -13.96,6.31 -13.93,14.04 0.04,7.72 6.33,13.96 14.05,13.92 7.72,-0.03 13.95,-6.31 13.92,-14.04"
         style="fill:#17282f;fill-opacity:1;fill-rule:nonzero;stroke:none"
         id="path388" /><path
         d="m 3233.14,2719.73 c -0.03,-7.72 -6.32,-13.95 -14.05,-13.92 -7.71,0.03 -13.95,6.31 -13.92,14.03 0.04,7.73 6.32,13.96 14.04,13.93 7.73,-0.03 13.96,-6.32 13.93,-14.04"
         style="fill:#17282f;fill-opacity:1;fill-rule:nonzero;stroke:none"
         id="path390" /><path
         d="m 3219.76,2775.43 c -10.36,-7.1 -20.71,-14.2 -31.08,-21.3 -3.03,7.36 -0.04,16.9 6.15,21.91 6.19,5.02 18.36,3.89 24.93,-0.61"
         style="fill:#17282f;fill-opacity:1;fill-rule:nonzero;stroke:none"
         id="path392" /><path
         d="m 3339.51,2776.62 c 10.3,-7.19 20.59,-14.38 30.9,-21.57 3.09,7.34 0.18,16.9 -5.96,21.97 -6.16,5.06 -18.33,4.03 -24.94,-0.4"
         style="fill:#17282f;fill-opacity:1;fill-rule:nonzero;stroke:none"
         id="path394" /></g></g></svg>
