<svg width="833" height="547" viewBox="0 0 833 547" fill="none" xmlns="http://www.w3.org/2000/svg">
<path fill-rule="evenodd" clip-rule="evenodd" d="M52.1572 99.3983C49.198 116.499 47.7183 131.819 47.7183 145.357H74.3518C78.4948 128.968 84.4134 115.43 92.1075 104.742C100.393 94.0543 114.598 88.7103 134.721 88.7103C150.701 88.7103 166.681 91.9167 182.661 98.3295C198.641 104.03 214.326 110.443 229.714 117.568C245.694 123.981 261.378 130.393 276.766 136.806C292.746 142.507 308.727 145.357 324.707 145.357C344.83 145.357 361.698 140.369 375.31 130.393C388.923 120.418 399.576 108.305 407.271 94.0543C415.556 79.0911 421.179 63.4154 424.138 47.0271C427.689 29.9264 429.465 14.2507 429.465 0H402.832C398.689 16.3883 392.474 29.9264 384.188 40.6144C376.494 50.5898 362.585 55.5775 342.462 55.5775C325.89 55.5775 309.614 52.7274 293.634 47.0271C278.246 41.3269 262.562 34.9141 246.582 27.7888C231.194 20.6634 215.509 14.2506 199.529 8.55039C184.141 2.85012 168.457 0 152.477 0C131.762 0 114.598 4.98773 100.985 14.9632C87.9645 24.9386 77.3111 37.4079 69.0251 52.3711C61.331 66.6218 55.7084 82.2975 52.1572 99.3983ZM206.143 432.245C231.397 432.245 254.264 422.007 270.837 405.447L351.817 486.591C314.52 523.918 263.022 547 206.143 547C92.2935 547 0 454.52 0 340.441C0 226.361 92.2935 133.881 206.143 133.881C263.114 133.881 314.688 157.039 352 194.472L351.705 194.768L561.879 405.367L561.981 405.265C578.568 421.932 601.51 432.245 626.857 432.245C677.457 432.245 718.476 391.143 718.476 340.441C718.476 289.738 677.457 248.636 626.857 248.636C601.603 248.636 578.736 258.874 562.163 275.434L481.183 194.29C518.48 156.963 569.978 133.881 626.857 133.881C740.706 133.881 833 226.361 833 340.441C833 454.52 740.707 547 626.857 547C570.701 547 519.79 524.501 482.612 488.008L482.502 488.118L268.724 273.908L268.991 273.64C252.586 258.138 230.472 248.636 206.143 248.636C155.543 248.636 114.524 289.738 114.524 340.441C114.524 391.143 155.543 432.245 206.143 432.245Z" fill="#19B19D"/>
</svg>
